<svg xmlns="http://www.w3.org/2000/svg" width="42.169" height="25" viewBox="0 0 42.169 25">
  <g id="_1150" data-name="1150" transform="translate(0.75 0)">
    <g id="Group_193" data-name="Group 193" transform="translate(0 0)">
      <text id="لغو" transform="translate(20.419 15)" fill="#bbaaf7" font-size="17" font-family="YekanBakh-Regular, Yekan Bakh"><tspan x="0" y="0">لغو</tspan></text>
      <g id="Iconly_Light_Close_Square" data-name="Iconly/Light/Close Square" transform="translate(0 7.562)">
        <g id="Close_Square" data-name="Close Square" transform="translate(0 0)">
          <path id="Stroke_1" data-name="Stroke 1" d="M2.841,0,0,2.841" transform="translate(4.062 4.057)" fill="none" stroke="#bbaaf7" stroke-linecap="round" stroke-linejoin="round" stroke-miterlimit="10" stroke-width="1.5"/>
          <path id="Stroke_2" data-name="Stroke 2" d="M2.843,2.844,0,0" transform="translate(4.061 4.056)" fill="none" stroke="#bbaaf7" stroke-linecap="round" stroke-linejoin="round" stroke-miterlimit="10" stroke-width="1.5"/>
          <path id="Stroke_3" data-name="Stroke 3" d="M8.052,0H2.914A2.825,2.825,0,0,0,0,3.062V7.9a2.822,2.822,0,0,0,2.914,3.062H8.052A2.823,2.823,0,0,0,10.966,7.9V3.062A2.823,2.823,0,0,0,8.052,0Z" transform="translate(0 0)" fill="none" stroke="#bbaaf7" stroke-linecap="round" stroke-linejoin="round" stroke-miterlimit="10" stroke-width="1.5"/>
        </g>
      </g>
    </g>
  </g>
</svg>
