<svg xmlns="http://www.w3.org/2000/svg" width="58.124" height="36" viewBox="0 0 58.124 36">
  <g id="_1600" data-name="1600" transform="translate(0.75 0)" opacity="0.8">
    <g id="Group_194" data-name="Group 194" transform="translate(0)">
      <g id="Group_193" data-name="Group 193" transform="translate(0 0)">
        <text id="لغو" transform="translate(28.374 22)" fill="#bbaaf7" font-size="24" font-family="YekanBakh-Regular, Yekan Bakh"><tspan x="0" y="0">لغو</tspan></text>
        <g id="Iconly_Light_Close_Square" data-name="Iconly/Light/Close Square" transform="translate(0 10.508)">
          <g id="Close_Square" data-name="Close Square" transform="translate(0 0)">
            <path id="Stroke_1" data-name="Stroke 1" d="M3.947,0,0,3.947" transform="translate(5.645 5.638)" fill="none" stroke="#bbaaf7" stroke-linecap="round" stroke-linejoin="round" stroke-miterlimit="10" stroke-width="1.5"/>
            <path id="Stroke_2" data-name="Stroke 2" d="M3.95,3.951,0,0" transform="translate(5.643 5.636)" fill="none" stroke="#bbaaf7" stroke-linecap="round" stroke-linejoin="round" stroke-miterlimit="10" stroke-width="1.5"/>
            <path id="Stroke_3" data-name="Stroke 3" d="M11.189,0H4.049A3.925,3.925,0,0,0,0,4.255v6.728a3.922,3.922,0,0,0,4.049,4.255h7.14a3.922,3.922,0,0,0,4.05-4.255V4.255A3.922,3.922,0,0,0,11.189,0Z" transform="translate(0 0)" fill="none" stroke="#bbaaf7" stroke-linecap="round" stroke-linejoin="round" stroke-miterlimit="10" stroke-width="1.5"/>
          </g>
        </g>
      </g>
    </g>
  </g>
</svg>
