<svg id="Group_84" data-name="Group 84" xmlns="http://www.w3.org/2000/svg" width="845" height="729.863" viewBox="0 0 845 729.863">
  <g id="Group_83" data-name="Group 83" transform="translate(0 0)">
    <g id="Group_82" data-name="Group 82" transform="translate(0 0)">
      <path id="Path_370" data-name="Path 370" d="M306.075,335.405,663.9,128.813,897.1,287.7,558.967,482.919a22.073,22.073,0,0,1-22.073,0L306.075,349.655A8.227,8.227,0,0,1,306.075,335.405Z" transform="translate(-264.153 5.189)" fill="#efefef"/>
      <g id="Group_46" data-name="Group 46" transform="translate(25.693 116.067)">
        <g id="Group_42" data-name="Group 42" transform="translate(279.651)">
          <path id="Path_371" data-name="Path 371" d="M326.391,139.723c-.014-15.609,10.981-21.97,24.507-14.176L580.82,258.017a14.89,14.89,0,0,1,6.741,11.653c0,4.291-3.01,6.034-6.728,3.891L350.912,141.091c-6.1-3.516-11.057-.647-11.052,6.393l.025,25.712c-4.463-.277-8.941-.283-13.461-.2Z" transform="translate(-326.391 -122.218)" fill="#ff2c9c"/>
          <path id="Path_372" data-name="Path 372" d="M580.854,287.72,350.935,203.939c-13.529-7.794-24.545-26.835-24.559-42.444l-.016-20.578c4.52-.079,9-.073,13.461.2l.025,28.132c.005,7.043,4.974,15.628,11.073,19.142l229.922,83.784a14.877,14.877,0,0,1,6.741,11.65C587.585,288.12,584.575,289.863,580.854,287.72Z" transform="translate(-326.327 -90.142)" fill="#d3008d"/>
        </g>
        <path id="Path_373" data-name="Path 373" d="M862.277,209.841l-279.69,161.84-236.8-141.221L327,202.422l1.95,9.934L334,186.348,773.56,203.114l77.445-4.989Z" transform="translate(-323.111 -11.953)" fill="#5738a5"/>
        <path id="Path_374" data-name="Path 374" d="M607.929,177.027,608,211.456,337.686,367.847l-7.3-32.812Z" transform="translate(-78.039 -27.979)" fill="#bca5f6"/>
        <path id="Path_375" data-name="Path 375" d="M327.1,284.424,606.34,122.868,858.108,269.28l.52,3.6L578.972,434.67Z" transform="translate(-319.722 -121.099)" fill="#744ed5"/>
        <g id="Group_43" data-name="Group 43" transform="translate(20.817 176.231)">
          <path id="Path_376" data-name="Path 376" d="M505.332,257.083l-65.657-38.947c-5.531-3.889-9.869-11.745-9.874-18.31l-.049-5.159c0-4.172,1.743-6.864,4.43-7.644l129.247,71.9,105.249,56.925-.1,34.811Z" transform="translate(-429.752 -187.023)" fill="#fff"/>
        </g>
        <path id="Path_377" data-name="Path 377" d="M326.391,341.18,603.864,180.649l5.879-3.4,5.373-3.108a13.554,13.554,0,0,1,1.789,6.257c0,2.11-.732,3.592-1.914,4.313v.011l-.043.027-.022.011L335.335,346.516Z" transform="translate(-76.085 -32.945)" fill="#5738a5"/>
        <path id="Path_378" data-name="Path 378" d="M432.7,254.266l-3.488,2.018-.643-1.112,2.172-1.709Z" transform="translate(-169.735 103.444)" fill="#fff"/>
        <path id="Path_379" data-name="Path 379" d="M432.175,236.754l-3.574,2.068.9-1.951Z" transform="translate(-169.302 74.715)" fill="#fff"/>
        <g id="Group_44" data-name="Group 44" transform="translate(0 161.793)">
          <path id="Path_380" data-name="Path 380" d="M683.623,317.513,453.7,185.043c-13.526-7.794-24.518-1.433-24.5,14.176l.046,5.159c.016,15.609,11.033,34.651,24.559,42.444l229.919,132.47c3.72,2.143,6.73.4,6.728-3.891a14.866,14.866,0,0,0-6.741-11.65L453.786,231.278c-6.1-3.513-11.068-12.1-11.073-19.142l-.049-5.156c-.005-7.041,4.952-9.91,11.052-6.393l229.922,132.47c3.717,2.143,6.73.4,6.728-3.891A14.89,14.89,0,0,0,683.623,317.513Z" transform="translate(-429.197 -181.714)" fill="#744ed5"/>
        </g>
        <path id="Path_381" data-name="Path 381" d="M617.149,227.947,497.671,159.109l-103.62,59.949L513.529,287.9Z" transform="translate(-260.323 -58.788)" fill="#fff"/>
        <g id="Group_45" data-name="Group 45" transform="translate(9.121 159.669)">
          <path id="Path_382" data-name="Path 382" d="M675.628,364.374a14.866,14.866,0,0,0-6.741-11.65L438.964,220.251c-6.1-3.513-11.068-12.1-11.073-19.142l-.049-5.156c0-4.612,2.126-7.416,5.305-7.826a9.261,9.261,0,0,0-1.621,5.694l.049,5.159c.005,7.041,4.974,15.626,11.073,19.142l229.922,132.47a14.885,14.885,0,0,1,6.741,11.65c0,3.252-1.729,5.031-4.188,4.775A6.481,6.481,0,0,0,675.628,364.374Z" transform="translate(-423.496 -168.563)" fill="#fff"/>
          <path id="Path_383" data-name="Path 383" d="M679.921,330.508a14.89,14.89,0,0,0-6.741-11.653L443.258,186.386c-5.825-3.356-11.174-4.074-15.384-2.573,4.5-3.832,11.367-3.995,19.068.441L676.864,316.726a14.87,14.87,0,0,1,6.739,11.65c.005,3.252-1.73,5.031-4.185,4.773A6.465,6.465,0,0,0,679.921,330.508Z" transform="translate(-427.874 -180.933)" fill="#fff"/>
        </g>
      </g>
      <g id="Group_51" data-name="Group 51" transform="translate(34.892 13.584)">
        <g id="Group_47" data-name="Group 47" transform="translate(279.654)">
          <path id="Path_384" data-name="Path 384" d="M323.008,102.037c-.014-15.609,10.978-21.97,24.5-14.176l229.922,132.47a14.882,14.882,0,0,1,6.741,11.653c0,4.291-3.008,6.034-6.728,3.891L347.526,103.4c-6.1-3.516-11.057-.647-11.052,6.393l.025,25.712c-4.463-.277-8.939-.283-13.461-.2Z" transform="translate(-323.008 -84.532)" fill="#d4ecff"/>
          <path id="Path_385" data-name="Path 385" d="M577.474,250.034,347.552,166.253c-13.526-7.794-24.542-26.835-24.556-42.444l-.019-20.578c4.522-.079,9-.073,13.461.2l.024,28.132c.005,7.04,4.974,15.628,11.076,19.142l229.919,83.784a14.866,14.866,0,0,1,6.741,11.65C584.2,250.434,581.192,252.177,577.474,250.034Z" transform="translate(-322.947 -52.456)" fill="#5793ce"/>
        </g>
        <path id="Path_386" data-name="Path 386" d="M858.894,172.155,579.2,334,342.4,192.774l-18.787-28.039,1.95,9.934,5.048-26.009,439.562,16.766,77.445-4.988Z" transform="translate(-319.727 25.732)" fill="#5793ce"/>
        <path id="Path_387" data-name="Path 387" d="M604.545,139.341l.076,34.428L334.3,330.161,327,297.348Z" transform="translate(-74.655 9.707)" fill="#86b8e0"/>
        <path id="Path_388" data-name="Path 388" d="M323.712,246.738,602.957,85.182,854.725,231.594l.52,3.6L575.589,396.983Z" transform="translate(-316.338 -83.413)" fill="#d4ecff"/>
        <g id="Group_48" data-name="Group 48" transform="translate(20.817 176.231)">
          <path id="Path_389" data-name="Path 389" d="M501.948,219.4,436.291,180.45c-5.531-3.889-9.869-11.745-9.874-18.312l-.049-5.156c0-4.172,1.743-6.864,4.43-7.644l129.247,71.9L665.3,278.163l-.1,34.811Z" transform="translate(-426.368 -149.337)" fill="#fff"/>
        </g>
        <path id="Path_390" data-name="Path 390" d="M323.008,303.5,600.481,142.965l5.882-3.4,5.371-3.108a13.565,13.565,0,0,1,1.789,6.26c0,2.11-.732,3.592-1.912,4.313l0,.011-.044.027-.022.011L331.952,308.832Z" transform="translate(-72.702 4.739)" fill="#5793ce"/>
        <path id="Path_391" data-name="Path 391" d="M429.316,216.58l-3.488,2.018-.643-1.112,2.172-1.709Z" transform="translate(-166.352 141.13)" fill="#fff"/>
        <path id="Path_392" data-name="Path 392" d="M428.792,199.068l-3.574,2.068.9-1.951Z" transform="translate(-165.919 112.4)" fill="#fff"/>
        <g id="Group_49" data-name="Group 49" transform="translate(0 161.793)">
          <path id="Path_393" data-name="Path 393" d="M680.24,279.827,450.318,147.357c-13.526-7.794-24.518-1.433-24.5,14.176l.049,5.159c.014,15.609,11.03,34.65,24.556,42.444l229.922,132.47c3.717,2.143,6.73.4,6.725-3.891a14.875,14.875,0,0,0-6.741-11.653L450.406,193.592c-6.1-3.513-11.068-12.1-11.076-19.142l-.049-5.159c-.005-7.04,4.952-9.907,11.052-6.393L680.254,295.371c3.72,2.14,6.73.4,6.728-3.891A14.875,14.875,0,0,0,680.24,279.827Z" transform="translate(-425.814 -144.028)" fill="#d4ecff"/>
        </g>
        <path id="Path_394" data-name="Path 394" d="M613.766,190.26,494.288,121.423l-103.62,59.949,119.478,68.838Z" transform="translate(-256.939 -21.102)" fill="#fff"/>
        <g id="Group_50" data-name="Group 50" transform="translate(9.121 159.667)">
          <path id="Path_395" data-name="Path 395" d="M672.245,326.688a14.875,14.875,0,0,0-6.741-11.653L435.584,182.565c-6.1-3.513-11.068-12.1-11.076-19.142l-.049-5.159c0-4.609,2.129-7.413,5.308-7.824a9.243,9.243,0,0,0-1.624,5.694l.049,5.156c.005,7.041,4.974,15.628,11.073,19.142L669.188,312.906a14.873,14.873,0,0,1,6.741,11.65c0,3.252-1.729,5.031-4.185,4.775A6.48,6.48,0,0,0,672.245,326.688Z" transform="translate(-420.114 -130.875)" fill="#fff"/>
          <path id="Path_396" data-name="Path 396" d="M676.537,292.824a14.889,14.889,0,0,0-6.741-11.653L439.874,148.7c-5.825-3.358-11.174-4.074-15.384-2.573,4.5-3.834,11.367-4,19.068.441L673.48,279.039a14.889,14.889,0,0,1,6.741,11.653c0,3.252-1.729,5.031-4.188,4.772A6.465,6.465,0,0,0,676.537,292.824Z" transform="translate(-424.49 -143.246)" fill="#fff"/>
        </g>
      </g>
      <g id="Group_62" data-name="Group 62" transform="translate(317.092 70.998)">
        <path id="Path_397" data-name="Path 397" d="M352.3,406.743,536.336,300.491c17.877-10.32,15.636-28.347-5.006-40.263v0c-20.64-11.916-51.864-13.211-69.741-2.891L277.556,363.586c-17.875,10.32-15.634,28.347,5.009,40.266h0C303.205,415.769,334.429,417.063,352.3,406.743Z" transform="translate(-133.366 143.19)" fill="#efefef"/>
        <path id="Path_398" data-name="Path 398" d="M396.393,377.753,580.425,271.5c17.877-10.32,15.637-28.347-5.006-40.263h0c-20.64-11.919-51.864-13.214-69.742-2.891L321.645,334.6c-17.875,10.32-15.634,28.347,5.009,40.266h0C347.294,386.778,378.518,388.073,396.393,377.753Z" transform="translate(-297.351 93.345)" fill="#efefef"/>
        <g id="Group_56" data-name="Group 56" transform="translate(0)">
          <g id="Group_52" data-name="Group 52" transform="translate(0 293.46)">
            <path id="Path_399" data-name="Path 399" d="M528.574,234.059c12.278,7.092,12.278,18.628,0,25.717L319.842,380.289a13.531,13.531,0,0,1-12.229,0c-3.375-1.95-3.375-5.112,0-7.06L516.348,252.717c5.537-3.2,5.537-8.4,0-11.6l-20.227-11.677c2.246-3.38,4.289-6.9,6.282-10.491Z" transform="translate(-230.412 -204.289)" fill="#d4ecff"/>
            <path id="Path_400" data-name="Path 400" d="M320.623,339.388,529.358,218.876c12.278-7.089,32.26-7.089,44.538,0l16.186,9.344c-1.993,3.592-4.036,7.111-6.282,10.491l-22.13-12.776c-5.539-3.2-14.549-3.2-20.085,0L332.852,346.448a13.531,13.531,0,0,1-12.229,0C317.248,344.5,317.248,341.338,320.623,339.388Z" transform="translate(-318.092 -213.559)" fill="#5793ce"/>
          </g>
          <path id="Path_401" data-name="Path 401" d="M308.892,525.172l-.021-293.511,218.74-121.939L558.2,107.7l29.582,19.161,18.152,15.8L392.814,480.628l-69.583,41.011Z" transform="translate(-308.871 -102.103)" fill="#5793ce"/>
          <path id="Path_402" data-name="Path 402" d="M452.995,478.07l-65.382-37.747V156.659l67.4,31.329Z" transform="translate(-372.076 -17.931)" fill="#79b1e0"/>
          <path id="Path_403" data-name="Path 403" d="M537.777,121.4V414.428L308.148,545.775l-3.064-1.227V251.085Z" transform="translate(-230.412 -78.562)" fill="#d4ecff"/>
          <g id="Group_53" data-name="Group 53" transform="translate(15.538 17.226)">
            <path id="Path_404" data-name="Path 404" d="M474.428,140.013l45.637-26.223c5.572-2.578,13.722-2.415,18.886.566l42.357,24.456c3.28,1.9,4.6,4.492,3.995,6.959L469.985,214.679l-92.631,56.857-65.6-38.055Z" transform="translate(-311.751 -111.979)" fill="#fff"/>
          </g>
          <path id="Path_405" data-name="Path 405" d="M395.877,167.393V470.374a12.324,12.324,0,0,1-5.735-1.439c-1.659-.96-2.491-2.211-2.521-3.467l-.008-.005V172Z" transform="translate(-312.942 0.525)" fill="#5793ce"/>
          <path id="Path_406" data-name="Path 406" d="M417.551,156.947v-3.66h1.167l.356,2.486Z" transform="translate(-417.55 -23.729)" fill="#fff"/>
          <path id="Path_407" data-name="Path 407" d="M390.235,172.856v-3.75l1.127,1.591Z" transform="translate(-315.559 3.47)" fill="#fff"/>
          <g id="Group_54" data-name="Group 54">
            <path id="Path_408" data-name="Path 408" d="M394.511,281.642l208.732-120.51c12.278-7.089,12.278-18.628,0-25.717l-42.357-24.453c-12.278-7.089-32.26-7.089-44.541,0L307.613,231.474c-3.375,1.947-3.375,5.11,0,7.057a13.514,13.514,0,0,0,12.229,0l208.732-120.51c5.537-3.2,14.546-3.2,20.085,0l42.357,24.453c5.537,3.2,5.537,8.4,0,11.6L382.285,274.585c-3.377,1.947-3.377,5.11,0,7.057A13.515,13.515,0,0,0,394.511,281.642Z" transform="translate(-305.082 -105.645)" fill="#d4ecff"/>
          </g>
          <path id="Path_409" data-name="Path 409" d="M325.335,329.8,433.8,267.174V158.438L325.335,221.062Z" transform="translate(-181.509 -14.872)" fill="#fff"/>
          <g id="Group_55" data-name="Group 55" transform="translate(0.007 9.978)">
            <path id="Path_410" data-name="Path 410" d="M313.966,232.222a13.514,13.514,0,0,0,12.229,0l208.732-120.51c5.537-3.2,14.546-3.2,20.085,0l42.357,24.453c3.625,2.094,4.862,5.044,3.739,7.731a8.416,8.416,0,0,0-3.739-3.864l-42.357-24.456c-5.539-3.2-14.549-3.2-20.085,0L326.2,236.089a13.514,13.514,0,0,1-12.229,0c-2.556-1.477-3.168-3.649-1.849-5.463A5.887,5.887,0,0,0,313.966,232.222Z" transform="translate(-311.442 -109.314)" fill="#fff"/>
            <path id="Path_411" data-name="Path 411" d="M307.61,253.467a13.515,13.515,0,0,0,12.229,0l208.732-120.51c5.286-3.054,8.286-6.934,9.017-10.927.971,5.278-2.026,10.755-9.017,14.791L319.839,257.334a13.514,13.514,0,0,1-12.229,0c-2.556-1.477-3.168-3.649-1.846-5.463A5.874,5.874,0,0,0,307.61,253.467Z" transform="translate(-230.417 -87.449)" fill="#fff"/>
          </g>
        </g>
        <g id="Group_61" data-name="Group 61" transform="translate(121.197 75.175)">
          <g id="Group_57" data-name="Group 57" transform="translate(0.001 293.46)">
            <path id="Path_412" data-name="Path 412" d="M484,261.7c12.281,7.089,12.281,18.625,0,25.715L275.272,407.931a13.526,13.526,0,0,1-12.226,0c-3.375-1.95-3.375-5.11,0-7.06L471.777,280.359c5.539-3.2,5.539-8.4,0-11.6l-20.227-11.68c2.249-3.38,4.289-6.9,6.285-10.489Z" transform="translate(-185.845 -231.931)" fill="#5738a5"/>
            <path id="Path_413" data-name="Path 413" d="M276.055,367.032,484.787,246.52c12.281-7.089,32.26-7.089,44.541,0l16.186,9.347c-2,3.59-4.036,7.108-6.285,10.489L517.1,253.579c-5.537-3.2-14.546-3.2-20.085,0L288.281,374.092a13.526,13.526,0,0,1-12.226,0C272.68,372.142,272.68,368.982,276.055,367.032Z" transform="translate(-273.524 -241.203)" fill="#5738a5"/>
          </g>
          <path id="Path_414" data-name="Path 414" d="M264.325,552.817,264.3,259.305l218.74-121.939,30.59-2.017,29.582,19.161,18.152,15.8L348.247,508.273l-69.584,41.011Z" transform="translate(-264.304 -129.746)" fill="#5738a5"/>
          <path id="Path_415" data-name="Path 415" d="M408.427,505.714l-65.382-37.747V184.3l67.4,31.329Z" transform="translate(-327.509 -45.575)" fill="#bca5f6"/>
          <path id="Path_416" data-name="Path 416" d="M493.21,149.04V442.073L263.58,573.419l-3.064-1.227V278.729Z" transform="translate(-185.845 -106.205)" fill="#744ed5"/>
          <g id="Group_58" data-name="Group 58" transform="translate(15.536 17.226)">
            <path id="Path_417" data-name="Path 417" d="M429.861,167.657l45.637-26.22c5.572-2.581,13.722-2.418,18.886.563l42.357,24.456c3.282,1.9,4.6,4.492,3.995,6.959L425.418,242.323,332.79,299.18l-65.605-38.055Z" transform="translate(-267.184 -139.623)" fill="#fff"/>
          </g>
          <path id="Path_418" data-name="Path 418" d="M351.308,195.037V498.021a12.315,12.315,0,0,1-5.732-1.441c-1.659-.96-2.494-2.211-2.521-3.467l-.008-.005V199.644Z" transform="translate(-268.374 -27.119)" fill="#5738a5"/>
          <path id="Path_419" data-name="Path 419" d="M372.983,184.591v-3.66h1.167l.356,2.485Z" transform="translate(-372.983 -51.372)" fill="#fff"/>
          <path id="Path_420" data-name="Path 420" d="M345.668,200.5v-3.75l1.127,1.591Z" transform="translate(-270.992 -24.173)" fill="#fff"/>
          <g id="Group_59" data-name="Group 59" transform="translate(0.001)">
            <path id="Path_421" data-name="Path 421" d="M349.941,309.286l208.732-120.51c12.281-7.089,12.281-18.625,0-25.715l-42.355-24.456c-12.281-7.089-32.26-7.089-44.541,0L263.045,259.118c-3.375,1.947-3.375,5.11,0,7.06a13.526,13.526,0,0,0,12.226,0L484,145.665c5.539-3.2,14.549-3.2,20.086,0l42.357,24.453c5.54,3.2,5.54,8.4,0,11.6L337.714,302.229c-3.375,1.947-3.375,5.11,0,7.06A13.517,13.517,0,0,0,349.941,309.286Z" transform="translate(-260.514 -133.289)" fill="#744ed5"/>
          </g>
          <path id="Path_422" data-name="Path 422" d="M280.768,357.442l108.467-62.624V186.082L280.768,248.706Z" transform="translate(-136.942 -42.516)" fill="#fff"/>
          <g id="Group_60" data-name="Group 60" transform="translate(0.007 9.978)">
            <path id="Path_423" data-name="Path 423" d="M269.4,259.869a13.526,13.526,0,0,0,12.226,0L490.358,139.357c5.539-3.2,14.549-3.2,20.086,0L552.8,163.809c3.628,2.094,4.862,5.047,3.739,7.731a8.4,8.4,0,0,0-3.739-3.864l-42.357-24.455c-5.537-3.2-14.546-3.2-20.086,0L281.626,263.733a13.509,13.509,0,0,1-12.226,0c-2.559-1.477-3.168-3.647-1.849-5.461A5.89,5.89,0,0,0,269.4,259.869Z" transform="translate(-266.875 -136.958)" fill="#fff"/>
            <path id="Path_424" data-name="Path 424" d="M263.044,281.114a13.517,13.517,0,0,0,12.226,0L484,160.6c5.289-3.054,8.286-6.932,9.02-10.926.968,5.278-2.029,10.755-9.02,14.791L275.27,284.978a13.509,13.509,0,0,1-12.226,0c-2.559-1.477-3.168-3.647-1.849-5.463A5.864,5.864,0,0,0,263.044,281.114Z" transform="translate(-185.85 -115.093)" fill="#fff"/>
          </g>
        </g>
      </g>
      <g id="Group_69" data-name="Group 69" transform="translate(496.395 506.737)">
        <path id="Path_425" data-name="Path 425" d="M259.26,455.646,537.884,294.783c6.023-3.478,5.267-9.553-1.689-13.57h0c-6.956-4.017-17.48-4.452-23.5-.974L234.068,441.1c-6.023,3.481-5.267,9.556,1.689,13.573h0C242.713,458.689,253.237,459.124,259.26,455.646Z" transform="translate(-209.71 -245.224)" fill="#efefef"/>
        <g id="Group_68" data-name="Group 68">
          <path id="Path_426" data-name="Path 426" d="M238.236,266.358h0a.954.954,0,0,0-1.023-.46l-13.23,2.73,5.112,8.9,9.023-10.054A.961.961,0,0,0,238.236,266.358Z" transform="translate(110.243 -265.879)" fill="#d4ecff"/>
          <g id="Group_63" data-name="Group 63" transform="translate(158.821 1.371)">
            <path id="Path_427" data-name="Path 427" d="M275.409,271.964a6.6,6.6,0,0,0-2.978-5.178,2.158,2.158,0,0,0-1.977-.266,84.36,84.36,0,0,0-43.529,11.2l-.957.549,16.121,28.059,4.876-3.163a84.308,84.308,0,0,0,25.565-25.987l2.107-3.367A2.159,2.159,0,0,0,275.409,271.964Z" transform="translate(-91.021 -266.383)" fill="#5793ce"/>
            <path id="Path_428" data-name="Path 428" d="M259.837,291.888c.016-7.3-5.088-16.178-11.4-19.841s-11.44-.715-11.454,6.581,5.088,16.18,11.4,19.841S259.823,299.184,259.837,291.888Z" transform="translate(-105.403 -259.348)" fill="#d4ecff"/>
            <path id="Path_429" data-name="Path 429" d="M257.271,375.768l128.04-76.957-16.122-28.059-130.968,71.86Z" transform="translate(-234.242 -258.87)" fill="#d4ecff"/>
            <path id="Path_430" data-name="Path 430" d="M310.848,322.153c.019-8.62-6.013-19.117-13.469-23.444s-13.518-.846-13.537,7.777,6.015,19.117,13.472,23.444S310.832,330.776,310.848,322.153Z" transform="translate(-283.842 -213.999)" fill="#d4ecff"/>
          </g>
          <g id="Group_64" data-name="Group 64" transform="translate(23.735 87.43)">
            <path id="Path_431" data-name="Path 431" d="M312.9,323.333c.019-8.621-6.013-19.117-13.472-23.444s-13.515-.846-13.534,7.777,6.013,19.117,13.469,23.444S312.882,331.953,312.9,323.333Z" transform="translate(-156.392 -298.029)" fill="#d4ecff"/>
            <rect id="Rectangle_13" data-name="Rectangle 13" width="38.238" height="149.358" transform="translate(23.027 108.456) rotate(-119.88)" fill="#d4ecff"/>
            <path id="Path_432" data-name="Path 432" d="M360.523,350.695c.016-8.62-6.013-19.117-13.472-23.444s-13.518-.846-13.534,7.777,6.013,19.117,13.469,23.444S360.5,359.318,360.523,350.695Z" transform="translate(-333.517 -250.983)" fill="#d4ecff"/>
            <path id="Path_433" data-name="Path 433" d="M352.641,343.486c-.245-5.091-4.326-11.47-9.115-14.247s-8.471-.9-8.223,4.188,4.327,11.47,9.115,14.25S352.889,348.576,352.641,343.486Z" transform="translate(-330.47 -246.578)" fill="#396caa"/>
          </g>
          <g id="Group_65" data-name="Group 65" transform="translate(152.468 81.923)">
            <path id="Path_434" data-name="Path 434" d="M310.486,321.945c.019-8.621-6.013-19.117-13.469-23.444s-13.518-.846-13.537,7.777,6.013,19.117,13.472,23.444S310.47,330.568,310.486,321.945Z" transform="translate(-276.143 -294.909)" fill="#5793ce"/>
            <path id="Path_435" data-name="Path 435" d="M303.881,323.04c.019-8.621-6.013-19.117-13.469-23.444-3-1.743-5.773-2.2-8.019-1.583,2.458-2.518,6.456-2.779,10.975-.158,7.457,4.327,13.488,14.823,13.472,23.444-.011,5.148-2.186,8.444-5.518,9.357C302.921,329.02,303.875,326.437,303.881,323.04Z" transform="translate(-269.537 -296.004)" fill="#fff"/>
            <rect id="Rectangle_14" data-name="Rectangle 14" width="38.238" height="8.463" transform="matrix(-0.498, -0.867, 0.867, -0.498, 23.028, 39.997)" fill="#5793ce"/>
            <path id="Path_436" data-name="Path 436" d="M313.184,323.5c.019-8.623-6.013-19.12-13.472-23.447s-13.515-.843-13.534,7.777,6.013,19.117,13.469,23.444S313.165,332.117,313.184,323.5Z" transform="translate(-286.178 -292.242)" fill="#d4ecff"/>
          </g>
          <g id="Group_66" data-name="Group 66" transform="translate(0 173.415)">
            <path id="Path_437" data-name="Path 437" d="M377.346,344.094l-8.221-14.3-27.447,15.772a8.246,8.246,0,0,0-3.043,11.261h0a8.245,8.245,0,0,0,11.261,3.043Z" transform="translate(-337.537 -329.404)" fill="#744ed5"/>
            <path id="Path_438" data-name="Path 438" d="M348.559,340.566a12.9,12.9,0,0,0-5.811-10.116c-3.217-1.866-5.833-.364-5.841,3.356a12.892,12.892,0,0,0,5.811,10.116C345.937,345.787,348.551,344.286,348.559,340.566Z" transform="translate(-307.034 -329.648)" fill="#744ed5"/>
          </g>
          <g id="Group_67" data-name="Group 67" transform="translate(35.322 94.155)">
            <path id="Path_439" data-name="Path 439" d="M335.143,340.776l-4.071-2.36c-2.336-1.354-5.45-1.055-8.762.848L308.2,347.37a10.668,10.668,0,0,0-4.841,8.343l-.014,7.019a5.772,5.772,0,0,1-1.447,3.513l.492,3.255-3.475-2.037.005-.005a1.788,1.788,0,0,1-.816-1.716l.014-7.019c.014-6.4,4.541-14.206,10.094-17.4l14.106-8.1c4.713-2.706,9.137-3.135,12.463-1.207l4.068,2.36c2.339,1.357,5.45,1.055,8.765-.849l56.857-32.671a1.822,1.822,0,0,1,1.871-.163v-.005l3.467,2.034-3,1.12a5.78,5.78,0,0,1-2.352,3.057l-56.86,32.671C342.893,342.277,338.466,342.7,335.143,340.776Z" transform="translate(-298.11 -300.502)" fill="#5793ce"/>
            <path id="Path_440" data-name="Path 440" d="M330.779,339.173c-2.336-1.354-5.45-1.052-8.762.851l-14.105,8.1a10.676,10.676,0,0,0-4.841,8.346l-.014,7.019a5.787,5.787,0,0,1-2.627,4.525c-1.447.832-2.616.152-2.613-1.515l.014-7.019c.014-6.4,4.541-14.209,10.094-17.4l14.105-8.1c4.713-2.708,9.137-3.138,12.463-1.21l4.068,2.363c2.339,1.354,5.45,1.052,8.765-.851l56.857-32.668c1.447-.832,2.619-.152,2.613,1.515a5.782,5.782,0,0,1-2.624,4.528l-56.86,32.668c-4.713,2.709-9.14,3.138-12.466,1.21Z" transform="translate(-294.295 -299.199)" fill="#5793ce"/>
          </g>
        </g>
        <path id="Path_441" data-name="Path 441" d="M350.706,362.527l26-15.008c3.135-1.811,2.741-4.974-.878-7.062h0c-3.62-2.091-9.1-2.317-12.232-.509l-26,15.011c-3.135,1.808-2.741,4.971.878,7.062h0C342.094,364.11,347.571,364.338,350.706,362.527Z" transform="translate(-333.417 -140.624)" fill="#efefef"/>
      </g>
      <g id="Group_75" data-name="Group 75" transform="translate(0 437.28)">
        <path id="Path_442" data-name="Path 442" d="M531.26,413.925l45.723-26.4L433.109,304.462l-45.722,26.4Z" transform="translate(-176.34 -130.081)" fill="#efefef"/>
        <path id="Path_443" data-name="Path 443" d="M501.721,336.127l7.866-4.541-58.719-34.373L443,301.755Z" transform="translate(-260.181 -142.545)" fill="#efefef"/>
        <circle id="Ellipse_24" data-name="Ellipse 24" cx="11.736" cy="11.736" r="11.736" transform="translate(375.5 261.594)" fill="#efefef"/>
        <g id="Group_74" data-name="Group 74">
          <path id="Path_444" data-name="Path 444" d="M479.553,265.417c38.248-22.081,100.261-22.084,138.51,0,15.857,9.154,25.116,20.67,27.825,32.586-2.388,10.51-9.89,20.7-22.506,29.247A80.014,80.014,0,0,0,612.7,319.9c-38.248-22.079-100.259-22.079-138.507,0-1.887,1.088-3.65,2.219-5.344,3.372-9.39-7.65-15.093-16.344-17.121-25.266C454.434,286.09,463.7,274.573,479.553,265.417Z" transform="translate(-420.205 -225.692)" fill="#d4ecff" opacity="0.5"/>
          <path id="Path_445" data-name="Path 445" d="M480.19,267.7c3.274,11.169,12.281,21.883,27.208,30.5,38.245,22.082,100.259,22.082,138.507,0,9.488-5.48,16.561-11.81,21.336-18.56,26.889,26.114,20.885,60.381-18.03,82.849-46.023,26.571-120.641,26.571-166.663,0C437.338,336.385,436.577,294.362,480.19,267.7Z" transform="translate(-448.05 -193.296)" fill="#efefef"/>
          <path id="Path_446" data-name="Path 446" d="M648.921,327.072,633.976,307.59l-45.37-21.084-39.089-3.47-45.778,5.6-31.76,16.414L451.695,318l-3.647-21.083,6.85-24.287s17.347-11.473,18.416-12.542,40.565-15.212,40.565-15.212l39.5-2.67,31.76,4.006,32.293,9.608,21.35,14.943,16.012,20.284,1.8,25.353Z" transform="translate(-420.914 -237.131)" fill="#5738a5"/>
          <path id="Path_447" data-name="Path 447" d="M524.737,264.209v41.038l10.972-17.792Z" transform="translate(-508.574 -199.292)" fill="#5738a5"/>
          <path id="Path_448" data-name="Path 448" d="M622.653,280.757c-38.246-22.082-100.259-22.082-138.507,0-12.031,6.945-20.27,15.25-24.733,24.056-3.369-3.016-7.707-5.384-9.507-9.447,5.48-7.457,13.456-14.448,23.988-20.529,43.91-25.353,115.1-25.353,159.014,0,9.61,5.55,17.116,11.851,22.519,18.579a33.613,33.613,0,0,1-8.025,11.432C642.945,296.029,634.7,287.713,622.653,280.757Z" transform="translate(-424.798 -213.708)" fill="#5738a5"/>
          <path id="Path_449" data-name="Path 449" d="M479.553,265.417c38.248-22.081,100.261-22.084,138.507,0,15.859,9.154,25.119,20.67,27.828,32.586-2.708,11.916-11.971,23.433-27.828,32.589-38.248,22.082-100.261,22.082-138.507,0-15.86-9.154-25.119-20.67-27.828-32.586C454.434,286.09,463.7,274.573,479.553,265.417Z" transform="translate(-420.205 -223.692)" fill="#d4ecff" opacity="0.5"/>
          <path id="Path_450" data-name="Path 450" d="M455,281.274a13.57,13.57,0,0,0,3.416,4.438l.035-.427,10.141,6.048L481.048,302.9l17.257,7.65,23.841,8.542,21.173,4.982,29.179,1.245,18.862-1.958,37.362-9.784,24.349-21.527c-.2-.432-.356-.867-.574-1.294a33.613,33.613,0,0,0,8.025-11.432c.658.821,1.281,1.648,1.876,2.48l8.536-17.779v42.626l-.022-.038c.016,16.626-10.94,33.253-32.913,45.939-43.91,25.353-115.1,25.353-159.014,0C445.609,333.28,437.633,304.913,455,281.274Z" transform="translate(-429.894 -199.614)" fill="#5738a5"/>
          <path id="Path_451" data-name="Path 451" d="M446.077,299.812l8.781-7.764c-.2-.432-.356-.867-.574-1.294a33.613,33.613,0,0,0,8.025-11.432c.658.821,1.281,1.648,1.876,2.48l8.536-17.779v42.626l-.022-.038c.016,14.946-8.871,29.886-26.623,41.968Z" transform="translate(-231.68 -199.614)" fill="#744ed5"/>
          <path id="Path_452" data-name="Path 452" d="M479.011,259.351c43.91-25.35,115.1-25.353,159.014,0s43.907,66.454,0,91.807-115.1,25.35-159.014,0S435.1,284.7,479.011,259.351Zm10.252,85.887c38.245,22.082,100.259,22.082,138.507,0s38.248-57.885,0-79.966-100.259-22.081-138.507,0S451.015,323.156,489.263,345.237Z" transform="translate(-429.915 -240.337)" fill="#744ed5"/>
          <g id="Group_72" data-name="Group 72" transform="translate(209.727 120.66)">
            <g id="Group_70" data-name="Group 70" transform="translate(0)">
              <path id="Path_453" data-name="Path 453" d="M501.749,321.126l-62.32-36.265-8.286,13.423,62.6,36.461Z" transform="translate(-429.823 -284.444)" fill="#d4ecff"/>
              <ellipse id="Ellipse_25" data-name="Ellipse 25" cx="4.561" cy="7.9" rx="4.561" ry="7.9" transform="matrix(-0.866, -0.5, 0.5, -0.866, 67.925, 52.614)" fill="#983be9"/>
              <ellipse id="Ellipse_26" data-name="Ellipse 26" cx="4.561" cy="7.9" rx="4.561" ry="7.9" transform="matrix(-0.866, -0.5, 0.5, -0.866, 67.925, 52.614)" fill="#983be9"/>
              <path id="Path_454" data-name="Path 454" d="M453.484,295.146c0,3.562,2.5,5.006,5.586,3.225a12.351,12.351,0,0,0,5.586-9.676c0-3.562-2.5-5.006-5.586-3.225A12.343,12.343,0,0,0,453.484,295.146Z" transform="translate(-453.484 -284.708)" fill="#d4ecff"/>
            </g>
            <path id="Path_455" data-name="Path 455" d="M382.291,331.245c0-15.329,10.763-33.968,24.039-41.634,6.793-3.921,12.92-4.188,17.29-1.479l.008-.011L555.383,364.7l-34.428,58.6L390.59,347.4a11.4,11.4,0,0,1-2.507-1.46l-.109-.063.005-.008C384.437,343.08,382.291,338.073,382.291,331.245Z" transform="translate(-350.61 -281.897)" fill="#5793ce"/>
            <path id="Path_456" data-name="Path 456" d="M529.755,380.923,382.291,295.784a40.006,40.006,0,0,1,7.946-6.173c6.793-3.921,12.92-4.188,17.29-1.479l.008-.011L539.29,364.7Z" transform="translate(-334.517 -281.897)" fill="#d4ecff"/>
            <g id="Group_71" data-name="Group 71" transform="translate(153.566 72.847)">
              <ellipse id="Ellipse_27" data-name="Ellipse 27" cx="19.626" cy="33.993" rx="19.626" ry="33.993" transform="translate(33.993 78.504) rotate(-149.999)" fill="#d4ecff"/>
              <circle id="Ellipse_28" data-name="Ellipse 28" cx="15.657" cy="15.657" r="15.657" transform="translate(29.475 30.311)" fill="#5793ce"/>
              <circle id="Ellipse_29" data-name="Ellipse 29" cx="4.626" cy="4.626" r="4.626" transform="translate(47.997 35.605)" fill="#fff"/>
            </g>
            <path id="Path_457" data-name="Path 457" d="M406.74,317.409c7.1-4.1,13.466-4.2,17.866-1.082-4.261-1.988-9.9-1.468-16.093,2.11-13.276,7.666-24.037,26.3-24.037,41.634,0,7.125,2.344,12.251,6.17,14.957-4.868-2.271-7.943-7.815-7.943-15.985C382.7,343.711,393.464,325.072,406.74,317.409Z" transform="translate(-220.954 -234.094)" fill="#fff"/>
          </g>
          <g id="Group_73" data-name="Group 73" transform="translate(16.194 8.373)">
            <path id="Path_458" data-name="Path 458" d="M480.079,259.977c38.248-22.081,100.261-22.081,138.507,0,19.92,11.5,29.437,26.718,28.611,41.783-.759-13.866-10.279-27.6-28.611-38.18-38.246-22.084-100.259-22.081-138.507,0-18.329,10.584-27.849,24.317-28.611,38.183C450.642,286.7,460.162,271.477,480.079,259.977Z" transform="translate(-436.925 -243.416)" fill="#fff"/>
            <path id="Path_459" data-name="Path 459" d="M478.988,308.974c43.91,25.35,115.1,25.35,159.014,0,21.162-12.218,32.094-28.1,32.858-44.1.824,17.208-10.108,34.572-32.858,47.7-43.91,25.353-115.1,25.353-159.014,0-22.748-13.135-33.68-30.5-32.856-47.7C446.9,280.883,457.829,296.759,478.988,308.974Z" transform="translate(-446.089 -206.526)" fill="#fff"/>
          </g>
        </g>
      </g>
      <g id="Group_81" data-name="Group 81" transform="translate(134.859)">
        <g id="Group_80" data-name="Group 80">
          <g id="Group_77" data-name="Group 77">
            <path id="Path_460" data-name="Path 460" d="M496.226,205.825s-6.026-6.663-12.792-2.815-18.456,14.576-22.12,23.463,3.867,11.1,9.026,10.649,24.923-13.94,27.08-17.244,2.366-8.822,1.515-10.247S496.226,205.825,496.226,205.825Z" transform="translate(-432.017 130.706)" fill="#5793ce"/>
            <path id="Path_461" data-name="Path 461" d="M476.643,202.914l.373,8.31a4.713,4.713,0,0,1-2.35,4.324,9.244,9.244,0,0,1-6.187.963c-6.045-.971-6.584-2.7-7.016-11.008S476.643,202.914,476.643,202.914Z" transform="translate(-412.654 129.299)" fill="#d4ecff"/>
            <g id="Group_76" data-name="Group 76" transform="translate(0 147.834)">
              <path id="Path_462" data-name="Path 462" d="M506.642,199.811s-6.026-6.665-12.792-2.817-18.457,14.576-22.12,23.463,3.87,11.1,9.026,10.649,24.923-13.94,27.08-17.244,2.366-8.822,1.515-10.247S506.642,199.811,506.642,199.811Z" transform="translate(-470.761 -27.473)" fill="#5793ce"/>
              <path id="Path_463" data-name="Path 463" d="M486.806,196.644l.37,8.31a4.715,4.715,0,0,1-2.347,4.324,9.237,9.237,0,0,1-6.189.963c-6.043-.971-6.584-2.7-7.013-11.008S486.806,196.644,486.806,196.644Z" transform="translate(-450.452 -29.316)" fill="#d4ecff"/>
              <path id="Path_464" data-name="Path 464" d="M543.694,149.711c-2.377-38.634-41.838,5.684-41.838,5.684l-27.012,26.473-22.593,25.649a23.975,23.975,0,0,0-6.042,19.259l9.842,74.919a7.361,7.361,0,0,0,7.383,6.4,24.757,24.757,0,0,0,3.644-.321c8.775-1.365,8.128-9.711,8.128-9.711l-1.8-70.071,49.349-29.72S546.065,188.343,543.694,149.711Z" transform="translate(-437.487 -133.9)" fill="#5793ce"/>
            </g>
            <path id="Path_465" data-name="Path 465" d="M534.624,155.123c-2.374-38.632-41.838,5.684-41.838,5.684l-27.009,26.476L441.454,214a23.967,23.967,0,0,0-6.042,19.259l9.839,74.919a7.365,7.365,0,0,0,7.383,6.4,25.039,25.039,0,0,0,3.644-.318c8.778-1.368,8.131-9.714,8.131-9.714l-1.8-70.071,51.078-30.792S537,193.757,534.624,155.123Z" transform="translate(-399.052 23.241)" fill="#5793ce"/>
            <path id="Path_466" data-name="Path 466" d="M490.8,102.243c29.919,12.4,29.318,30.09,29.318,30.09s-5.86,64.836-3.859,108.139c.835,18.1-96.177,19.482-81.709-28.812,17.059-56.941,10.665-103.038,18.65-109.991S483.056,99.034,490.8,102.243Z" transform="translate(-378.57 -47.89)" fill="#744ed5"/>
            <path id="Path_467" data-name="Path 467" d="M470.373,115.1c-1.564,6.072-9.523,9.273-17.777,7.149s-13.676-8.775-12.109-14.851,9.523-9.276,17.777-7.149S471.939,109.021,470.373,115.1Z" transform="translate(-348.523 -45.06)" fill="#ffc2b0"/>
            <path id="Path_468" data-name="Path 468" d="M468.414,109.846l-5.507,5.977a3.626,3.626,0,0,0-.933,2.872l3.783,32.725a3.568,3.568,0,0,1-.707,2.575L453.2,169.487a1.069,1.069,0,0,1-1.868-.324l-6.448-20.295a3.553,3.553,0,0,1,.068-2.35L456.3,116.8a3.626,3.626,0,0,0,.16-2.04l-1.659-7.881Z" transform="translate(-358.544 -32.53)" fill="#fff"/>
            <path id="Path_469" data-name="Path 469" d="M458.554,125.225c6.869,0,12.713-3.435,14.114-8.876h0c1.759-6.826-4.136-14.269-13.14-16.591s-17.758,1.352-19.517,8.18c-.876,3.388.065,7,2.649,10.165a19.916,19.916,0,0,0,10.491,6.429A21.712,21.712,0,0,0,458.554,125.225Zm-4.5-23.311a19.217,19.217,0,0,1,4.764.617c7.473,1.925,12.444,7.8,11.079,13.1h0c-1.362,5.3-8.561,8.039-16.036,6.121a17.011,17.011,0,0,1-8.982-5.463,8.645,8.645,0,0,1-2.1-7.644C443.851,104.5,448.5,101.914,454.054,101.914Z" transform="translate(-349.432 -45.959)" fill="#fff"/>
            <path id="Path_470" data-name="Path 470" d="M443.012,102.8s.258,1.2-.258,10.679c-.163,2.98,10.274,5.765,12.972,3.067s1.618-5.5,2.265-15.647S443.012,102.8,443.012,102.8Z" transform="translate(-342.785 -49.794)" fill="#ffc2b0"/>
            <path id="Path_471" data-name="Path 471" d="M458,98.329s-2.57,9.406-15.24,13.012l.193-8.547Z" transform="translate(-342.793 -47.225)" fill="#ea9c92"/>
            <ellipse id="Ellipse_30" data-name="Ellipse 30" cx="23.03" cy="23.03" rx="23.03" ry="23.03" transform="translate(85.618 61.716) rotate(-106.947)" fill="#ffc2b0"/>
            <path id="Path_472" data-name="Path 472" d="M474.547,95.488s-12.678,5.433-21.459,5.5-6.845-7.291-6.845-7.291l26.063-3.766Z" transform="translate(-368.323 -61.672)" fill="#ea9c92"/>
            <path id="Path_473" data-name="Path 473" d="M451.7,114.786s11.043-4.691,20.735-2.736a10.152,10.152,0,0,1,5.855,3.481,3.462,3.462,0,0,0,1.773,1.284c1.716.389,4.53-6.741,7.87-6.9s5.569,2.2,2.831,6.586-1.814,9.292-.555,10,16.858-10.181,5.069-33.536-43.967-10.127-48.623-5.393c0,0-4.909,4.275-8.9.47C437.757,88.036,433.284,121.539,451.7,114.786Z" transform="translate(-369.551 -79.537)" fill="#396caa"/>
            <path id="Path_474" data-name="Path 474" d="M469.224,134.315v17.521a7.138,7.138,0,0,1-2.328,5.273L430.9,189.924l4.09,6.252,49.583-32.513a9.663,9.663,0,0,0,3.938-6.809l3.391-32.513Z" transform="translate(-344.465 -2.502)" fill="#ffc2b0"/>
            <path id="Path_475" data-name="Path 475" d="M445.372,107.367s10.918,16.422,14.987,59.644c0,0-18.652,6.032-29.239,2.608S445.372,107.367,445.372,107.367Z" transform="translate(-306.36 -31.685)" fill="#744ed5"/>
            <path id="Path_476" data-name="Path 476" d="M444.5,115s-4.275,22.878-4.517,33.631a6.863,6.863,0,0,0,4.517,6.627h0Z" transform="translate(-321.732 -18.558)" fill="#5738a5"/>
          </g>
          <g id="Group_78" data-name="Group 78" transform="translate(6.503 174.34)">
            <path id="Path_477" data-name="Path 477" d="M550.334,176.649l-7.954-1.05-51.348-29.647a7.132,7.132,0,0,0-6.423.266l-36.385,21-4.811-.636v4.789l.005,0a1.872,1.872,0,0,0,1.1,1.686l58.192,33.6a7.149,7.149,0,0,0,6.423-.267l39.627-22.87a2.59,2.59,0,0,0,1.569-2.162h0Z" transform="translate(-443.409 -140.787)" fill="#d4ecff"/>
            <path id="Path_478" data-name="Path 478" d="M525.941,151.276l-3.649-2.1H482.183l-19.773,11.408-4.811-.636v4.789l.005,0a1.872,1.872,0,0,0,1.1,1.686l58.192,33.6a6.04,6.04,0,0,0,3.315.62Z" transform="translate(-457.597 -134.148)" fill="#d4ecff"/>
            <path id="Path_479" data-name="Path 479" d="M484.081,153.415l-2.135-.283v4.789l.005,0a1.872,1.872,0,0,0,1.1,1.686l1.025.59Z" transform="translate(-481.943 -127.337)" fill="#5793ce"/>
            <path id="Path_480" data-name="Path 480" d="M458.7,173.335a7.454,7.454,0,0,0,5.455-.34v-8.147H458.7Z" transform="translate(-398.81 -107.193)" fill="#d4ecff"/>
            <path id="Path_481" data-name="Path 481" d="M502.717,204.731l-58.192-33.6c-1.648-.952-1.441-2.611.46-3.709l39.627-22.87a7.149,7.149,0,0,1,6.423-.266l58.192,33.6c1.648.952,1.441,2.611-.459,3.709l-39.627,22.87A7.14,7.14,0,0,1,502.717,204.731Z" transform="translate(-443.412 -143.646)" fill="#fff"/>
            <path id="Path_482" data-name="Path 482" d="M500.344,191.876,451.958,163.94c-1.371-.791-1.2-2.17.383-3.084l21.233-11.941a5.938,5.938,0,0,1,5.341-.22L527.3,176.631c1.368.791,1.2,2.17-.383,3.084l-21.236,11.941A5.938,5.938,0,0,1,500.344,191.876Z" transform="translate(-442.024 -135.885)" fill="#d4ecff"/>
          </g>
          <path id="Path_483" data-name="Path 483" d="M463.247,144.85l-.6,4.017a29.7,29.7,0,0,0,.261,10.3l.718,3.538a4.975,4.975,0,0,0,3.987,3.91h0a2.747,2.747,0,0,0,3.22-2.4l.96-8.585s2.195,2.88,3.255,2.88-1.186-8.6-3.584-13.464S463.247,144.85,463.247,144.85Z" transform="translate(-413.295 29.293)" fill="#ffc2b0"/>
          <path id="Path_484" data-name="Path 484" d="M483.009,127.767l-6.244,12.36a24.243,24.243,0,0,0-2.556,9.382l-2.711,42.27-8.215-.2-3.728-47.47a17.454,17.454,0,0,1,.212-4.389l4.259-24.072Z" transform="translate(-413.331 -17.44)" fill="#ffc2b0"/>
          <g id="Group_79" data-name="Group 79" transform="translate(0.749 149.168)">
            <path id="Path_485" data-name="Path 485" d="M522.306,223.874l-4.879-6.372-51.312-29.709a7.135,7.135,0,0,1-2.975-5.7l.046-42.012-2.951-3.851,2.771-1.607,0,.005a1.873,1.873,0,0,1,2.012.114l58.154,33.669a7.142,7.142,0,0,1,2.972,5.7l-.049,45.751a2.589,2.589,0,0,1-1.088,2.439h0Z" transform="translate(-459.219 -134.39)" fill="#fff"/>
            <path id="Path_486" data-name="Path 486" d="M487.108,199.783l-3.644-2.11-20.012-34.759.022-22.829-2.951-3.851,2.771-1.607,0,.005a1.873,1.873,0,0,1,2.012.114l58.154,33.669a6.029,6.029,0,0,1,2.192,2.564Z" transform="translate(-459.506 -134.39)" fill="#fff"/>
            <path id="Path_487" data-name="Path 487" d="M483.645,137.941l-1.308-1.708,2.771-1.607,0,.005a1.873,1.873,0,0,1,2.012.114l1.025.593Z" transform="translate(-481.32 -134.39)" fill="#fff"/>
            <path id="Path_488" data-name="Path 488" d="M466.219,147.039a7.449,7.449,0,0,1,2.428,4.9l-5.683,3.282-2.722-4.729Z" transform="translate(-401.734 -112.642)" fill="#fff"/>
            <path id="Path_489" data-name="Path 489" d="M522.44,169.007l-58.151-33.669c-1.645-.952-2.983.054-2.986,2.249l-.049,45.754a7.135,7.135,0,0,0,2.975,5.7l58.151,33.669c1.645.954,2.983-.054,2.986-2.249l.049-45.751A7.141,7.141,0,0,0,522.44,169.007Z" transform="translate(-461.254 -133.378)" fill="#d4ecff"/>
            <path id="Path_490" data-name="Path 490" d="M461.478,137.572c0-1.689.8-2.649,1.912-2.581a3.328,3.328,0,0,0-.427,1.678l-.049,45.751a7.136,7.136,0,0,0,2.975,5.7l58.154,33.669a2.361,2.361,0,0,0,1.072.332,1.7,1.7,0,0,1-2.559.574L464.4,189.023a7.135,7.135,0,0,1-2.975-5.7Z" transform="translate(-461.429 -133.363)" fill="#fff"/>
          </g>
          <path id="Path_491" data-name="Path 491" d="M471.008,154.709l-.933,1.931a12.941,12.941,0,0,1-4.86,5.39l-5.779,3.56a5.749,5.749,0,0,1-5.9.136c-.065-.038-.13-.079-.2-.12a3.476,3.476,0,0,1-.492-5.338l6.037-6.206s-3.391,2.6-4.343,1.553c-.7-.767,3.29-4.509,6.35-4.631s6.021-2.526,6.021-2.526Z" transform="translate(-380.478 38.964)" fill="#ffc2b0"/>
          <path id="Path_492" data-name="Path 492" d="M486.758,99.28S464.63,123.358,455.7,145.444c0,0,7.568,13.632,26.09,18.984S486.758,99.28,486.758,99.28Z" transform="translate(-411.535 -45.59)" fill="#744ed5"/>
          <path id="Path_493" data-name="Path 493" d="M464.366,144.618l3.587-34.648L459.5,142.431A48.166,48.166,0,0,0,464.366,144.618Z" transform="translate(-398.275 -27.21)" fill="#5738a5"/>
          <path id="Path_494" data-name="Path 494" d="M455.169,98.526l-5.945-1.634s2.839,4.465,6.981,5.6S461,100.128,461,100.128Z" transform="translate(-363.372 -49.696)" fill="#fff"/>
        </g>
        <path id="Path_495" data-name="Path 495" d="M446.311,96.087A3.312,3.312,0,1,1,443,92.775,3.313,3.313,0,0,1,446.311,96.087Z" transform="translate(-322.752 -56.775)" fill="#fff"/>
      </g>
    </g>
  </g>
</svg>
