<svg id="Iconly_Light_Bookmark" data-name="Iconly/Light/Bookmark" xmlns="http://www.w3.org/2000/svg" width="29" height="29" viewBox="0 0 29 29">
  <g id="Bookmark" transform="translate(5.191 3.357)">
    <path id="Path_33968" d="M8.9,19.156,1.736,23.083a1.2,1.2,0,0,1-1.593-.476h0A1.261,1.261,0,0,1,0,22.043V4.645C0,1.327,2.267,0,5.53,0h7.665c3.163,0,5.53,1.239,5.53,4.424V22.043a1.183,1.183,0,0,1-1.183,1.183,1.305,1.305,0,0,1-.575-.144L9.755,19.156A.9.9,0,0,0,8.9,19.156Z" transform="translate(0 0)" fill="none" stroke="#695adc" stroke-linecap="round" stroke-linejoin="round" stroke-miterlimit="10" stroke-width="1.5"/>
    <path id="Line_209" d="M0,.458H8.815" transform="translate(4.922 7.45)" fill="none" stroke="#695adc" stroke-linecap="round" stroke-linejoin="round" stroke-miterlimit="10" stroke-width="1.5"/>
  </g>
</svg>
