<svg xmlns="http://www.w3.org/2000/svg" width="60.979" height="85.111" viewBox="0 0 60.979 85.111">
  <g id="flask" transform="translate(-983.888 -501.366)">
    <g id="Path_276" data-name="Path 276">
      <path id="Path_359" data-name="Path 359" d="M1043.758,574.737l-17.786-43.352a19.782,19.782,0,0,1-1.484-7.542v-11.46a4.589,4.589,0,0,1,1.351-3.267,5.6,5.6,0,0,0,1.649-3.983v-1.624a1.643,1.643,0,0,0-1.642-1.643H1002.91a1.643,1.643,0,0,0-1.643,1.643v1.624a5.6,5.6,0,0,0,1.65,3.984,4.591,4.591,0,0,1,1.353,3.268v11.458a19.764,19.764,0,0,1-1.482,7.542L997.9,543.3l-.006.013L985,574.738a8.147,8.147,0,0,0,7.537,11.238h43.687a8.145,8.145,0,0,0,7.537-11.238Zm-37.935-42.106a23.041,23.041,0,0,0,1.733-8.789V512.383a7.857,7.857,0,0,0-2.315-5.59,2.333,2.333,0,0,1-.688-1.641H1024.2a2.334,2.334,0,0,1-.689,1.641,7.856,7.856,0,0,0-2.315,5.59v11.459a23.041,23.041,0,0,0,1.733,8.789l3.966,9.668h-25.042Zm34.435,47.905a4.789,4.789,0,0,1-4.037,2.154H992.534a4.868,4.868,0,0,1-4.814-5.564h2.707a1.643,1.643,0,1,0,0-3.286h-1.509l1.887-4.6h2.77a1.643,1.643,0,0,0,0-3.286h-1.423l1.887-4.6h2.849a1.643,1.643,0,0,0,0-3.286h-1.5l1.887-4.6h2.926a1.643,1.643,0,0,0,0-3.286h-1.579l1.887-4.6h27.737l12.472,30.4a4.79,4.79,0,0,1-.46,4.552Z" fill="#bf81fe"/>
      <path id="Path_360" data-name="Path 360" d="M1036.221,586.477H992.534a8.648,8.648,0,0,1-8-11.928l17.791-43.354a19.177,19.177,0,0,0,1.445-7.351V512.385a4.116,4.116,0,0,0-1.206-2.913,6.143,6.143,0,0,1-1.8-4.34v-1.623a2.146,2.146,0,0,1,2.143-2.143h22.936a2.146,2.146,0,0,1,2.142,2.143v1.624a6.134,6.134,0,0,1-1.8,4.338,4.118,4.118,0,0,0-1.2,2.911v11.461a19.162,19.162,0,0,0,1.447,7.352l17.786,43.353a8.649,8.649,0,0,1-8,11.929Zm-33.311-84.111a1.144,1.144,0,0,0-1.143,1.143v1.624a5.131,5.131,0,0,0,1.5,3.63,5.127,5.127,0,0,1,1.5,3.624v11.456a20.175,20.175,0,0,1-1.519,7.732L985.46,574.928a7.649,7.649,0,0,0,7.074,10.549h43.687a7.647,7.647,0,0,0,7.074-10.549l.463-.19-.463.189-17.786-43.352a20.184,20.184,0,0,1-1.521-7.733V512.383a5.126,5.126,0,0,1,1.5-3.621,5.13,5.13,0,0,0,1.5-3.627v-1.626a1.144,1.144,0,0,0-1.142-1.143Zm33.349,80.824H992.534a5.367,5.367,0,0,1-5.364-5.372,5.274,5.274,0,0,1,.055-.763l.062-.429h3.14a1.142,1.142,0,1,0,0-2.285h-2.254l2.3-5.6h3.105a1.143,1.143,0,1,0,0-2.286h-2.168l2.3-5.6h3.184a1.143,1.143,0,1,0,0-2.286h-2.246l2.3-5.6h3.262a1.144,1.144,0,0,0,1.142-1.144,1.144,1.144,0,0,0-1.142-1.142h-2.324l2.3-5.6h28.407l12.6,30.711a5.27,5.27,0,0,1-.506,5.018h0A5.271,5.271,0,0,1,1036.259,583.19Zm-48.085-5.564c0,.064,0,.128,0,.192a4.372,4.372,0,0,0,4.364,4.372h43.687a4.314,4.314,0,0,0,3.619-1.929l.005-.006a4.283,4.283,0,0,0,.412-4.079l-12.346-30.094h-27.067l-1.477,3.6h.834a2.143,2.143,0,0,1,0,4.286h-2.593l-1.476,3.6h.755a2.143,2.143,0,1,1,0,4.286h-2.514l-1.477,3.6h.678a2.143,2.143,0,1,1,0,4.286H991.14l-1.477,3.6h.764a2.142,2.142,0,1,1,0,4.285Zm39.47-34.826h-26.533l4.249-10.359a22.432,22.432,0,0,0,1.7-8.6v-11.46a7.4,7.4,0,0,0-2.167-5.235,2.816,2.816,0,0,1-.836-1.993l0-.5h20.657l0,.5a2.817,2.817,0,0,1-.837,1.993,7.4,7.4,0,0,0-2.167,5.234v11.46a22.433,22.433,0,0,0,1.7,8.6Zm-25.042-1h23.551l-3.683-8.979a23.442,23.442,0,0,1-1.77-8.979V512.383a8.408,8.408,0,0,1,2.462-5.944,1.824,1.824,0,0,0,.469-.787h-18.505a1.812,1.812,0,0,0,.468.787,8.409,8.409,0,0,1,2.462,5.946v11.457a23.441,23.441,0,0,1-1.77,8.979Z" fill="#bf81fe"/>
    </g>
    <g id="Path_277" data-name="Path 277">
      <path id="Path_361" data-name="Path 361" d="M1035.646,574.84a1.643,1.643,0,0,0-3.061,1.2l.02.048.009.021a1.643,1.643,0,1,0,3.075-1.158c-.011-.029-.023-.057-.035-.086Z" fill="#bf81fe"/>
      <path id="Path_362" data-name="Path 362" d="M1034.15,577.67a2.194,2.194,0,1,1,1.958-3.019l.045.111a2.146,2.146,0,0,1-2,2.908Zm-.035-3.375a1.144,1.144,0,0,0-1.064,1.559,1.2,1.2,0,0,0,.629.713,1.124,1.124,0,0,0,.874.029,1.145,1.145,0,0,0,.668-1.473l.424-.282-.466.181a1.148,1.148,0,0,0-1.065-.727Z" fill="#bf81fe"/>
    </g>
    <g id="Path_278" data-name="Path 278">
      <path id="Path_363" data-name="Path 363" d="M1033.324,569.18l-5.883-14.339a1.643,1.643,0,0,0-3.04,1.247l5.883,14.339a1.643,1.643,0,0,0,3.04-1.247Z" fill="#bf81fe"/>
      <path id="Path_364" data-name="Path 364" d="M1031.8,571.932a2.151,2.151,0,0,1-1.974-1.31l-5.885-14.345a2.154,2.154,0,0,1,1.156-2.77,2.141,2.141,0,0,1,2.807,1.14L1033.789,569a2.146,2.146,0,0,1-1.992,2.936Zm-5.869-17.594a1.143,1.143,0,0,0-1.062,1.564l5.881,14.336a1.141,1.141,0,0,0,1.495.6,1.147,1.147,0,0,0,.618-1.472l-5.882-14.337a1.134,1.134,0,0,0-.621-.609A1.123,1.123,0,0,0,1025.928,554.338Z" fill="#bf81fe"/>
    </g>
  </g>
</svg>
