<svg id="Iconly_Bold_Arrow_-_Down_Circle" data-name="Iconly/Bold/Arrow - Down Circle" xmlns="http://www.w3.org/2000/svg" width="52" height="52" viewBox="0 0 52 52">
  <g id="Arrow_-_Down_Circle" data-name="Arrow - Down Circle" transform="translate(4.334 4.333)">
    <path id="Arrow_-_Down_Circle-2" data-name="Arrow - Down Circle" d="M21.666,43.333A21.666,21.666,0,1,1,43.333,21.666,21.691,21.691,0,0,1,21.666,43.333ZM14.138,16.908A1.6,1.6,0,0,0,13,17.376a1.625,1.625,0,0,0-.488,1.17A1.574,1.574,0,0,0,13,19.674l7.517,7.562a1.624,1.624,0,0,0,2.3,0l7.519-7.562a1.527,1.527,0,0,0,.476-1.127,1.624,1.624,0,0,0-.476-1.17,1.647,1.647,0,0,0-1.147-.468,1.588,1.588,0,0,0-1.15.49L21.666,23.79,15.3,17.4A1.6,1.6,0,0,0,14.138,16.908Z" fill="#6964e3"/>
  </g>
</svg>
