<?xml version="1.0" encoding="utf-8"?>
<!-- Generator: Adobe Illustrator 24.2.1, SVG Export Plug-In . SVG Version: 6.00 Build 0)  -->
<svg version="1.1" id="Layer_1" xmlns="http://www.w3.org/2000/svg" xmlns:xlink="http://www.w3.org/1999/xlink" x="0px" y="0px"
	 viewBox="0 0 2143.8 1299.4" style="enable-background:new 0 0 2143.8 1299.4;" xml:space="preserve">
<style type="text/css">
	.st0{opacity:8.000000e-02;}
	.st1{fill:#707070;}
	.st2{filter:url(#Path_762);}
	
		.st3{opacity:4.000000e-02;fill:none;stroke:#734FD7;stroke-width:10;stroke-linecap:round;stroke-miterlimit:10;stroke-dasharray:62,20;enable-background:new    ;}
	.st4{filter:url(#Path_763);}
	.st5{opacity:0.83;fill:#744ED5;enable-background:new    ;}
	.st6{opacity:0.92;fill:#744ED5;enable-background:new    ;}
	.st7{opacity:0.844;fill:#744ED5;enable-background:new    ;}
	.st8{opacity:0.937;fill:#744ED5;enable-background:new    ;}
</style>
<filter  filterUnits="userSpaceOnUse" height="1190.397" id="Path_763" width="1234.266" x="0" y="109.017">
	<feOffset  input="SourceAlpha"></feOffset>
	<feGaussianBlur  result="blur-2" stdDeviation="30"></feGaussianBlur>
	<feFlood  flood-opacity="0.161"></feFlood>
	<feComposite  in2="blur-2" operator="in"></feComposite>
	<feComposite  in="SourceGraphic" operator="over"></feComposite>
</filter>
<filter  filterUnits="userSpaceOnUse" height="897.2" id="Path_762" width="951.794" x="1191.985" y="0">
	<feOffset  input="SourceAlpha"></feOffset>
	<feGaussianBlur  result="blur" stdDeviation="30"></feGaussianBlur>
	<feFlood  flood-opacity="0.161"></feFlood>
	<feComposite  in2="blur" operator="in"></feComposite>
	<feComposite  in="SourceGraphic" operator="over"></feComposite>
</filter>
<g id="Group_231" transform="translate(-601.754 1346.868)">
	<g id="david-svihovec-SW8BF2JjvMQ-unsplash" transform="translate(716 -1236)" class="st0">
		<path d="M1919.5,1079.5H0.5V0.5h1919V1079.5z"/>
		<path class="st1" d="M1,1v1078h1918V1H1 M0,0h1920v1080H0V0z"/>
	</g>
	<g transform="matrix(1, 0, 0, 1, 601.75, -1346.87)" class="st2">
		<path id="Path_762-2_1_" class="st3" d="M2048.8,95H1290c-9.9,48-7.5,155.9,201.9,184.9c271.9,37.7,283.7,199.4,288.8,294.5
			s122,180.8,268,226.1V95z"/>
	</g>
	<g transform="matrix(1, 0, 0, 1, 601.75, -1346.87)" class="st4">
		<path id="Path_763-2_1_" class="st3" d="M95,1204.4h1040.1c13.6-67.9,10.3-220.6-276.8-261.7c-372.7-53.4-388.8-282.3-395.9-416.8
			S295.1,269.9,95,205.9V1204.4z"/>
	</g>
	<path id="Path_764" class="st5" d="M1399.5-280.9c-1.8-1.9-4-3.3-6.5-4.1l-29.2-8.9c-2.1-0.6-4.4,0.5-5,2.7
		c-0.2,0.7-0.2,1.4-0.1,2.1l6.9,29.7c1.2,5.1,5,9.3,10.1,10.8l29.2,8.9c2.1,0.6,4.4-0.5,5-2.7c0.2-0.7,0.2-1.4,0.1-2.1l-6.9-29.7
		C1402.5-276.7,1401.3-279,1399.5-280.9z M1371-254.3c-1.5-1.6-2.5-3.5-3-5.6l-6.9-29.7c-0.2-0.9,0.3-1.7,1.2-1.9
		c0.3-0.1,0.6-0.1,0.8,0l29.2,8.9l0,0c4.2,1.3,7.4,4.7,8.4,9l6.9,29.7c0.2,0.9-0.3,1.7-1.2,1.9c-0.3,0.1-0.6,0.1-0.8,0l-29.2-8.9
		C1374.3-251.6,1372.5-252.7,1371-254.3L1371-254.3z"/>
	<path id="Path_765" class="st6" d="M1307-845c-0.5-2.7-1.7-5.3-3.5-7.5l-21.1-25.1c-1.5-1.8-4.3-2.1-6.1-0.5
		c-0.6,0.5-1,1.1-1.3,1.8l-11.2,30.8c-1.9,5.3-0.9,11.3,2.8,15.7l21.1,25.1c1.5,1.8,4.2,2.1,6.1,0.5c0.6-0.5,1-1.1,1.3-1.8
		l11.2-30.8C1307.3-839.4,1307.5-842.3,1307-845z M1265.8-837.7c-0.4-2.3-0.2-4.7,0.6-6.8l11.2-30.8c0.3-0.9,1.3-1.3,2.2-1
		c0.3,0.1,0.5,0.3,0.7,0.5l21.1,25.1l0,0c3,3.6,3.9,8.6,2.3,13.1l-11.2,30.8c-0.3,0.9-1.3,1.3-2.2,1c-0.3-0.1-0.5-0.3-0.7-0.5
		l-21.1-25.1C1267.2-833.3,1266.2-835.4,1265.8-837.7L1265.8-837.7z"/>
	<path id="Path_766" class="st7" d="M1999.5-1206.7c-2.6,2.2-4.6,5-5.8,8.3l-13.7,37.7c-1,2.7,0.4,5.8,3.2,6.8
		c0.9,0.3,1.8,0.4,2.7,0.2l39.6-7c6.9-1.2,12.5-6,14.9-12.5l13.7-37.8c1-2.7-0.4-5.8-3.2-6.8c-0.9-0.3-1.8-0.4-2.7-0.2l-39.6,7
		C2005.2-1210.4,2002.1-1208.9,1999.5-1206.7z M2032.4-1167.4c-2.2,1.8-4.8,3.1-7.6,3.6l-39.6,7c-1.1,0.2-2.2-0.6-2.4-1.7
		c-0.1-0.4,0-0.7,0.1-1.1l13.7-37.7l0,0c2-5.5,6.7-9.4,12.5-10.5l39.6-7c1.1-0.2,2.2,0.6,2.4,1.7c0.1,0.4,0,0.7-0.1,1.1l-13.7,37.8
		C2036.3-1171.6,2034.6-1169.2,2032.4-1167.4L2032.4-1167.4z"/>
	<path id="Path_767" class="st8" d="M1101.4-168.6c3.1,0.8,6.4,0.8,9.6,0l36.9-9.9c2.7-0.7,4.3-3.5,3.6-6.2
		c-0.2-0.9-0.7-1.6-1.3-2.3l-27-27c-4.7-4.7-11.5-6.5-17.9-4.8l-36.9,9.9c-2.7,0.7-4.3,3.5-3.6,6.1c0.2,0.9,0.7,1.6,1.3,2.3l27,27
		C1095.4-171.1,1098.3-169.4,1101.4-168.6z M1114.1-215.7c2.6,0.7,5,2.1,6.9,4l27,27c0.8,0.8,0.8,2,0,2.8c-0.2,0.2-0.6,0.4-0.9,0.5
		l-36.9,9.9l0,0c-5.3,1.4-11-0.1-14.9-4l-27-27c-0.8-0.8-0.8-2,0-2.8c0.2-0.2,0.6-0.4,0.9-0.5l36.9-9.9
		C1108.7-216.4,1111.4-216.4,1114.1-215.7L1114.1-215.7z"/>
</g>
</svg>
