<svg id="Group_14" data-name="Group 14" xmlns="http://www.w3.org/2000/svg" xmlns:xlink="http://www.w3.org/1999/xlink" width="921.01" height="682.197" viewBox="0 0 921.01 682.197">
  <defs>
    <linearGradient id="linear-gradient" x1="1" y1="0.5" x2="0" y2="0.5" gradientUnits="objectBoundingBox">
      <stop offset="0" stop-color="#e39a65"/>
      <stop offset="1" stop-color="#e95f8d"/>
    </linearGradient>
    <radialGradient id="radial-gradient" cx="0.807" cy="-0.023" r="1.117" gradientTransform="matrix(-1.08, 0, 0, 1, 1.704, 0)" gradientUnits="objectBoundingBox">
      <stop offset="0" stop-color="#e39a65"/>
      <stop offset="0.474" stop-color="#a92ffb"/>
      <stop offset="0.595" stop-color="#881bfa"/>
      <stop offset="0.742" stop-color="#6507fa"/>
      <stop offset="0.802" stop-color="#0d0c6f"/>
    </radialGradient>
    <radialGradient id="radial-gradient-2" cx="0.99" cy="0.384" r="1.712" gradientTransform="matrix(-0.573, 0, 0, 1, 1.348, 0)" gradientUnits="objectBoundingBox">
      <stop offset="0" stop-color="#e39a65"/>
      <stop offset="0.474" stop-color="#a92ffb"/>
      <stop offset="0.568" stop-color="#881bfa"/>
      <stop offset="0.683" stop-color="#6507fa"/>
      <stop offset="0.738" stop-color="#0d0c6f"/>
    </radialGradient>
    <radialGradient id="radial-gradient-3" cx="0.899" cy="0.074" r="1.524" gradientTransform="matrix(-0.577, 0, 0, 1, 1.25, 0)" gradientUnits="objectBoundingBox">
      <stop offset="0" stop-color="#e39a65"/>
      <stop offset="0.474" stop-color="#a92ffb"/>
      <stop offset="0.588" stop-color="#881bfa"/>
      <stop offset="0.726" stop-color="#6507fa"/>
      <stop offset="1" stop-color="#3919bb"/>
    </radialGradient>
    <radialGradient id="radial-gradient-4" cx="1.116" cy="0.206" r="1.121" gradientTransform="matrix(-1.077, 0, 0, 1, 2.365, 0)" xlink:href="#radial-gradient-3"/>
    <linearGradient id="linear-gradient-5" x1="1" y1="0.5" x2="0" y2="0.5" gradientUnits="objectBoundingBox">
      <stop offset="0" stop-color="#3919bb"/>
      <stop offset="1" stop-color="#6507fa"/>
    </linearGradient>
    <radialGradient id="radial-gradient-5" cx="2.084" cy="-0.321" r="2.658" gradientTransform="matrix(-1.077, 0, 0, 1, 4.45, 0)" xlink:href="#radial-gradient-3"/>
    <radialGradient id="radial-gradient-6" cx="1.082" cy="0.242" r="2.243" gradientTransform="matrix(-1.318, 0, 0, 1, 2.694, 0)" gradientUnits="objectBoundingBox">
      <stop offset="0" stop-color="#e39a65"/>
      <stop offset="0.153" stop-color="#a92ffb"/>
      <stop offset="0.409" stop-color="#3919bb"/>
      <stop offset="0.931" stop-color="#3919bb"/>
    </radialGradient>
    <linearGradient id="linear-gradient-7" x1="1" y1="0.5" x2="0" y2="0.5" gradientUnits="objectBoundingBox">
      <stop offset="0" stop-color="#e39a65"/>
      <stop offset="0.252" stop-color="#a92ffb"/>
      <stop offset="0.556" stop-color="#3919bb"/>
    </linearGradient>
    <linearGradient id="linear-gradient-8" x1="1" y1="0.5" x2="0" y2="0.5" gradientUnits="objectBoundingBox">
      <stop offset="0" stop-color="#4f1fec"/>
      <stop offset="1" stop-color="#a92ffb"/>
    </linearGradient>
    <linearGradient id="linear-gradient-10" x1="1" y1="0.5" x2="-0.261" y2="0.5" gradientUnits="objectBoundingBox">
      <stop offset="0" stop-color="#131060"/>
      <stop offset="0.186" stop-color="#140f62"/>
      <stop offset="0.282" stop-color="#190f6a"/>
      <stop offset="0.358" stop-color="#220f77"/>
      <stop offset="0.424" stop-color="#2e0f8a"/>
      <stop offset="0.482" stop-color="#3d0ea3"/>
      <stop offset="0.536" stop-color="#510ec1"/>
      <stop offset="0.585" stop-color="#670de5"/>
      <stop offset="0.607" stop-color="#740df8"/>
      <stop offset="0.618" stop-color="#7a14ef"/>
      <stop offset="0.683" stop-color="#9b3bc2"/>
      <stop offset="0.748" stop-color="#b75c9d"/>
      <stop offset="0.812" stop-color="#cc7680"/>
      <stop offset="0.876" stop-color="#db886b"/>
      <stop offset="0.939" stop-color="#e4935f"/>
      <stop offset="1" stop-color="#e8975b"/>
    </linearGradient>
    <radialGradient id="radial-gradient-7" cx="1.135" cy="0.092" r="3.209" gradientTransform="matrix(-0.577, 0, 0, 1, 1.522, 0)" gradientUnits="objectBoundingBox">
      <stop offset="0" stop-color="#e39a65"/>
      <stop offset="0.252" stop-color="#a92ffb"/>
      <stop offset="0.736" stop-color="#3919bb"/>
    </radialGradient>
    <linearGradient id="linear-gradient-11" x1="1.089" y1="0.5" x2="-0.209" y2="0.5" xlink:href="#linear-gradient-10"/>
  </defs>
  <path id="Path_63" data-name="Path 63" d="M515.307,337.609a14.628,14.628,0,0,0,7.314-1.956l24.651-14.233a4.563,4.563,0,0,0,0-7.908L522.62,299.28a14.666,14.666,0,0,0-14.623,0l-24.653,14.233a4.563,4.563,0,0,0,0,7.908l24.651,14.233A14.615,14.615,0,0,0,515.307,337.609Zm0-36.373a10.721,10.721,0,0,1,5.36,1.428L545.318,316.9a.656.656,0,0,1,0,1.138l-24.653,14.233h0a10.747,10.747,0,0,1-10.714,0L485.3,318.037a.658.658,0,0,1,0-1.138l24.655-14.235A10.717,10.717,0,0,1,515.307,301.235Z" transform="translate(-481.059 248.325)" fill="url(#linear-gradient)"/>
  <path id="Path_64" data-name="Path 64" d="M493.937,312.9a23.727,23.727,0,0,0,11.878-3.174l42.425-24.5a6.444,6.444,0,0,0,0-11.166l-42.422-24.493a23.809,23.809,0,0,0-23.758,0l-42.427,24.493a6.449,6.449,0,0,0,0,11.168l42.427,24.493A23.761,23.761,0,0,0,493.937,312.9Zm9.925-6.558a19.925,19.925,0,0,1-19.851,0l-42.425-24.493a2.542,2.542,0,0,1,0-4.4l42.427-24.493a19.915,19.915,0,0,1,19.851,0l42.425,24.493a2.541,2.541,0,0,1,0,4.4Z" transform="translate(-389.182 192.274)" fill="url(#linear-gradient)"/>
  <path id="Path_65" data-name="Path 65" d="M132.712,331.248a23.737,23.737,0,0,0,11.88-3.172l42.427-24.5a6.448,6.448,0,0,0,0-11.168L144.594,267.92a23.8,23.8,0,0,0-23.758,0l-42.425,24.5a6.444,6.444,0,0,0,0,11.166l42.423,24.5A23.745,23.745,0,0,0,132.712,331.248Zm0-62.593a19.862,19.862,0,0,1,9.927,2.649l42.425,24.5a2.539,2.539,0,0,1,0,4.4l-42.425,24.493h0a19.915,19.915,0,0,1-19.851,0L80.363,300.2a2.539,2.539,0,0,1,0-4.4l42.427-24.5A19.86,19.86,0,0,1,132.714,268.655Z" transform="translate(730.768 212.469)" fill="url(#linear-gradient)"/>
  <g id="Group_7" data-name="Group 7" transform="translate(133.988 58.217)">
    <path id="Path_66" data-name="Path 66" d="M377.448,504.433,680.814,329.284c4.421-2.554,3.867-7.013-1.239-9.96L484.873,206.91c-5.106-2.947-12.829-3.268-17.251-.714L164.254,381.345c-4.421,2.552-3.867,7.011,1.239,9.96L360.2,503.717C365.3,506.664,373.027,506.985,377.448,504.433Z" transform="translate(-77.591 87.926)" fill="#020230" opacity="0.6"/>
    <path id="Path_67" data-name="Path 67" d="M392.879,550.011a19.4,19.4,0,0,0,9.546-2.237h0l346.232-199.9c2.827-1.632,4.386-3.987,4.386-6.629,0-3.035-2.113-6-5.8-8.125L511.23,194.848c-6.474-3.739-15.984-4.1-21.656-.821l-346.23,199.9c-2.829,1.63-4.386,3.985-4.386,6.627,0,3.035,2.113,5.995,5.8,8.122L380.77,546.951A24.765,24.765,0,0,0,392.879,550.011Zm106.2-354.3a21.068,21.068,0,0,1,10.189,2.514L745.275,336.5c2.42,1.4,3.854,3.167,3.854,4.743,0,1.523-1.321,2.607-2.428,3.245L400.47,544.388h0c-4.419,2.556-12.542,2.182-17.73-.815L146.724,405.3c-2.42-1.4-3.854-3.167-3.854-4.745,0-1.521,1.319-2.6,2.428-3.243l346.23-199.9A15.48,15.48,0,0,1,499.075,195.714Z" transform="translate(-99.972 73.968)" fill="url(#linear-gradient)"/>
    <path id="Path_68" data-name="Path 68" d="M270.857,240.9,573.03,66.436a7.826,7.826,0,0,1,6.167-.886h0l0,0,.027.008,5.6,1.949-1.97.466a9.793,9.793,0,0,1,1.846,3.455L653.031,293.3c1.693,5.5-.788,12.185-5.539,14.93L345.319,482.692a8.856,8.856,0,0,1-2.222.909l.748,1.63-5.344-1.878.013,0a8.547,8.547,0,0,1-4.862-5.652L265.318,255.826C263.625,250.323,266.105,243.64,270.857,240.9Z" transform="translate(-264.786 -65.264)" fill="url(#radial-gradient)"/>
    <path id="Path_69" data-name="Path 69" d="M168.9,359.052l-.107.128L467.265,186.86c4.39-2.535,12.061-2.218,17.129.71L677.235,298.906l6.429-2.455-1.806,9.021-.008,0a5.4,5.4,0,0,1-2.894,3.611L377.727,482.992c-4.39,2.535-12.059,2.216-17.129-.71L167.268,370.663c-2.386-1.378-3.756-3.086-4.1-4.774l-.013.013-1.844-8.78Z" transform="translate(-77.553 66.661)" fill="url(#radial-gradient-2)"/>
    <path id="Path_70" data-name="Path 70" d="M377.448,480.321,680.814,305.172c4.421-2.552,3.867-7.011-1.239-9.958L484.873,182.8c-5.106-2.947-12.829-3.268-17.251-.714L164.254,357.235c-4.421,2.552-3.867,7.011,1.239,9.958L360.2,479.607C365.3,482.554,373.027,482.875,377.448,480.321Z" transform="translate(-77.591 61.395)" fill="url(#radial-gradient-3)"/>
    <path id="Path_71" data-name="Path 71" d="M165.475,302.329l194.7,112.411c5.1,2.949,12.829,3.268,17.251.716L680.8,240.307a5.66,5.66,0,0,0,2.758-3.146c.586,2.033-.271,4.073-2.758,5.507L377.43,417.82c-4.421,2.552-12.147,2.231-17.251-.716l-194.7-112.411c-3.367-1.945-4.709-4.537-4-6.814A8.031,8.031,0,0,0,165.475,302.329Z" transform="translate(-77.573 123.898)" fill="#fff"/>
    <g id="Group_3" data-name="Group 3" transform="translate(166.301 282.541)" opacity="0.4">
      <path id="Path_72" data-name="Path 72" d="M242.525,234.213l10.242-5.913c.821-.475.718-1.3-.231-1.853l-12.088-6.98a3.568,3.568,0,0,0-3.209-.132L227,225.249c-.823.475-.718,1.3.231,1.853l12.088,6.98A3.568,3.568,0,0,0,242.525,234.213Z" transform="translate(49.696 -178.611)" fill="#06033e"/>
      <path id="Path_73" data-name="Path 73" d="M250.054,238.562l10.244-5.915c.821-.475.718-1.3-.231-1.851l-12.09-6.98a3.565,3.565,0,0,0-3.207-.134L234.527,229.6c-.823.475-.72,1.3.229,1.851l12.09,6.98A3.558,3.558,0,0,0,250.054,238.562Z" transform="translate(26.349 -173.827)" fill="#06033e"/>
      <path id="Path_74" data-name="Path 74" d="M257.584,242.908,267.826,237c.823-.475.72-1.3-.229-1.853l-12.09-6.98a3.564,3.564,0,0,0-3.207-.132l-10.244,5.913c-.821.475-.718,1.3.231,1.853l12.09,6.98A3.564,3.564,0,0,0,257.584,242.908Z" transform="translate(3.002 -169.043)" fill="#06033e"/>
      <path id="Path_75" data-name="Path 75" d="M266.058,238.732l10.244-5.913c.821-.475.718-1.3-.231-1.853l-10.149-5.86a3.564,3.564,0,0,0-3.207-.132l-10.242,5.913c-.823.475-.72,1.3.229,1.853l10.149,5.86A3.564,3.564,0,0,0,266.058,238.732Z" transform="translate(-27.347 -172.407)" fill="#06033e"/>
      <path id="Path_76" data-name="Path 76" d="M273.588,243.078l10.242-5.913c.823-.475.72-1.3-.229-1.853l-10.149-5.858a3.564,3.564,0,0,0-3.207-.132L260,235.235c-.823.475-.72,1.3.229,1.853l10.149,5.858A3.558,3.558,0,0,0,273.588,243.078Z" transform="translate(-50.694 -167.622)" fill="#06033e"/>
      <path id="Path_77" data-name="Path 77" d="M281.119,247.426l10.242-5.913c.823-.475.718-1.3-.231-1.853L280.982,233.8a3.569,3.569,0,0,0-3.209-.134l-10.242,5.915c-.821.473-.718,1.3.231,1.85l10.147,5.86A3.568,3.568,0,0,0,281.119,247.426Z" transform="translate(-74.041 -162.838)" fill="#06033e"/>
      <path id="Path_78" data-name="Path 78" d="M288.65,251.775l10.242-5.913c.821-.475.718-1.3-.231-1.853l-10.147-5.86a3.568,3.568,0,0,0-3.209-.132l-10.242,5.913c-.823.475-.718,1.3.231,1.853l10.147,5.858A3.569,3.569,0,0,0,288.65,251.775Z" transform="translate(-97.389 -158.054)" fill="#06033e"/>
      <path id="Path_79" data-name="Path 79" d="M296.179,256.121l10.242-5.913c.823-.475.72-1.3-.229-1.853L296.042,242.5a3.557,3.557,0,0,0-3.207-.132l-10.242,5.913c-.823.475-.72,1.3.229,1.853l10.149,5.858A3.564,3.564,0,0,0,296.179,256.121Z" transform="translate(-120.736 -153.27)" fill="#06033e"/>
      <path id="Path_80" data-name="Path 80" d="M303.709,260.47l10.242-5.913c.823-.475.72-1.3-.229-1.853l-10.149-5.86a3.564,3.564,0,0,0-3.207-.132l-10.242,5.913c-.823.475-.72,1.3.229,1.853l10.149,5.86A3.564,3.564,0,0,0,303.709,260.47Z" transform="translate(-144.082 -148.486)" fill="#06033e"/>
      <path id="Path_81" data-name="Path 81" d="M311.24,264.818l10.242-5.915c.821-.475.718-1.3-.231-1.853L311.1,251.192a3.568,3.568,0,0,0-3.209-.132l-10.242,5.913c-.821.475-.718,1.3.231,1.853l10.147,5.858A3.569,3.569,0,0,0,311.24,264.818Z" transform="translate(-167.43 -143.701)" fill="#06033e"/>
      <path id="Path_82" data-name="Path 82" d="M318.77,269.164l10.242-5.913c.821-.475.718-1.3-.231-1.853l-10.147-5.858a3.569,3.569,0,0,0-3.209-.134l-10.242,5.915c-.821.475-.718,1.3.231,1.85l10.147,5.86A3.568,3.568,0,0,0,318.77,269.164Z" transform="translate(-190.776 -138.917)" fill="#06033e"/>
      <path id="Path_83" data-name="Path 83" d="M326.3,273.513l10.244-5.913c.821-.477.718-1.3-.231-1.853l-10.149-5.86a3.564,3.564,0,0,0-3.207-.132l-10.242,5.913c-.823.475-.72,1.3.229,1.853l10.149,5.86A3.564,3.564,0,0,0,326.3,273.513Z" transform="translate(-214.124 -134.133)" fill="#06033e"/>
      <path id="Path_84" data-name="Path 84" d="M333.83,277.859l10.242-5.913c.823-.475.72-1.3-.229-1.853l-10.149-5.858a3.565,3.565,0,0,0-3.207-.134l-10.244,5.915c-.821.475-.718,1.3.231,1.853l10.149,5.858A3.564,3.564,0,0,0,333.83,277.859Z" transform="translate(-237.471 -129.349)" fill="#06033e"/>
      <path id="Path_85" data-name="Path 85" d="M277.153,236.674l10.242-5.915c.823-.475.72-1.3-.229-1.853l-10.149-5.858a3.564,3.564,0,0,0-3.207-.132l-10.244,5.913c-.821.475-.718,1.3.231,1.853l10.149,5.858A3.564,3.564,0,0,0,277.153,236.674Z" transform="translate(-61.747 -174.672)" fill="#06033e"/>
      <path id="Path_86" data-name="Path 86" d="M269.511,232.261l10.242-5.913c.821-.475.718-1.3-.231-1.853l-10.147-5.858a3.562,3.562,0,0,0-3.209-.134l-10.242,5.913c-.821.477-.718,1.3.231,1.853l10.147,5.86A3.568,3.568,0,0,0,269.511,232.261Z" transform="translate(-38.052 -179.528)" fill="#06033e"/>
      <path id="Path_87" data-name="Path 87" d="M256.23,231.415l22.059-12.735c.821-.475.718-1.3-.231-1.853l-10.147-5.858a3.569,3.569,0,0,0-3.21-.134l-22.059,12.737c-.821.475-.718,1.3.231,1.853l10.147,5.858A3.569,3.569,0,0,0,256.23,231.415Z" transform="translate(-8.692 -187.966)" fill="#06033e"/>
      <path id="Path_88" data-name="Path 88" d="M263.56,224.784l17.9-10.336c.821-.475.718-1.3-.231-1.853l-10.149-5.858a3.565,3.565,0,0,0-3.207-.134l-17.9,10.336c-.821.475-.718,1.3.231,1.853l10.147,5.858A3.569,3.569,0,0,0,263.56,224.784Z" transform="translate(-27.261 -192.623)" fill="#06033e"/>
      <path id="Path_89" data-name="Path 89" d="M284.684,241.02l10.242-5.913c.821-.475.718-1.3-.231-1.853L284.548,227.4a3.569,3.569,0,0,0-3.209-.134L271.1,233.177c-.821.475-.718,1.3.231,1.851l10.147,5.86A3.568,3.568,0,0,0,284.684,241.02Z" transform="translate(-85.094 -169.888)" fill="#06033e"/>
      <path id="Path_90" data-name="Path 90" d="M292.214,245.369l10.244-5.913c.821-.477.718-1.3-.231-1.853l-10.147-5.86a3.569,3.569,0,0,0-3.209-.132l-10.242,5.913c-.823.475-.72,1.3.231,1.853l10.147,5.86A3.564,3.564,0,0,0,292.214,245.369Z" transform="translate(-108.442 -165.104)" fill="#06033e"/>
      <path id="Path_91" data-name="Path 91" d="M299.744,249.715l10.242-5.913c.823-.475.721-1.3-.229-1.853l-10.149-5.858a3.571,3.571,0,0,0-3.207-.134l-10.242,5.915c-.823.475-.72,1.3.229,1.853l10.149,5.858A3.557,3.557,0,0,0,299.744,249.715Z" transform="translate(-131.789 -160.319)" fill="#06033e"/>
      <path id="Path_92" data-name="Path 92" d="M307.274,254.064l10.242-5.913c.823-.475.72-1.3-.231-1.853l-10.147-5.86a3.564,3.564,0,0,0-3.207-.132l-10.244,5.913c-.821.475-.718,1.3.231,1.853l10.147,5.86A3.568,3.568,0,0,0,307.274,254.064Z" transform="translate(-155.136 -155.535)" fill="#06033e"/>
      <path id="Path_93" data-name="Path 93" d="M314.805,258.412l10.242-5.915c.821-.475.718-1.3-.231-1.853l-10.147-5.858a3.568,3.568,0,0,0-3.209-.132l-10.242,5.913c-.821.475-.718,1.3.231,1.853l10.147,5.858A3.569,3.569,0,0,0,314.805,258.412Z" transform="translate(-178.483 -150.751)" fill="#06033e"/>
      <path id="Path_94" data-name="Path 94" d="M322.337,262.758l10.242-5.913c.821-.475.718-1.3-.231-1.853L322.2,249.135a3.569,3.569,0,0,0-3.209-.134l-10.242,5.915c-.823.475-.72,1.3.231,1.853l10.147,5.858A3.568,3.568,0,0,0,322.337,262.758Z" transform="translate(-201.831 -145.967)" fill="#06033e"/>
      <path id="Path_95" data-name="Path 95" d="M329.865,267.107l10.242-5.913c.823-.475.72-1.3-.229-1.853l-10.149-5.86a3.564,3.564,0,0,0-3.207-.132l-10.242,5.913c-.823.475-.72,1.3.229,1.853l10.149,5.858A3.558,3.558,0,0,0,329.865,267.107Z" transform="translate(-225.177 -141.182)" fill="#06033e"/>
      <path id="Path_96" data-name="Path 96" d="M337.4,271.453l10.242-5.913c.823-.475.72-1.3-.231-1.853l-10.147-5.858a3.557,3.557,0,0,0-3.207-.132l-10.244,5.913c-.821.475-.718,1.3.231,1.853l10.149,5.858A3.557,3.557,0,0,0,337.4,271.453Z" transform="translate(-248.524 -136.398)" fill="#06033e"/>
      <path id="Path_97" data-name="Path 97" d="M344.926,275.8l10.242-5.913c.821-.475.718-1.3-.231-1.853l-10.147-5.858a3.569,3.569,0,0,0-3.209-.134l-10.242,5.913c-.821.475-.718,1.3.231,1.853l10.147,5.86A3.568,3.568,0,0,0,344.926,275.8Z" transform="translate(-271.871 -131.614)" fill="#06033e"/>
      <path id="Path_98" data-name="Path 98" d="M352.551,287.192l22.347-12.9c.821-.477.718-1.3-.231-1.853l-10.147-5.86a3.568,3.568,0,0,0-3.209-.132l-22.347,12.9c-.823.473-.718,1.3.231,1.851l10.147,5.86A3.568,3.568,0,0,0,352.551,287.192Z" transform="translate(-307.614 -126.77)" fill="#06033e"/>
      <path id="Path_99" data-name="Path 99" d="M368.869,277.674l18.862-10.891c.823-.475.72-1.3-.231-1.853l-10.147-5.858a3.568,3.568,0,0,0-3.209-.132l-18.862,10.889c-.821.475-.718,1.3.231,1.853l10.149,5.86A3.564,3.564,0,0,0,368.869,277.674Z" transform="translate(-354.727 -135.03)" fill="#06033e"/>
      <path id="Path_100" data-name="Path 100" d="M297.871,240.171l10.242-5.915c.821-.475.718-1.3-.231-1.853l-10.147-5.858a3.568,3.568,0,0,0-3.209-.132l-10.242,5.913c-.821.475-.718,1.3.231,1.853l10.147,5.858A3.569,3.569,0,0,0,297.871,240.171Z" transform="translate(-125.98 -170.824)" fill="#06033e"/>
      <path id="Path_101" data-name="Path 101" d="M290.153,235.715l10.242-5.913c.823-.477.72-1.3-.229-1.853l-10.149-5.86a3.564,3.564,0,0,0-3.207-.132l-10.242,5.913c-.823.475-.72,1.3.229,1.853l10.149,5.858A3.558,3.558,0,0,0,290.153,235.715Z" transform="translate(-102.053 -175.727)" fill="#06033e"/>
      <path id="Path_102" data-name="Path 102" d="M282.436,231.259l10.242-5.913c.821-.475.718-1.3-.231-1.853l-10.147-5.86a3.575,3.575,0,0,0-3.21-.132l-10.242,5.913c-.821.475-.718,1.3.231,1.853l10.147,5.86A3.569,3.569,0,0,0,282.436,231.259Z" transform="translate(-78.125 -180.63)" fill="#06033e"/>
      <path id="Path_103" data-name="Path 103" d="M274.718,226.8l10.244-5.913c.821-.475.718-1.3-.231-1.853l-10.149-5.858a3.565,3.565,0,0,0-3.207-.134l-10.242,5.915c-.823.475-.72,1.3.229,1.853l10.149,5.858A3.564,3.564,0,0,0,274.718,226.8Z" transform="translate(-54.197 -185.534)" fill="#06033e"/>
      <path id="Path_104" data-name="Path 104" d="M305.4,244.517l10.244-5.913c.821-.475.718-1.3-.231-1.853l-10.149-5.858a3.564,3.564,0,0,0-3.207-.134l-10.242,5.915c-.823.475-.72,1.3.231,1.85l10.147,5.86A3.564,3.564,0,0,0,305.4,244.517Z" transform="translate(-149.328 -166.04)" fill="#06033e"/>
      <path id="Path_105" data-name="Path 105" d="M312.931,248.866l10.242-5.913c.823-.475.72-1.3-.229-1.853l-10.149-5.86a3.564,3.564,0,0,0-3.207-.132l-10.242,5.913c-.823.475-.72,1.3.229,1.853l10.149,5.858A3.558,3.558,0,0,0,312.931,248.866Z" transform="translate(-172.674 -161.255)" fill="#06033e"/>
      <path id="Path_106" data-name="Path 106" d="M320.462,253.212,330.7,247.3c.823-.475.718-1.3-.231-1.853l-10.147-5.858a3.562,3.562,0,0,0-3.21-.132l-10.242,5.913c-.821.475-.718,1.3.231,1.853l10.147,5.858A3.568,3.568,0,0,0,320.462,253.212Z" transform="translate(-196.021 -156.471)" fill="#06033e"/>
      <path id="Path_107" data-name="Path 107" d="M327.992,257.561l10.242-5.913c.821-.475.718-1.3-.231-1.853l-10.147-5.86a3.568,3.568,0,0,0-3.209-.132L314.4,249.716c-.821.475-.718,1.3.231,1.853l10.147,5.86A3.568,3.568,0,0,0,327.992,257.561Z" transform="translate(-219.368 -151.687)" fill="#06033e"/>
      <path id="Path_108" data-name="Path 108" d="M335.522,261.909l10.244-5.915c.821-.475.718-1.3-.231-1.85l-10.149-5.86a3.564,3.564,0,0,0-3.207-.132l-10.242,5.913c-.823.475-.72,1.3.229,1.853l10.149,5.858A3.565,3.565,0,0,0,335.522,261.909Z" transform="translate(-242.716 -146.902)" fill="#06033e"/>
      <path id="Path_109" data-name="Path 109" d="M343.052,266.255l10.242-5.913c.823-.475.72-1.3-.229-1.853l-10.149-5.858a3.565,3.565,0,0,0-3.207-.134l-10.242,5.915c-.823.475-.721,1.3.229,1.851l10.149,5.86A3.564,3.564,0,0,0,343.052,266.255Z" transform="translate(-266.063 -142.118)" fill="#06033e"/>
      <path id="Path_110" data-name="Path 110" d="M350.583,270.6l10.242-5.913c.823-.477.718-1.3-.231-1.853l-10.147-5.86a3.569,3.569,0,0,0-3.21-.132L337,262.759c-.821.475-.718,1.3.231,1.853l10.147,5.858A3.562,3.562,0,0,0,350.583,270.6Z" transform="translate(-289.41 -137.334)" fill="#06033e"/>
      <path id="Path_111" data-name="Path 111" d="M358.114,274.95l10.242-5.913c.821-.475.718-1.3-.231-1.853l-10.147-5.858a3.576,3.576,0,0,0-3.21-.134l-10.242,5.915c-.823.475-.718,1.3.231,1.853l10.147,5.858A3.569,3.569,0,0,0,358.114,274.95Z" transform="translate(-312.757 -132.55)" fill="#06033e"/>
      <path id="Path_112" data-name="Path 112" d="M365.643,279.3l10.242-5.913c.823-.475.72-1.3-.229-1.853l-10.149-5.86a3.564,3.564,0,0,0-3.207-.132l-10.242,5.913c-.823.475-.72,1.3.229,1.853l10.149,5.86A3.564,3.564,0,0,0,365.643,279.3Z" transform="translate(-336.105 -127.766)" fill="#06033e"/>
      <path id="Path_113" data-name="Path 113" d="M293.906,229.417l10.242-5.913c.821-.475.718-1.3-.231-1.853l-10.147-5.858a3.562,3.562,0,0,0-3.21-.134l-10.242,5.913c-.821.477-.718,1.3.231,1.853l10.147,5.86A3.568,3.568,0,0,0,293.906,229.417Z" transform="translate(-113.687 -182.658)" fill="#06033e"/>
      <path id="Path_114" data-name="Path 114" d="M286.414,225.091l10.242-5.913c.821-.475.718-1.3-.231-1.853l-10.147-5.858a3.562,3.562,0,0,0-3.209-.134l-10.242,5.913c-.823.477-.718,1.3.231,1.853l10.147,5.86A3.568,3.568,0,0,0,286.414,225.091Z" transform="translate(-90.456 -187.418)" fill="#06033e"/>
      <path id="Path_115" data-name="Path 115" d="M278.92,220.765l10.244-5.913c.821-.475.718-1.3-.231-1.853l-10.149-5.858a3.558,3.558,0,0,0-3.207-.134l-10.242,5.913c-.823.477-.72,1.3.229,1.853l10.149,5.86A3.564,3.564,0,0,0,278.92,220.765Z" transform="translate(-67.225 -192.179)" fill="#06033e"/>
      <path id="Path_116" data-name="Path 116" d="M271.427,216.439l10.242-5.913c.823-.475.72-1.3-.229-1.853l-10.149-5.858a3.558,3.558,0,0,0-3.207-.134l-10.242,5.913c-.823.477-.72,1.3.229,1.853l10.149,5.86A3.564,3.564,0,0,0,271.427,216.439Z" transform="translate(-43.994 -196.939)" fill="#06033e"/>
      <path id="Path_117" data-name="Path 117" d="M272.337,209.936l10.242-5.913c.823-.477.72-1.3-.229-1.853L279,200.234a3.562,3.562,0,0,0-3.209-.134l-10.242,5.913c-.821.475-.718,1.3.231,1.853l3.354,1.937A3.565,3.565,0,0,0,272.337,209.936Z" transform="translate(-61.088 -199.779)" fill="#06033e"/>
      <path id="Path_118" data-name="Path 118" d="M282.116,215.581l10.242-5.913c.823-.475.72-1.3-.229-1.853l-3.354-1.937a3.562,3.562,0,0,0-3.209-.132l-10.242,5.913c-.823.475-.718,1.3.231,1.853l3.354,1.937A3.564,3.564,0,0,0,282.116,215.581Z" transform="translate(-91.405 -193.567)" fill="#06033e"/>
      <path id="Path_119" data-name="Path 119" d="M289.579,219.889l10.242-5.913c.821-.475.718-1.3-.231-1.853l-3.354-1.937a3.562,3.562,0,0,0-3.21-.132l-10.242,5.913c-.821.475-.718,1.3.231,1.853l3.354,1.937A3.568,3.568,0,0,0,289.579,219.889Z" transform="translate(-114.54 -188.826)" fill="#06033e"/>
      <path id="Path_120" data-name="Path 120" d="M297.04,224.2l10.242-5.913c.823-.475.72-1.3-.229-1.853L303.7,214.5a3.564,3.564,0,0,0-3.207-.134l-10.242,5.915c-.823.475-.72,1.3.229,1.853l3.356,1.937A3.564,3.564,0,0,0,297.04,224.2Z" transform="translate(-137.674 -184.086)" fill="#06033e"/>
      <path id="Path_121" data-name="Path 121" d="M304.5,228.5l10.242-5.913c.821-.475.718-1.3-.231-1.853l-3.354-1.937a3.569,3.569,0,0,0-3.21-.134l-10.242,5.915c-.821.475-.718,1.3.231,1.853l3.354,1.937A3.569,3.569,0,0,0,304.5,228.5Z" transform="translate(-160.807 -179.345)" fill="#06033e"/>
      <path id="Path_122" data-name="Path 122" d="M346.159,252.556l10.242-5.915c.821-.475.718-1.3-.231-1.853l-3.354-1.937a3.564,3.564,0,0,0-3.207-.132l-10.244,5.913c-.821.475-.718,1.3.231,1.853l3.354,1.937A3.569,3.569,0,0,0,346.159,252.556Z" transform="translate(-289.962 -152.879)" fill="#06033e"/>
      <path id="Path_123" data-name="Path 123" d="M353.62,256.862l10.242-5.913c.823-.475.721-1.3-.229-1.853l-3.357-1.937a3.564,3.564,0,0,0-3.207-.132l-10.242,5.913c-.823.475-.72,1.3.229,1.853l3.356,1.937A3.558,3.558,0,0,0,353.62,256.862Z" transform="translate(-313.097 -148.138)" fill="#06033e"/>
      <path id="Path_124" data-name="Path 124" d="M361.082,261.172l10.242-5.915c.821-.475.718-1.3-.231-1.853l-3.354-1.937a3.568,3.568,0,0,0-3.209-.132l-10.242,5.913c-.821.475-.718,1.3.231,1.853l3.354,1.937A3.576,3.576,0,0,0,361.082,261.172Z" transform="translate(-336.23 -143.397)" fill="#06033e"/>
      <path id="Path_125" data-name="Path 125" d="M368.543,265.478l10.242-5.913c.823-.475.72-1.3-.231-1.853l-3.354-1.937a3.564,3.564,0,0,0-3.207-.132l-10.242,5.913c-.823.475-.72,1.3.229,1.853l3.354,1.937A3.562,3.562,0,0,0,368.543,265.478Z" transform="translate(-359.365 -138.657)" fill="#06033e"/>
      <path id="Path_126" data-name="Path 126" d="M301.437,233.765l10.242-5.915c.821-.475.718-1.3-.231-1.853L301.3,220.139a3.569,3.569,0,0,0-3.21-.132l-10.242,5.913c-.823.475-.718,1.3.231,1.853l10.147,5.858A3.569,3.569,0,0,0,301.437,233.765Z" transform="translate(-137.034 -177.873)" fill="#06033e"/>
      <path id="Path_127" data-name="Path 127" d="M308.966,238.111l10.242-5.913c.823-.475.72-1.3-.229-1.853l-10.149-5.858a3.565,3.565,0,0,0-3.207-.134l-10.242,5.915c-.823.475-.72,1.3.229,1.851l10.149,5.86A3.564,3.564,0,0,0,308.966,238.111Z" transform="translate(-160.381 -173.089)" fill="#06033e"/>
      <path id="Path_128" data-name="Path 128" d="M316.5,242.46l10.242-5.913c.823-.475.72-1.3-.229-1.853l-10.149-5.86a3.564,3.564,0,0,0-3.207-.132l-10.244,5.913c-.821.475-.718,1.3.231,1.853l10.149,5.86A3.564,3.564,0,0,0,316.5,242.46Z" transform="translate(-183.728 -168.305)" fill="#06033e"/>
      <path id="Path_129" data-name="Path 129" d="M324.027,246.806l10.242-5.913c.821-.475.718-1.3-.231-1.853l-10.147-5.858a3.568,3.568,0,0,0-3.21-.132l-10.242,5.913c-.821.475-.718,1.3.231,1.853l10.147,5.858A3.562,3.562,0,0,0,324.027,246.806Z" transform="translate(-207.075 -163.52)" fill="#06033e"/>
      <path id="Path_130" data-name="Path 130" d="M331.558,251.155l10.242-5.913c.821-.475.718-1.3-.231-1.853l-10.147-5.86a3.575,3.575,0,0,0-3.209-.132l-10.242,5.913c-.823.475-.718,1.3.231,1.853l10.147,5.86A3.569,3.569,0,0,0,331.558,251.155Z" transform="translate(-230.422 -158.736)" fill="#06033e"/>
      <path id="Path_131" data-name="Path 131" d="M339.087,255.5l10.242-5.915c.823-.475.72-1.3-.229-1.85l-10.149-5.86a3.564,3.564,0,0,0-3.207-.132L325.5,247.658c-.823.475-.721,1.3.229,1.853l10.149,5.858A3.565,3.565,0,0,0,339.087,255.5Z" transform="translate(-253.77 -153.952)" fill="#06033e"/>
      <path id="Path_132" data-name="Path 132" d="M346.617,259.849l10.242-5.913c.823-.475.72-1.3-.229-1.853l-10.149-5.858a3.565,3.565,0,0,0-3.207-.134l-10.244,5.915c-.821.475-.718,1.3.231,1.853l10.149,5.858A3.564,3.564,0,0,0,346.617,259.849Z" transform="translate(-277.116 -149.168)" fill="#06033e"/>
      <path id="Path_133" data-name="Path 133" d="M354.148,264.2l10.242-5.913c.821-.475.718-1.3-.231-1.853l-10.147-5.86a3.568,3.568,0,0,0-3.21-.132l-10.242,5.913c-.821.475-.718,1.3.231,1.853l10.147,5.86A3.568,3.568,0,0,0,354.148,264.2Z" transform="translate(-300.463 -144.383)" fill="#06033e"/>
      <path id="Path_134" data-name="Path 134" d="M361.678,268.544l10.244-5.913c.821-.475.718-1.3-.231-1.853l-10.149-5.858a3.564,3.564,0,0,0-3.207-.132L348.092,260.7c-.823.475-.72,1.3.231,1.853l10.147,5.858A3.564,3.564,0,0,0,361.678,268.544Z" transform="translate(-323.811 -139.599)" fill="#06033e"/>
      <path id="Path_135" data-name="Path 135" d="M248.9,240.326l30.164-17.415c.823-.475.72-1.3-.231-1.853L268.685,215.2a3.562,3.562,0,0,0-3.209-.132l-30.162,17.415c-.823.475-.72,1.3.229,1.853l10.149,5.858A3.564,3.564,0,0,0,248.9,240.326Z" transform="translate(5.93 -183.309)" fill="#06033e"/>
      <path id="Path_136" data-name="Path 136" d="M341.41,293.739l30.164-17.415c.823-.477.718-1.3-.231-1.853l-10.147-5.86a3.569,3.569,0,0,0-3.21-.132l-30.162,17.415c-.823.475-.72,1.3.229,1.853L338.2,293.6A3.565,3.565,0,0,0,341.41,293.739Z" transform="translate(-280.895 -124.533)" fill="#06033e"/>
      <path id="Path_137" data-name="Path 137" d="M322.722,280.518l10.242-5.915c.821-.475.718-1.3-.231-1.853l-12.088-6.98a3.568,3.568,0,0,0-3.209-.132l-10.242,5.913c-.821.475-.718,1.3.231,1.853l12.088,6.98A3.569,3.569,0,0,0,322.722,280.518Z" transform="translate(-198.952 -127.659)" fill="#06033e"/>
      <path id="Path_138" data-name="Path 138" d="M265.116,250.8l16.379-9.456c.823-.475.718-1.3-.231-1.853l-12.088-6.98a3.562,3.562,0,0,0-3.209-.132l-16.379,9.456c-.823.475-.718,1.3.231,1.853l12.088,6.98A3.569,3.569,0,0,0,265.116,250.8Z" transform="translate(-26.483 -164.259)" fill="#06033e"/>
      <path id="Path_139" data-name="Path 139" d="M312.544,278.183l16.381-9.456c.821-.475.718-1.3-.231-1.853l-12.09-6.98a3.564,3.564,0,0,0-3.207-.132l-16.379,9.456c-.823.475-.72,1.3.229,1.853l12.09,6.98A3.558,3.558,0,0,0,312.544,278.183Z" transform="translate(-173.535 -134.125)" fill="#06033e"/>
      <path id="Path_140" data-name="Path 140" d="M275.979,257.074l16.379-9.458c.823-.475.72-1.3-.229-1.85l-12.09-6.98a3.558,3.558,0,0,0-3.207-.134l-16.381,9.458c-.821.475-.718,1.3.231,1.853l12.09,6.978A3.564,3.564,0,0,0,275.979,257.074Z" transform="translate(-60.168 -157.356)" fill="#06033e"/>
      <path id="Path_141" data-name="Path 141" d="M332.092,238.514,260.876,279.63a.974.974,0,0,0,0,1.846l12.327,7.118a3.537,3.537,0,0,0,3.2,0l71.215-41.116Z" transform="translate(-115.539 -157.154)" fill="#06033e"/>
      <path id="Path_142" data-name="Path 142" d="M340.776,280.574l-11.409,6.587c-.674.389-.588,1.069.189,1.519l4.946,2.854a2.924,2.924,0,0,0,2.63.109l11.408-6.587c.674-.389.59-1.069-.189-1.519l-4.944-2.854A2.924,2.924,0,0,0,340.776,280.574Z" transform="translate(-261.212 -111.159)" fill="#06033e"/>
      <path id="Path_143" data-name="Path 143" d="M333.184,276.189l-11.41,6.587c-.674.391-.59,1.069.189,1.519l4.944,2.857a2.931,2.931,0,0,0,2.63.109l11.41-6.587c.674-.391.59-1.069-.189-1.519l-4.944-2.857A2.931,2.931,0,0,0,333.184,276.189Z" transform="translate(-237.671 -115.983)" fill="#06033e"/>
      <path id="Path_144" data-name="Path 144" d="M325.653,271.842l-11.41,6.587c-.674.389-.588,1.069.189,1.519l4.947,2.855a2.924,2.924,0,0,0,2.63.109l11.408-6.587c.674-.389.59-1.069-.189-1.519l-4.944-2.855A2.924,2.924,0,0,0,325.653,271.842Z" transform="translate(-214.324 -120.767)" fill="#06033e"/>
      <path id="Path_145" data-name="Path 145" d="M337.34,273.79l-11.407,6.587c-.674.389-.59,1.069.189,1.517l4.944,2.857a2.924,2.924,0,0,0,2.63.109l11.41-6.587c.674-.389.588-1.069-.189-1.519L339.97,273.9A2.918,2.918,0,0,0,337.34,273.79Z" transform="translate(-250.563 -118.625)" fill="#06033e"/>
    </g>
    <g id="Group_4" data-name="Group 4" transform="translate(166.301 282.541)" opacity="0.4">
      <path id="Path_146" data-name="Path 146" d="M242.525,234.213l10.242-5.913c.821-.475.718-1.3-.231-1.853l-12.088-6.98a3.568,3.568,0,0,0-3.209-.132L227,225.249c-.823.475-.718,1.3.231,1.853l12.088,6.98A3.568,3.568,0,0,0,242.525,234.213Z" transform="translate(49.696 -178.611)" fill="#06033e"/>
      <path id="Path_147" data-name="Path 147" d="M250.054,238.562l10.244-5.915c.821-.475.718-1.3-.231-1.851l-12.09-6.98a3.565,3.565,0,0,0-3.207-.134L234.527,229.6c-.823.475-.72,1.3.229,1.851l12.09,6.98A3.558,3.558,0,0,0,250.054,238.562Z" transform="translate(26.349 -173.827)" fill="#06033e"/>
      <path id="Path_148" data-name="Path 148" d="M257.584,242.908,267.826,237c.823-.475.72-1.3-.229-1.853l-12.09-6.98a3.564,3.564,0,0,0-3.207-.132l-10.244,5.913c-.821.475-.718,1.3.231,1.853l12.09,6.98A3.564,3.564,0,0,0,257.584,242.908Z" transform="translate(3.002 -169.043)" fill="#06033e"/>
      <path id="Path_149" data-name="Path 149" d="M266.058,238.732l10.244-5.913c.821-.475.718-1.3-.231-1.853l-10.149-5.86a3.564,3.564,0,0,0-3.207-.132l-10.242,5.913c-.823.475-.72,1.3.229,1.853l10.149,5.86A3.564,3.564,0,0,0,266.058,238.732Z" transform="translate(-27.347 -172.407)" fill="#06033e"/>
      <path id="Path_150" data-name="Path 150" d="M273.588,243.078l10.242-5.913c.823-.475.72-1.3-.229-1.853l-10.149-5.858a3.564,3.564,0,0,0-3.207-.132L260,235.235c-.823.475-.72,1.3.229,1.853l10.149,5.858A3.558,3.558,0,0,0,273.588,243.078Z" transform="translate(-50.694 -167.622)" fill="#06033e"/>
      <path id="Path_151" data-name="Path 151" d="M281.119,247.426l10.242-5.913c.823-.475.718-1.3-.231-1.853L280.982,233.8a3.569,3.569,0,0,0-3.209-.134l-10.242,5.915c-.821.473-.718,1.3.231,1.85l10.147,5.86A3.568,3.568,0,0,0,281.119,247.426Z" transform="translate(-74.041 -162.838)" fill="#06033e"/>
      <path id="Path_152" data-name="Path 152" d="M288.65,251.775l10.242-5.913c.821-.475.718-1.3-.231-1.853l-10.147-5.86a3.568,3.568,0,0,0-3.209-.132l-10.242,5.913c-.823.475-.718,1.3.231,1.853l10.147,5.858A3.569,3.569,0,0,0,288.65,251.775Z" transform="translate(-97.389 -158.054)" fill="#06033e"/>
      <path id="Path_153" data-name="Path 153" d="M296.179,256.121l10.242-5.913c.823-.475.72-1.3-.229-1.853L296.042,242.5a3.557,3.557,0,0,0-3.207-.132l-10.242,5.913c-.823.475-.72,1.3.229,1.853l10.149,5.858A3.564,3.564,0,0,0,296.179,256.121Z" transform="translate(-120.736 -153.27)" fill="#06033e"/>
      <path id="Path_154" data-name="Path 154" d="M303.709,260.47l10.242-5.913c.823-.475.72-1.3-.229-1.853l-10.149-5.86a3.564,3.564,0,0,0-3.207-.132l-10.242,5.913c-.823.475-.72,1.3.229,1.853l10.149,5.86A3.564,3.564,0,0,0,303.709,260.47Z" transform="translate(-144.082 -148.486)" fill="#06033e"/>
      <path id="Path_155" data-name="Path 155" d="M311.24,264.818l10.242-5.915c.821-.475.718-1.3-.231-1.853L311.1,251.192a3.568,3.568,0,0,0-3.209-.132l-10.242,5.913c-.821.475-.718,1.3.231,1.853l10.147,5.858A3.569,3.569,0,0,0,311.24,264.818Z" transform="translate(-167.43 -143.701)" fill="#06033e"/>
      <path id="Path_156" data-name="Path 156" d="M318.77,269.164l10.242-5.913c.821-.475.718-1.3-.231-1.853l-10.147-5.858a3.569,3.569,0,0,0-3.209-.134l-10.242,5.915c-.821.475-.718,1.3.231,1.85l10.147,5.86A3.568,3.568,0,0,0,318.77,269.164Z" transform="translate(-190.776 -138.917)" fill="#06033e"/>
      <path id="Path_157" data-name="Path 157" d="M326.3,273.513l10.244-5.913c.821-.477.718-1.3-.231-1.853l-10.149-5.86a3.564,3.564,0,0,0-3.207-.132l-10.242,5.913c-.823.475-.72,1.3.229,1.853l10.149,5.86A3.564,3.564,0,0,0,326.3,273.513Z" transform="translate(-214.124 -134.133)" fill="#06033e"/>
      <path id="Path_158" data-name="Path 158" d="M333.83,277.859l10.242-5.913c.823-.475.72-1.3-.229-1.853l-10.149-5.858a3.565,3.565,0,0,0-3.207-.134l-10.244,5.915c-.821.475-.718,1.3.231,1.853l10.149,5.858A3.564,3.564,0,0,0,333.83,277.859Z" transform="translate(-237.471 -129.349)" fill="#06033e"/>
      <path id="Path_159" data-name="Path 159" d="M277.153,236.674l10.242-5.915c.823-.475.72-1.3-.229-1.853l-10.149-5.858a3.564,3.564,0,0,0-3.207-.132l-10.244,5.913c-.821.475-.718,1.3.231,1.853l10.149,5.858A3.564,3.564,0,0,0,277.153,236.674Z" transform="translate(-61.747 -174.672)" fill="#06033e"/>
      <path id="Path_160" data-name="Path 160" d="M269.511,232.261l10.242-5.913c.821-.475.718-1.3-.231-1.853l-10.147-5.858a3.562,3.562,0,0,0-3.209-.134l-10.242,5.913c-.821.477-.718,1.3.231,1.853l10.147,5.86A3.568,3.568,0,0,0,269.511,232.261Z" transform="translate(-38.052 -179.528)" fill="#06033e"/>
      <path id="Path_161" data-name="Path 161" d="M256.23,231.415l22.059-12.735c.821-.475.718-1.3-.231-1.853l-10.147-5.858a3.569,3.569,0,0,0-3.21-.134l-22.059,12.737c-.821.475-.718,1.3.231,1.853l10.147,5.858A3.569,3.569,0,0,0,256.23,231.415Z" transform="translate(-8.692 -187.966)" fill="#06033e"/>
      <path id="Path_162" data-name="Path 162" d="M263.56,224.784l17.9-10.336c.821-.475.718-1.3-.231-1.853l-10.149-5.858a3.565,3.565,0,0,0-3.207-.134l-17.9,10.336c-.821.475-.718,1.3.231,1.853l10.147,5.858A3.569,3.569,0,0,0,263.56,224.784Z" transform="translate(-27.261 -192.623)" fill="#06033e"/>
      <path id="Path_163" data-name="Path 163" d="M284.684,241.02l10.242-5.913c.821-.475.718-1.3-.231-1.853L284.548,227.4a3.569,3.569,0,0,0-3.209-.134L271.1,233.177c-.821.475-.718,1.3.231,1.851l10.147,5.86A3.568,3.568,0,0,0,284.684,241.02Z" transform="translate(-85.094 -169.888)" fill="#06033e"/>
      <path id="Path_164" data-name="Path 164" d="M292.214,245.369l10.244-5.913c.821-.477.718-1.3-.231-1.853l-10.147-5.86a3.569,3.569,0,0,0-3.209-.132l-10.242,5.913c-.823.475-.72,1.3.231,1.853l10.147,5.86A3.564,3.564,0,0,0,292.214,245.369Z" transform="translate(-108.442 -165.104)" fill="#06033e"/>
      <path id="Path_165" data-name="Path 165" d="M299.744,249.715l10.242-5.913c.823-.475.721-1.3-.229-1.853l-10.149-5.858a3.571,3.571,0,0,0-3.207-.134l-10.242,5.915c-.823.475-.72,1.3.229,1.853l10.149,5.858A3.557,3.557,0,0,0,299.744,249.715Z" transform="translate(-131.789 -160.319)" fill="#06033e"/>
      <path id="Path_166" data-name="Path 166" d="M307.274,254.064l10.242-5.913c.823-.475.72-1.3-.231-1.853l-10.147-5.86a3.564,3.564,0,0,0-3.207-.132l-10.244,5.913c-.821.475-.718,1.3.231,1.853l10.147,5.86A3.568,3.568,0,0,0,307.274,254.064Z" transform="translate(-155.136 -155.535)" fill="#06033e"/>
      <path id="Path_167" data-name="Path 167" d="M314.805,258.412l10.242-5.915c.821-.475.718-1.3-.231-1.853l-10.147-5.858a3.568,3.568,0,0,0-3.209-.132l-10.242,5.913c-.821.475-.718,1.3.231,1.853l10.147,5.858A3.569,3.569,0,0,0,314.805,258.412Z" transform="translate(-178.483 -150.751)" fill="#06033e"/>
      <path id="Path_168" data-name="Path 168" d="M322.337,262.758l10.242-5.913c.821-.475.718-1.3-.231-1.853L322.2,249.135a3.569,3.569,0,0,0-3.209-.134l-10.242,5.915c-.823.475-.72,1.3.231,1.853l10.147,5.858A3.568,3.568,0,0,0,322.337,262.758Z" transform="translate(-201.831 -145.967)" fill="#06033e"/>
      <path id="Path_169" data-name="Path 169" d="M329.865,267.107l10.242-5.913c.823-.475.72-1.3-.229-1.853l-10.149-5.86a3.564,3.564,0,0,0-3.207-.132l-10.242,5.913c-.823.475-.72,1.3.229,1.853l10.149,5.858A3.558,3.558,0,0,0,329.865,267.107Z" transform="translate(-225.177 -141.182)" fill="#06033e"/>
      <path id="Path_170" data-name="Path 170" d="M337.4,271.453l10.242-5.913c.823-.475.72-1.3-.231-1.853l-10.147-5.858a3.557,3.557,0,0,0-3.207-.132l-10.244,5.913c-.821.475-.718,1.3.231,1.853l10.149,5.858A3.557,3.557,0,0,0,337.4,271.453Z" transform="translate(-248.524 -136.398)" fill="#06033e"/>
      <path id="Path_171" data-name="Path 171" d="M344.926,275.8l10.242-5.913c.821-.475.718-1.3-.231-1.853l-10.147-5.858a3.569,3.569,0,0,0-3.209-.134l-10.242,5.913c-.821.475-.718,1.3.231,1.853l10.147,5.86A3.568,3.568,0,0,0,344.926,275.8Z" transform="translate(-271.871 -131.614)" fill="#06033e"/>
      <path id="Path_172" data-name="Path 172" d="M352.551,287.192l22.347-12.9c.821-.477.718-1.3-.231-1.853l-10.147-5.86a3.568,3.568,0,0,0-3.209-.132l-22.347,12.9c-.823.473-.718,1.3.231,1.851l10.147,5.86A3.568,3.568,0,0,0,352.551,287.192Z" transform="translate(-307.614 -126.77)" fill="#06033e"/>
      <path id="Path_173" data-name="Path 173" d="M368.869,277.674l18.862-10.891c.823-.475.72-1.3-.231-1.853l-10.147-5.858a3.568,3.568,0,0,0-3.209-.132l-18.862,10.889c-.821.475-.718,1.3.231,1.853l10.149,5.86A3.564,3.564,0,0,0,368.869,277.674Z" transform="translate(-354.727 -135.03)" fill="#06033e"/>
      <path id="Path_174" data-name="Path 174" d="M297.871,240.171l10.242-5.915c.821-.475.718-1.3-.231-1.853l-10.147-5.858a3.568,3.568,0,0,0-3.209-.132l-10.242,5.913c-.821.475-.718,1.3.231,1.853l10.147,5.858A3.569,3.569,0,0,0,297.871,240.171Z" transform="translate(-125.98 -170.824)" fill="#06033e"/>
      <path id="Path_175" data-name="Path 175" d="M290.153,235.715l10.242-5.913c.823-.477.72-1.3-.229-1.853l-10.149-5.86a3.564,3.564,0,0,0-3.207-.132l-10.242,5.913c-.823.475-.72,1.3.229,1.853l10.149,5.858A3.558,3.558,0,0,0,290.153,235.715Z" transform="translate(-102.053 -175.727)" fill="#06033e"/>
      <path id="Path_176" data-name="Path 176" d="M282.436,231.259l10.242-5.913c.821-.475.718-1.3-.231-1.853l-10.147-5.86a3.575,3.575,0,0,0-3.21-.132l-10.242,5.913c-.821.475-.718,1.3.231,1.853l10.147,5.86A3.569,3.569,0,0,0,282.436,231.259Z" transform="translate(-78.125 -180.63)" fill="#06033e"/>
      <path id="Path_177" data-name="Path 177" d="M274.718,226.8l10.244-5.913c.821-.475.718-1.3-.231-1.853l-10.149-5.858a3.565,3.565,0,0,0-3.207-.134l-10.242,5.915c-.823.475-.72,1.3.229,1.853l10.149,5.858A3.564,3.564,0,0,0,274.718,226.8Z" transform="translate(-54.197 -185.534)" fill="#06033e"/>
      <path id="Path_178" data-name="Path 178" d="M305.4,244.517l10.244-5.913c.821-.475.718-1.3-.231-1.853l-10.149-5.858a3.564,3.564,0,0,0-3.207-.134l-10.242,5.915c-.823.475-.72,1.3.231,1.85l10.147,5.86A3.564,3.564,0,0,0,305.4,244.517Z" transform="translate(-149.328 -166.04)" fill="#06033e"/>
      <path id="Path_179" data-name="Path 179" d="M312.931,248.866l10.242-5.913c.823-.475.72-1.3-.229-1.853l-10.149-5.86a3.564,3.564,0,0,0-3.207-.132l-10.242,5.913c-.823.475-.72,1.3.229,1.853l10.149,5.858A3.558,3.558,0,0,0,312.931,248.866Z" transform="translate(-172.674 -161.255)" fill="#06033e"/>
      <path id="Path_180" data-name="Path 180" d="M320.462,253.212,330.7,247.3c.823-.475.718-1.3-.231-1.853l-10.147-5.858a3.562,3.562,0,0,0-3.21-.132l-10.242,5.913c-.821.475-.718,1.3.231,1.853l10.147,5.858A3.568,3.568,0,0,0,320.462,253.212Z" transform="translate(-196.021 -156.471)" fill="#06033e"/>
      <path id="Path_181" data-name="Path 181" d="M327.992,257.561l10.242-5.913c.821-.475.718-1.3-.231-1.853l-10.147-5.86a3.568,3.568,0,0,0-3.209-.132L314.4,249.716c-.821.475-.718,1.3.231,1.853l10.147,5.86A3.568,3.568,0,0,0,327.992,257.561Z" transform="translate(-219.368 -151.687)" fill="#06033e"/>
      <path id="Path_182" data-name="Path 182" d="M335.522,261.909l10.244-5.915c.821-.475.718-1.3-.231-1.85l-10.149-5.86a3.564,3.564,0,0,0-3.207-.132l-10.242,5.913c-.823.475-.72,1.3.229,1.853l10.149,5.858A3.565,3.565,0,0,0,335.522,261.909Z" transform="translate(-242.716 -146.902)" fill="#06033e"/>
      <path id="Path_183" data-name="Path 183" d="M343.052,266.255l10.242-5.913c.823-.475.72-1.3-.229-1.853l-10.149-5.858a3.565,3.565,0,0,0-3.207-.134l-10.242,5.915c-.823.475-.721,1.3.229,1.851l10.149,5.86A3.564,3.564,0,0,0,343.052,266.255Z" transform="translate(-266.063 -142.118)" fill="#06033e"/>
      <path id="Path_184" data-name="Path 184" d="M350.583,270.6l10.242-5.913c.823-.477.718-1.3-.231-1.853l-10.147-5.86a3.569,3.569,0,0,0-3.21-.132L337,262.759c-.821.475-.718,1.3.231,1.853l10.147,5.858A3.562,3.562,0,0,0,350.583,270.6Z" transform="translate(-289.41 -137.334)" fill="#06033e"/>
      <path id="Path_185" data-name="Path 185" d="M358.114,274.95l10.242-5.913c.821-.475.718-1.3-.231-1.853l-10.147-5.858a3.576,3.576,0,0,0-3.21-.134l-10.242,5.915c-.823.475-.718,1.3.231,1.853l10.147,5.858A3.569,3.569,0,0,0,358.114,274.95Z" transform="translate(-312.757 -132.55)" fill="#06033e"/>
      <path id="Path_186" data-name="Path 186" d="M365.643,279.3l10.242-5.913c.823-.475.72-1.3-.229-1.853l-10.149-5.86a3.564,3.564,0,0,0-3.207-.132l-10.242,5.913c-.823.475-.72,1.3.229,1.853l10.149,5.86A3.564,3.564,0,0,0,365.643,279.3Z" transform="translate(-336.105 -127.766)" fill="#06033e"/>
      <path id="Path_187" data-name="Path 187" d="M293.906,229.417l10.242-5.913c.821-.475.718-1.3-.231-1.853l-10.147-5.858a3.562,3.562,0,0,0-3.21-.134l-10.242,5.913c-.821.477-.718,1.3.231,1.853l10.147,5.86A3.568,3.568,0,0,0,293.906,229.417Z" transform="translate(-113.687 -182.658)" fill="#06033e"/>
      <path id="Path_188" data-name="Path 188" d="M286.414,225.091l10.242-5.913c.821-.475.718-1.3-.231-1.853l-10.147-5.858a3.562,3.562,0,0,0-3.209-.134l-10.242,5.913c-.823.477-.718,1.3.231,1.853l10.147,5.86A3.568,3.568,0,0,0,286.414,225.091Z" transform="translate(-90.456 -187.418)" fill="#06033e"/>
      <path id="Path_189" data-name="Path 189" d="M278.92,220.765l10.244-5.913c.821-.475.718-1.3-.231-1.853l-10.149-5.858a3.558,3.558,0,0,0-3.207-.134l-10.242,5.913c-.823.477-.72,1.3.229,1.853l10.149,5.86A3.564,3.564,0,0,0,278.92,220.765Z" transform="translate(-67.225 -192.179)" fill="#06033e"/>
      <path id="Path_190" data-name="Path 190" d="M271.427,216.439l10.242-5.913c.823-.475.72-1.3-.229-1.853l-10.149-5.858a3.558,3.558,0,0,0-3.207-.134l-10.242,5.913c-.823.477-.72,1.3.229,1.853l10.149,5.86A3.564,3.564,0,0,0,271.427,216.439Z" transform="translate(-43.994 -196.939)" fill="#06033e"/>
      <path id="Path_191" data-name="Path 191" d="M272.337,209.936l10.242-5.913c.823-.477.72-1.3-.229-1.853L279,200.234a3.562,3.562,0,0,0-3.209-.134l-10.242,5.913c-.821.475-.718,1.3.231,1.853l3.354,1.937A3.565,3.565,0,0,0,272.337,209.936Z" transform="translate(-61.088 -199.779)" fill="#06033e"/>
      <path id="Path_192" data-name="Path 192" d="M282.116,215.581l10.242-5.913c.823-.475.72-1.3-.229-1.853l-3.354-1.937a3.562,3.562,0,0,0-3.209-.132l-10.242,5.913c-.823.475-.718,1.3.231,1.853l3.354,1.937A3.564,3.564,0,0,0,282.116,215.581Z" transform="translate(-91.405 -193.567)" fill="#06033e"/>
      <path id="Path_193" data-name="Path 193" d="M289.579,219.889l10.242-5.913c.821-.475.718-1.3-.231-1.853l-3.354-1.937a3.562,3.562,0,0,0-3.21-.132l-10.242,5.913c-.821.475-.718,1.3.231,1.853l3.354,1.937A3.568,3.568,0,0,0,289.579,219.889Z" transform="translate(-114.54 -188.826)" fill="#06033e"/>
      <path id="Path_194" data-name="Path 194" d="M297.04,224.2l10.242-5.913c.823-.475.72-1.3-.229-1.853L303.7,214.5a3.564,3.564,0,0,0-3.207-.134l-10.242,5.915c-.823.475-.72,1.3.229,1.853l3.356,1.937A3.564,3.564,0,0,0,297.04,224.2Z" transform="translate(-137.674 -184.086)" fill="#06033e"/>
      <path id="Path_195" data-name="Path 195" d="M304.5,228.5l10.242-5.913c.821-.475.718-1.3-.231-1.853l-3.354-1.937a3.569,3.569,0,0,0-3.21-.134l-10.242,5.915c-.821.475-.718,1.3.231,1.853l3.354,1.937A3.569,3.569,0,0,0,304.5,228.5Z" transform="translate(-160.807 -179.345)" fill="#06033e"/>
      <path id="Path_196" data-name="Path 196" d="M346.159,252.556l10.242-5.915c.821-.475.718-1.3-.231-1.853l-3.354-1.937a3.564,3.564,0,0,0-3.207-.132l-10.244,5.913c-.821.475-.718,1.3.231,1.853l3.354,1.937A3.569,3.569,0,0,0,346.159,252.556Z" transform="translate(-289.962 -152.879)" fill="#06033e"/>
      <path id="Path_197" data-name="Path 197" d="M353.62,256.862l10.242-5.913c.823-.475.721-1.3-.229-1.853l-3.357-1.937a3.564,3.564,0,0,0-3.207-.132l-10.242,5.913c-.823.475-.72,1.3.229,1.853l3.356,1.937A3.558,3.558,0,0,0,353.62,256.862Z" transform="translate(-313.097 -148.138)" fill="#06033e"/>
      <path id="Path_198" data-name="Path 198" d="M361.082,261.172l10.242-5.915c.821-.475.718-1.3-.231-1.853l-3.354-1.937a3.568,3.568,0,0,0-3.209-.132l-10.242,5.913c-.821.475-.718,1.3.231,1.853l3.354,1.937A3.576,3.576,0,0,0,361.082,261.172Z" transform="translate(-336.23 -143.397)" fill="#06033e"/>
      <path id="Path_199" data-name="Path 199" d="M368.543,265.478l10.242-5.913c.823-.475.72-1.3-.231-1.853l-3.354-1.937a3.564,3.564,0,0,0-3.207-.132l-10.242,5.913c-.823.475-.72,1.3.229,1.853l3.354,1.937A3.562,3.562,0,0,0,368.543,265.478Z" transform="translate(-359.365 -138.657)" fill="#06033e"/>
      <path id="Path_200" data-name="Path 200" d="M301.437,233.765l10.242-5.915c.821-.475.718-1.3-.231-1.853L301.3,220.139a3.569,3.569,0,0,0-3.21-.132l-10.242,5.913c-.823.475-.718,1.3.231,1.853l10.147,5.858A3.569,3.569,0,0,0,301.437,233.765Z" transform="translate(-137.034 -177.873)" fill="#06033e"/>
      <path id="Path_201" data-name="Path 201" d="M308.966,238.111l10.242-5.913c.823-.475.72-1.3-.229-1.853l-10.149-5.858a3.565,3.565,0,0,0-3.207-.134l-10.242,5.915c-.823.475-.72,1.3.229,1.851l10.149,5.86A3.564,3.564,0,0,0,308.966,238.111Z" transform="translate(-160.381 -173.089)" fill="#06033e"/>
      <path id="Path_202" data-name="Path 202" d="M316.5,242.46l10.242-5.913c.823-.475.72-1.3-.229-1.853l-10.149-5.86a3.564,3.564,0,0,0-3.207-.132l-10.244,5.913c-.821.475-.718,1.3.231,1.853l10.149,5.86A3.564,3.564,0,0,0,316.5,242.46Z" transform="translate(-183.728 -168.305)" fill="#06033e"/>
      <path id="Path_203" data-name="Path 203" d="M324.027,246.806l10.242-5.913c.821-.475.718-1.3-.231-1.853l-10.147-5.858a3.568,3.568,0,0,0-3.21-.132l-10.242,5.913c-.821.475-.718,1.3.231,1.853l10.147,5.858A3.562,3.562,0,0,0,324.027,246.806Z" transform="translate(-207.075 -163.52)" fill="#06033e"/>
      <path id="Path_204" data-name="Path 204" d="M331.558,251.155l10.242-5.913c.821-.475.718-1.3-.231-1.853l-10.147-5.86a3.575,3.575,0,0,0-3.209-.132l-10.242,5.913c-.823.475-.718,1.3.231,1.853l10.147,5.86A3.569,3.569,0,0,0,331.558,251.155Z" transform="translate(-230.422 -158.736)" fill="#06033e"/>
      <path id="Path_205" data-name="Path 205" d="M339.087,255.5l10.242-5.915c.823-.475.72-1.3-.229-1.85l-10.149-5.86a3.564,3.564,0,0,0-3.207-.132L325.5,247.658c-.823.475-.721,1.3.229,1.853l10.149,5.858A3.565,3.565,0,0,0,339.087,255.5Z" transform="translate(-253.77 -153.952)" fill="#06033e"/>
      <path id="Path_206" data-name="Path 206" d="M346.617,259.849l10.242-5.913c.823-.475.72-1.3-.229-1.853l-10.149-5.858a3.565,3.565,0,0,0-3.207-.134l-10.244,5.915c-.821.475-.718,1.3.231,1.853l10.149,5.858A3.564,3.564,0,0,0,346.617,259.849Z" transform="translate(-277.116 -149.168)" fill="#06033e"/>
      <path id="Path_207" data-name="Path 207" d="M354.148,264.2l10.242-5.913c.821-.475.718-1.3-.231-1.853l-10.147-5.86a3.568,3.568,0,0,0-3.21-.132l-10.242,5.913c-.821.475-.718,1.3.231,1.853l10.147,5.86A3.568,3.568,0,0,0,354.148,264.2Z" transform="translate(-300.463 -144.383)" fill="#06033e"/>
      <path id="Path_208" data-name="Path 208" d="M361.678,268.544l10.244-5.913c.821-.475.718-1.3-.231-1.853l-10.149-5.858a3.564,3.564,0,0,0-3.207-.132L348.092,260.7c-.823.475-.72,1.3.231,1.853l10.147,5.858A3.564,3.564,0,0,0,361.678,268.544Z" transform="translate(-323.811 -139.599)" fill="#06033e"/>
      <path id="Path_209" data-name="Path 209" d="M248.9,240.326l30.164-17.415c.823-.475.72-1.3-.231-1.853L268.685,215.2a3.562,3.562,0,0,0-3.209-.132l-30.162,17.415c-.823.475-.72,1.3.229,1.853l10.149,5.858A3.564,3.564,0,0,0,248.9,240.326Z" transform="translate(5.93 -183.309)" fill="#06033e"/>
      <path id="Path_210" data-name="Path 210" d="M341.41,293.739l30.164-17.415c.823-.477.718-1.3-.231-1.853l-10.147-5.86a3.569,3.569,0,0,0-3.21-.132l-30.162,17.415c-.823.475-.72,1.3.229,1.853L338.2,293.6A3.565,3.565,0,0,0,341.41,293.739Z" transform="translate(-280.895 -124.533)" fill="#06033e"/>
      <path id="Path_211" data-name="Path 211" d="M322.722,280.518l10.242-5.915c.821-.475.718-1.3-.231-1.853l-12.088-6.98a3.568,3.568,0,0,0-3.209-.132l-10.242,5.913c-.821.475-.718,1.3.231,1.853l12.088,6.98A3.569,3.569,0,0,0,322.722,280.518Z" transform="translate(-198.952 -127.659)" fill="#06033e"/>
      <path id="Path_212" data-name="Path 212" d="M265.116,250.8l16.379-9.456c.823-.475.718-1.3-.231-1.853l-12.088-6.98a3.562,3.562,0,0,0-3.209-.132l-16.379,9.456c-.823.475-.718,1.3.231,1.853l12.088,6.98A3.569,3.569,0,0,0,265.116,250.8Z" transform="translate(-26.483 -164.259)" fill="#06033e"/>
      <path id="Path_213" data-name="Path 213" d="M312.544,278.183l16.381-9.456c.821-.475.718-1.3-.231-1.853l-12.09-6.98a3.564,3.564,0,0,0-3.207-.132l-16.379,9.456c-.823.475-.72,1.3.229,1.853l12.09,6.98A3.558,3.558,0,0,0,312.544,278.183Z" transform="translate(-173.535 -134.125)" fill="#06033e"/>
      <path id="Path_214" data-name="Path 214" d="M275.979,257.074l16.379-9.458c.823-.475.72-1.3-.229-1.85l-12.09-6.98a3.558,3.558,0,0,0-3.207-.134l-16.381,9.458c-.821.475-.718,1.3.231,1.853l12.09,6.978A3.564,3.564,0,0,0,275.979,257.074Z" transform="translate(-60.168 -157.356)" fill="#06033e"/>
      <path id="Path_215" data-name="Path 215" d="M332.092,238.514,260.876,279.63a.974.974,0,0,0,0,1.846l12.327,7.118a3.537,3.537,0,0,0,3.2,0l71.215-41.116Z" transform="translate(-115.539 -157.154)" fill="#06033e"/>
      <path id="Path_216" data-name="Path 216" d="M340.776,280.574l-11.409,6.587c-.674.389-.588,1.069.189,1.519l4.946,2.854a2.924,2.924,0,0,0,2.63.109l11.408-6.587c.674-.389.59-1.069-.189-1.519l-4.944-2.854A2.924,2.924,0,0,0,340.776,280.574Z" transform="translate(-261.212 -111.159)" fill="#06033e"/>
      <path id="Path_217" data-name="Path 217" d="M333.184,276.189l-11.41,6.587c-.674.391-.59,1.069.189,1.519l4.944,2.857a2.931,2.931,0,0,0,2.63.109l11.41-6.587c.674-.391.59-1.069-.189-1.519l-4.944-2.857A2.931,2.931,0,0,0,333.184,276.189Z" transform="translate(-237.671 -115.983)" fill="#06033e"/>
      <path id="Path_218" data-name="Path 218" d="M325.653,271.842l-11.41,6.587c-.674.389-.588,1.069.189,1.519l4.947,2.855a2.924,2.924,0,0,0,2.63.109l11.408-6.587c.674-.389.59-1.069-.189-1.519l-4.944-2.855A2.924,2.924,0,0,0,325.653,271.842Z" transform="translate(-214.324 -120.767)" fill="#06033e"/>
      <path id="Path_219" data-name="Path 219" d="M337.34,273.79l-11.407,6.587c-.674.389-.59,1.069.189,1.517l4.944,2.857a2.924,2.924,0,0,0,2.63.109l11.41-6.587c.674-.389.588-1.069-.189-1.519L339.97,273.9A2.918,2.918,0,0,0,337.34,273.79Z" transform="translate(-250.563 -118.625)" fill="#06033e"/>
    </g>
    <path id="Path_220" data-name="Path 220" d="M342.87,483.55,645.043,309.092c4.751-2.743,7.23-9.429,5.539-14.93L582.246,72.289c-1.693-5.5-6.917-7.738-11.668-4.995L268.405,241.754c-4.751,2.743-7.232,9.427-5.539,14.93L331.2,478.555C332.893,484.059,338.119,486.293,342.87,483.55Z" transform="translate(-257.186 -64.319)" fill="url(#radial-gradient-4)"/>
    <path id="Path_221" data-name="Path 221" d="M342.433,471.587,635.523,302.231c4.547-2.626,6.921-9.021,5.3-14.287L575.493,75.835c-1.619-5.266-6.618-7.406-11.166-4.781L271.236,240.411c-4.547,2.626-6.921,9.023-5.3,14.289l65.332,212.106C332.886,472.072,337.885,474.213,342.433,471.587Z" transform="translate(-253.9 -60.126)" fill="url(#linear-gradient-5)"/>
    <path id="Path_222" data-name="Path 222" d="M342.433,471.587,635.523,302.231c4.547-2.626,6.921-9.021,5.3-14.287L575.493,75.835c-1.619-5.266-6.618-7.406-11.166-4.781L271.236,240.411c-4.547,2.626-6.921,9.023-5.3,14.289l65.332,212.106C332.886,472.072,337.885,474.213,342.433,471.587Z" transform="translate(-253.9 -60.126)" fill="#06033e" opacity="0.4"/>
    <path id="Path_223" data-name="Path 223" d="M342.433,471.587,635.523,302.231c4.547-2.626,6.921-9.021,5.3-14.287L575.493,75.835c-1.619-5.266-6.618-7.406-11.166-4.781L271.236,240.411c-4.547,2.626-6.921,9.023-5.3,14.289l65.332,212.106C332.886,472.072,337.885,474.213,342.433,471.587Z" transform="translate(-253.9 -60.126)" fill="#06033e" opacity="0.4"/>
    <path id="Path_224" data-name="Path 224" d="M356.754,373.892,555.162,259.343a8.788,8.788,0,0,0,3.636-9.8L513.93,103.858c-1.111-3.613-4.541-5.081-7.662-3.281L307.86,215.128a8.787,8.787,0,0,0-3.636,9.8l44.867,145.68C350.205,374.224,353.635,375.694,356.754,373.892Z" transform="translate(-252.475 -27.25)" fill="#06033e" opacity="0.5"/>
    <g id="Group_5" data-name="Group 5" transform="translate(78.206 76.074)">
      <path id="Path_225" data-name="Path 225" d="M343.994,375.566,542.4,261.017a8.791,8.791,0,0,0,3.636-9.8l-44.87-145.68c-1.111-3.613-4.541-5.081-7.66-3.281L295.1,216.8a8.788,8.788,0,0,0-3.638,9.8l44.87,145.68C337.443,375.9,340.872,377.368,343.994,375.566Z" transform="translate(-291.113 -101.482)" fill="url(#radial-gradient-5)"/>
    </g>
    <g id="Group_6" data-name="Group 6" transform="translate(78.206 76.074)" opacity="0.5">
      <path id="Path_226" data-name="Path 226" d="M343.994,375.566,542.4,261.017a8.791,8.791,0,0,0,3.636-9.8l-44.87-145.68c-1.111-3.613-4.541-5.081-7.66-3.281L295.1,216.8a8.788,8.788,0,0,0-3.638,9.8l44.87,145.68C337.443,375.9,340.872,377.368,343.994,375.566Z" transform="translate(-291.113 -101.482)" fill="#06033e"/>
    </g>
    <path id="Path_227" data-name="Path 227" d="M317.616,216.8,516.023,102.251a4.94,4.94,0,0,1,5.583.191,5.344,5.344,0,0,0-2.865.733L320.334,217.726a8.788,8.788,0,0,0-3.638,9.8l44.87,145.68a5.985,5.985,0,0,0,2.079,3.09,5.249,5.249,0,0,1-4.8-4.014L313.98,226.605A8.784,8.784,0,0,1,317.616,216.8Z" transform="translate(-235.423 -25.408)" fill="#fff"/>
    <path id="Path_228" data-name="Path 228" d="M280.1,332.921a14.928,14.928,0,0,0,7.352-1.725v0l79.491-45.892c2.107-1.22,3.266-2.957,3.266-4.9,0-2.254-1.6-4.468-4.384-6.077l-40.917-23.626c-5-2.884-12.338-3.167-16.713-.645L228.7,295.956c-2.107,1.216-3.266,2.955-3.268,4.9,0,2.252,1.6,4.468,4.384,6.074l40.921,23.628A19.166,19.166,0,0,0,280.1,332.921Zm35.409-82.257a17.065,17.065,0,0,1,8.251,2.031l40.917,23.624c2.058,1.189,3.239,2.68,3.239,4.09a3.624,3.624,0,0,1-2.121,2.907l-79.491,45.9c-3.606,2.077-10.206,1.788-14.415-.647l-40.919-23.624c-2.058-1.187-3.237-2.676-3.237-4.087a3.63,3.63,0,0,1,2.121-2.909l79.489-45.893A12.611,12.611,0,0,1,315.507,250.664Z" transform="translate(101.227 136.201)" fill="#06033e" opacity="0.4"/>
  </g>
  <g id="Group_9" data-name="Group 9" transform="translate(279.005 182.578)">
    <g id="Group_8" data-name="Group 8" transform="translate(55.167 9.795)">
      <path id="Path_229" data-name="Path 229" d="M335.626,144.546l12.264-7.083a3.2,3.2,0,0,0,1.363-3.527h0a1.816,1.816,0,0,0-2.758-1.149l-12.264,7.083a3.2,3.2,0,0,0-1.363,3.527h0A1.817,1.817,0,0,0,335.626,144.546Z" transform="translate(-303.533 -125.429)" fill="#fff"/>
      <path id="Path_230" data-name="Path 230" d="M346.764,154.337l18.087-10.443a3.2,3.2,0,0,0,1.363-3.527h0a1.816,1.816,0,0,0-2.758-1.147L345.37,149.661a3.2,3.2,0,0,0-1.363,3.529h0A1.816,1.816,0,0,0,346.764,154.337Z" transform="translate(-343.891 -118.351)" fill="#fff"/>
      <path id="Path_231" data-name="Path 231" d="M323.848,170.544l12.267-7.081a3.2,3.2,0,0,0,1.363-3.529h0a1.816,1.816,0,0,0-2.758-1.147l-12.267,7.083a3.194,3.194,0,0,0-1.363,3.527h0A1.816,1.816,0,0,0,323.848,170.544Z" transform="translate(-267.019 -96.817)" fill="#fff"/>
      <path id="Path_232" data-name="Path 232" d="M333.477,179.465l18.087-10.443a3.2,3.2,0,0,0,1.363-3.527h0a1.817,1.817,0,0,0-2.758-1.149L332.082,174.79a3.2,3.2,0,0,0-1.363,3.527h0A1.817,1.817,0,0,0,333.477,179.465Z" transform="translate(-302.693 -90.699)" fill="#fff"/>
      <path id="Path_233" data-name="Path 233" d="M320.323,138.518l7.662-4.424a3.2,3.2,0,0,0,1.363-3.527h0a1.817,1.817,0,0,0-2.758-1.149l-7.662,4.426a3.2,3.2,0,0,0-1.363,3.527h0A1.816,1.816,0,0,0,320.323,138.518Z" transform="translate(-251.488 -129.134)" fill="#fff"/>
      <path id="Path_234" data-name="Path 234" d="M323.8,155.088l23.411-13.518a3.2,3.2,0,0,0,1.363-3.527h0a1.817,1.817,0,0,0-2.758-1.149l-23.411,13.518a3.2,3.2,0,0,0-1.363,3.527h0A1.817,1.817,0,0,0,323.8,155.088Z" transform="translate(-278.024 -120.909)" fill="#fff"/>
      <path id="Path_235" data-name="Path 235" d="M321.019,155.321l7.664-4.424a3.2,3.2,0,0,0,1.363-3.527h0a1.816,1.816,0,0,0-2.758-1.149l-7.665,4.423a3.2,3.2,0,0,0-1.363,3.529h0A1.817,1.817,0,0,0,321.019,155.321Z" transform="translate(-253.648 -110.645)" fill="#fff"/>
      <path id="Path_236" data-name="Path 236" d="M333.688,191.894l20.467-11.817a3.2,3.2,0,0,0,1.363-3.527h0a1.817,1.817,0,0,0-2.758-1.149l-20.467,11.817a3.2,3.2,0,0,0-1.363,3.527h0A1.816,1.816,0,0,0,333.688,191.894Z" transform="translate(-305.73 -78.534)" fill="#fff"/>
      <path id="Path_237" data-name="Path 237" d="M318.237,163.062l4.919-2.838a3.2,3.2,0,0,0,1.363-3.529h0a1.816,1.816,0,0,0-2.758-1.147l-4.919,2.84a3.2,3.2,0,0,0-1.363,3.527h0A1.815,1.815,0,0,0,318.237,163.062Z" transform="translate(-242.277 -100.381)" fill="#fff"/>
      <path id="Path_238" data-name="Path 238" d="M315.455,173.076l6.108-3.527a3.194,3.194,0,0,0,1.363-3.527h0a1.815,1.815,0,0,0-2.758-1.147L314.06,168.4a3.2,3.2,0,0,0-1.363,3.527h0A1.816,1.816,0,0,0,315.455,173.076Z" transform="translate(-234.84 -90.118)" fill="#fff"/>
      <path id="Path_239" data-name="Path 239" d="M322.009,182.632l16.1-9.3a3.2,3.2,0,0,0,1.363-3.527h0a1.815,1.815,0,0,0-2.758-1.147l-16.1,9.3a3.2,3.2,0,0,0-1.363,3.527h0A1.816,1.816,0,0,0,322.009,182.632Z" transform="translate(-265.157 -85.954)" fill="#fff"/>
      <path id="Path_240" data-name="Path 240" d="M314.065,180.9l11.578-6.684a3.2,3.2,0,0,0,1.363-3.529h0a1.816,1.816,0,0,0-2.758-1.147l-11.578,6.686a3.2,3.2,0,0,0-1.363,3.527h0A1.816,1.816,0,0,0,314.065,180.9Z" transform="translate(-235.998 -84.986)" fill="#fff"/>
      <path id="Path_241" data-name="Path 241" d="M348.252,192.8l7.436-4.293a3.2,3.2,0,0,0,1.363-3.529h0a1.816,1.816,0,0,0-2.758-1.147l-7.436,4.293a3.2,3.2,0,0,0-1.363,3.527h0A1.817,1.817,0,0,0,348.252,192.8Z" transform="translate(-337.851 -69.256)" fill="#fff"/>
      <path id="Path_242" data-name="Path 242" d="M328.494,167.029l20.467-11.817a3.2,3.2,0,0,0,1.363-3.527h0a1.815,1.815,0,0,0-2.758-1.147L327.1,162.353a3.2,3.2,0,0,0-1.363,3.529h0A1.816,1.816,0,0,0,328.494,167.029Z" transform="translate(-289.626 -105.896)" fill="#fff"/>
    </g>
    <path id="Path_243" data-name="Path 243" d="M322.411,166.827l35.67-20.593a3.2,3.2,0,0,0,1.363-3.529h0a1.816,1.816,0,0,0-2.758-1.147l-35.67,20.595a3.2,3.2,0,0,0-1.363,3.527h0A1.816,1.816,0,0,0,322.411,166.827Z" transform="translate(-230.802 -105.981)" fill="#e8975b"/>
    <path id="Path_244" data-name="Path 244" d="M319.628,167.377l20.467-11.817a3.2,3.2,0,0,0,1.363-3.527h0a1.817,1.817,0,0,0-2.758-1.149L318.234,162.7a3.2,3.2,0,0,0-1.363,3.527h0A1.816,1.816,0,0,0,319.628,167.377Z" transform="translate(-206.971 -95.718)" fill="#e8975b"/>
    <path id="Path_245" data-name="Path 245" d="M342.089,167.355l7.436-4.293a3.2,3.2,0,0,0,1.363-3.527h0a1.816,1.816,0,0,0-2.758-1.149l-7.436,4.293a3.2,3.2,0,0,0-1.363,3.527h0A1.816,1.816,0,0,0,342.089,167.355Z" transform="translate(-263.576 -87.464)" fill="#e8975b"/>
    <path id="Path_246" data-name="Path 246" d="M360.676,177.35l44.034-25.424a3.2,3.2,0,0,0,1.363-3.529h0a1.816,1.816,0,0,0-2.758-1.147l-44.034,25.424a3.2,3.2,0,0,0-1.363,3.527h0A1.817,1.817,0,0,0,360.676,177.35Z" transform="translate(-357.802 -99.718)" fill="#e8975b"/>
    <path id="Path_247" data-name="Path 247" d="M316.846,179.091l24.6-14.2a3.2,3.2,0,0,0,1.363-3.527h0a1.816,1.816,0,0,0-2.758-1.149l-24.6,14.205a3.2,3.2,0,0,0-1.363,3.527h0A1.816,1.816,0,0,0,316.846,179.091Z" transform="translate(-202.481 -85.455)" fill="#f8359e"/>
    <path id="Path_248" data-name="Path 248" d="M321.714,139.874,339.8,129.432a3.2,3.2,0,0,0,1.363-3.529h0a1.816,1.816,0,0,0-2.758-1.147L320.319,135.2a3.2,3.2,0,0,0-1.363,3.529h0A1.816,1.816,0,0,0,321.714,139.874Z" transform="translate(-211.059 -124.471)" fill="#f8359e"/>
    <path id="Path_249" data-name="Path 249" d="M307.8,188.159l20.948-12.094a3.2,3.2,0,0,0,1.363-3.527h0a1.817,1.817,0,0,0-2.758-1.149l-20.948,12.094a3.2,3.2,0,0,0-1.363,3.529h0A1.816,1.816,0,0,0,307.8,188.159Z" transform="translate(-170.787 -73.154)" fill="#e8975b"/>
  </g>
  <g id="Group_10" data-name="Group 10" transform="translate(232.224 228.76)">
    <path id="Path_250" data-name="Path 250" d="M379.14,155.261l8.967-5.178a2.336,2.336,0,0,0,1-2.577h0a1.326,1.326,0,0,0-2.014-.84l-8.967,5.178a2.336,2.336,0,0,0-1,2.577h0A1.327,1.327,0,0,0,379.14,155.261Z" transform="translate(-334.429 -146.458)" fill="#fff"/>
    <path id="Path_251" data-name="Path 251" d="M387.283,159.962l8.967-5.178a2.337,2.337,0,0,0,1-2.577h0a1.328,1.328,0,0,0-2.016-.84l-8.965,5.178a2.337,2.337,0,0,0-1,2.577h0A1.329,1.329,0,0,0,387.283,159.962Z" transform="translate(-359.675 -141.285)" fill="#fff"/>
    <path id="Path_252" data-name="Path 252" d="M395.425,164.662l8.967-5.175a2.337,2.337,0,0,0,1-2.577h0a1.327,1.327,0,0,0-2.016-.84l-8.965,5.175a2.341,2.341,0,0,0-1,2.579h0A1.327,1.327,0,0,0,395.425,164.662Z" transform="translate(-384.919 -136.112)" fill="#fff"/>
    <path id="Path_253" data-name="Path 253" d="M403.568,164.349l.269-.162a2.341,2.341,0,0,0,1-2.579h0a1.328,1.328,0,0,0-2.016-.838l-.269.162a2.34,2.34,0,0,0-1,2.579h0A1.328,1.328,0,0,0,403.568,164.349Z" transform="translate(-401.467 -130.939)" fill="#f8359e"/>
  </g>
  <path id="Path_254" data-name="Path 254" d="M224.042,260.794a32.813,32.813,0,0,0,16.409-4.384h0l60.062-34.678a8.316,8.316,0,0,0,0-14.4l-60.06-34.674a32.9,32.9,0,0,0-32.821,0l-60.062,34.676a8.316,8.316,0,0,0,0,14.4l60.06,34.676A32.822,32.822,0,0,0,224.042,260.794Zm14.455-7.77a29.007,29.007,0,0,1-28.915,0l-60.06-34.676a4.407,4.407,0,0,1,0-7.633l60.062-34.678a29,29,0,0,1,28.915,0l60.06,34.676a4.407,4.407,0,0,1,0,7.633Z" transform="translate(473.037 106.304)" fill="url(#linear-gradient)"/>
  <g id="Group_13" data-name="Group 13" transform="translate(632.689 104.54)">
    <ellipse id="Ellipse_3" data-name="Ellipse 3" cx="41.254" cy="23.818" rx="41.254" ry="23.818" transform="translate(23.439 193.293)" fill="#020230" opacity="0.6"/>
    <path id="Path_255" data-name="Path 255" d="M154.825,109.863h117.5L261.4,237.084h0c0,7.068-4.669,14.134-14.008,19.524-18.675,10.784-48.955,10.784-67.632,0-9.339-5.39-14.006-12.456-14.006-19.524Z" transform="translate(-151.285 -62.508)" fill="url(#radial-gradient-6)"/>
    <path id="Path_256" data-name="Path 256" d="M154.825,109.863h117.5l-1.8,20.931a45.723,45.723,0,0,1-10.891,9.8c-22.452,14.894-59.5,17.766-84.78,7.039l3.909,93.049a18.269,18.269,0,0,0,4.2,11.095c3.806,4.48,11.139,9.75,25.235,12.731-10.389-.674-20.473-3.293-28.442-7.9-9.339-5.39-14.006-12.456-14.006-19.524l-8.765-102.029h0Z" transform="translate(-151.285 -62.508)" fill="#06033e" opacity="0.4"/>
    <ellipse id="Ellipse_4" data-name="Ellipse 4" cx="58.751" cy="33.92" rx="58.751" ry="33.92" transform="translate(3.54 13.435)" fill="#06033e" opacity="0.4"/>
    <ellipse id="Ellipse_5" data-name="Ellipse 5" cx="50.604" cy="29.216" rx="50.604" ry="29.216" transform="translate(11.687 6.183)" fill="#06033e" opacity="0.4"/>
    <path id="Path_257" data-name="Path 257" d="M153.2,132.992l0,.008.008-.1c0-.057.013-.116.019-.174l1.128-11.391.048.128c.5-8.62,6.442-17.156,17.841-23.739,23.855-13.773,62.53-13.773,86.383,0,11.687,6.747,17.633,15.55,17.868,24.392l.015-.031,1.073,10.143c.029.265.065.529.084.792l.019.168-.013-.008c.645,9.664-5.411,19.448-18.19,26.825-24.327,14.046-63.771,14.048-88.1,0C158.525,152.579,152.469,142.717,153.2,132.992Z" transform="translate(-153.143 -87.236)" fill="url(#linear-gradient-7)"/>
    <ellipse id="Ellipse_6" data-name="Ellipse 6" cx="50.604" cy="29.216" rx="50.604" ry="29.216" transform="translate(11.687 6.183)" fill="url(#linear-gradient-8)"/>
    <ellipse id="Ellipse_7" data-name="Ellipse 7" cx="50.604" cy="29.216" rx="50.604" ry="29.216" transform="translate(14.088 6.183)" fill="url(#linear-gradient-8)"/>
    <path id="Path_258" data-name="Path 258" d="M230.985,103.17c-19.761-11.41-51.8-11.41-71.564,0-.252.145-.462.3-.708.452a40.268,40.268,0,0,1,6.711-4.8c19.761-11.41,51.8-11.412,71.564,0,19.511,11.265,19.721,29.427.708,40.866C250.39,128.364,248.166,113.09,230.985,103.17Z" transform="translate(-138.913 -84.078)" fill="#06033e" opacity="0.4"/>
    <path id="Path_259" data-name="Path 259" d="M245.087,103.888c-19.763-11.41-51.8-11.407-71.564,0-8.765,5.058-13.632,11.513-14.625,18.123-1.243-8.3,3.625-16.843,14.625-23.193,19.761-11.41,51.8-11.412,71.564,0,11,6.352,15.867,14.9,14.623,23.2C258.719,115.4,253.85,108.948,245.087,103.888Z" transform="translate(-147.013 -84.078)" fill="url(#linear-gradient-10)"/>
    <path id="Path_260" data-name="Path 260" d="M171.345,98.07c23.821-14.033,62.637-14.375,86.7-.762s24.26,36.022.439,50.056-62.635,14.375-86.7.762S147.526,112.1,171.345,98.07Zm7.786,45.306a65.964,65.964,0,0,0,23.01,7.583l.918-3.018a2.9,2.9,0,0,1,2.77-2.05H224a2.9,2.9,0,0,1,2.768,2.05l.918,3.018a65.9,65.9,0,0,0,23.008-7.585c19.763-11.41,19.765-29.908,0-41.318s-51.8-11.407-71.564,0S159.371,131.967,179.131,143.377Z" transform="translate(-152.623 -87.318)" fill="url(#radial-gradient-7)"/>
    <g id="Group_11" data-name="Group 11" transform="translate(0.997 4.02)">
      <path id="Path_261" data-name="Path 261" d="M173.522,97.79c19.761-11.41,51.8-11.412,71.564,0,10.357,5.978,15.276,13.9,14.777,21.737-.454-7.112-5.373-14.146-14.777-19.576-19.761-11.41-51.8-11.41-71.564,0-9.406,5.43-14.325,12.464-14.779,19.576C158.243,111.7,163.162,103.77,173.522,97.79Z" transform="translate(-148.008 -89.232)" fill="#fff"/>
      <path id="Path_262" data-name="Path 262" d="M171.781,128.146c24.063,13.613,62.881,13.271,86.7-.762,11.336-6.679,17.219-15.253,17.694-23.876.468,9.336-5.411,18.8-17.694,26.039-23.819,14.033-62.637,14.375-86.7.762-12.611-7.133-18.654-16.686-18.133-26.18C154.089,112.9,160.128,121.555,171.781,128.146Z" transform="translate(-153.617 -73.521)" fill="#fff"/>
    </g>
    <path id="Rectangle_2" data-name="Rectangle 2" d="M.653,0h12.3a.654.654,0,0,1,.654.654v1.63a.654.654,0,0,1-.654.654H.654A.654.654,0,0,1,0,2.283V.653A.653.653,0,0,1,.653,0Z" transform="translate(55.489 62.278)" fill="#0c0a78"/>
    <path id="Path_263" data-name="Path 263" d="M180.931,116.968h10.861a1.373,1.373,0,0,1,1.372,1.372v.193a1.315,1.315,0,0,1-.074.363,1.355,1.355,0,0,0-1.3-1.006H180.931a1.357,1.357,0,0,0-1.3,1.006,1.4,1.4,0,0,1-.074-.363v-.193A1.374,1.374,0,0,1,180.931,116.968Z" transform="translate(-124.069 -54.69)" fill="url(#linear-gradient-11)"/>
  </g>
  <path id="Path_268" data-name="Path 268" d="M199.345,184.833s-32.851-11.008-19.551-48.755,39.2-49.251,28.768-79.447c0,0,16.35,24.445,1.071,57.518s-18.629,29.274-18.45,45.09a28.54,28.54,0,0,0,15.394,25.594Z" transform="translate(491.787 -16.546)" fill="#fff" opacity="0.5"/>
  <path id="Path_269" data-name="Path 269" d="M203.7,82.883s3.422-22.58-17.759-45.336c0,0,18.73,41.834,12.6,62.488C198.54,100.035,203.5,86.907,203.7,82.883Z" transform="translate(484.48 -37.547)" fill="#fff" opacity="0.5"/>
</svg>
