<svg xmlns="http://www.w3.org/2000/svg" width="24" height="24" viewBox="0 0 24 24">
  <g id="Group_68" data-name="Group 68" transform="translate(-27 -33.904)">
    <g id="Iconly_Bold_Bag" data-name="Iconly/Bold/Bag" transform="translate(27 33.904)">
      <g id="Bag" transform="translate(3 2)">
        <path id="Combined_Shape" data-name="Combined Shape" d="M13.159,20H4.868c-1.88,0-3.175-.438-3.958-1.338C.091,17.72-.172,16.3.105,14.314L.883,8.12A4.081,4.081,0,0,1,2.076,5.708,2.736,2.736,0,0,1,3.932,5H4.01a.679.679,0,0,1,0-.226,5,5,0,0,1,9.991,0h-.026A.517.517,0,0,1,13.93,5h.157a2.668,2.668,0,0,1,1.827.731,4.388,4.388,0,0,1,1.23,2.389l.769,6.195a5.133,5.133,0,0,1-.906,4.23A4.914,4.914,0,0,1,13.159,20ZM11.885,8.33a.91.91,0,1,0,.884.909A.9.9,0,0,0,11.885,8.33ZM6.1,8.33a.91.91,0,1,0,.884.909A.9.9,0,0,0,6.1,8.33ZM8.966,1.3A3.482,3.482,0,0,0,5.482,4.774a.633.633,0,0,1,0,.226h7.011a.653.653,0,0,1-.043-.226A3.482,3.482,0,0,0,8.966,1.3Z" transform="translate(0 0)" fill="#6b58db"/>
      </g>
    </g>
    <g id="Ellipse_1" data-name="Ellipse 1" transform="translate(44 51)" fill="#2acc7b" stroke="#e9e9e9" stroke-width="1">
      <circle cx="3" cy="3" r="3" stroke="none"/>
      <circle cx="3" cy="3" r="2.5" fill="none"/>
    </g>
  </g>
</svg>
