<svg xmlns="http://www.w3.org/2000/svg" width="64" height="60" viewBox="0 0 64 60">
  <g id="Group_278" data-name="Group 278" transform="translate(-261 -229)">
    <g id="Group_265" data-name="Group 265" transform="translate(-2 -47)">
      <circle id="Ellipse_35" data-name="Ellipse 35" cx="30" cy="30" r="30" transform="translate(263 276)" fill="#7d74e2" opacity="0.3"/>
      <g id="Path_758" data-name="Path 758" transform="translate(307 316)" fill="#1bc48a">
        <path d="M 10 18 C 5.588789939880371 18 2 14.41121006011963 2 10 C 2 5.588789939880371 5.588789939880371 2 10 2 C 14.41121006011963 2 18 5.588789939880371 18 10 C 18 14.41121006011963 14.41121006011963 18 10 18 Z" stroke="none"/>
        <path d="M 10 4 C 6.691590309143066 4 4 6.691590309143066 4 10 C 4 13.30841064453125 6.691590309143066 16 10 16 C 13.30841064453125 16 16 13.30841064453125 16 10 C 16 6.691590309143066 13.30841064453125 4 10 4 M 10 0 C 15.52285003662109 0 20 4.477149963378906 20 10 C 20 15.52285003662109 15.52285003662109 20 10 20 C 4.477149963378906 20 0 15.52285003662109 0 10 C 0 4.477149963378906 4.477149963378906 0 10 0 Z" stroke="none" fill="#fff"/>
      </g>
    </g>
    <g id="Iconly_Bold_Buy" data-name="Iconly/Bold/Buy" transform="translate(273 241.904)">
      <g id="Buy" transform="translate(2.917 2.917)">
        <path id="Buy-2" data-name="Buy" d="M22.092,26.919a2.208,2.208,0,1,1,2.216,2.247A2.238,2.238,0,0,1,22.092,26.919Zm-16.393,0a2.208,2.208,0,1,1,2.214,2.247A2.238,2.238,0,0,1,5.7,26.919ZM8.146,22.3a3.659,3.659,0,0,1-2.517-1,3.814,3.814,0,0,1-1.184-2.477L3.105,2.6.9,2.214A1.117,1.117,0,0,1,1.115,0a1.192,1.192,0,0,1,.168.013L4.759.547a1.12,1.12,0,0,1,.9,1.012l.277,3.334a.9.9,0,0,0,.889.835h19.68a2.462,2.462,0,0,1,2.055,1,3.282,3.282,0,0,1,.554,2.558l-1.385,9.762A3.765,3.765,0,0,1,24.045,22.3Zm8.437-9.955a1.106,1.106,0,0,0,1.093,1.116h4.036a1.106,1.106,0,0,0,1.093-1.116,1.094,1.094,0,0,0-1.093-1.117H17.676A1.094,1.094,0,0,0,16.583,12.349Z" fill="#695adc"/>
      </g>
    </g>
  </g>
</svg>
