<svg xmlns="http://www.w3.org/2000/svg" width="71.197" height="45" viewBox="0 0 71.197 45">
  <g id="Group_195" data-name="Group 195" transform="translate(-797.386 -730.897)" opacity="0.8">
    <g id="Group_194" data-name="Group 194" transform="translate(-1.413 101.47)">
      <g id="Group_193" data-name="Group 193" transform="translate(855.996 627.931)">
        <text id="لغو" transform="translate(-22 28.496)" fill="#bbaaf7" font-size="30" font-family="YekanBakh-Regular, Yekan Bakh"><tspan x="0" y="0">لغو</tspan></text>
        <g id="Iconly_Light_Close_Square" data-name="Iconly/Light/Close Square" transform="translate(-56.447 14.253)">
          <g id="Close_Square" data-name="Close Square" transform="translate(-0.75 -0.75)">
            <path id="Stroke_1" data-name="Stroke 1" d="M4.792,0,0,4.792" transform="translate(7.603 7.595)" fill="none" stroke="#bbaaf7" stroke-linecap="round" stroke-linejoin="round" stroke-miterlimit="10" stroke-width="1.5"/>
            <path id="Stroke_2" data-name="Stroke 2" d="M4.8,4.8,0,0" transform="translate(7.601 7.593)" fill="none" stroke="#bbaaf7" stroke-linecap="round" stroke-linejoin="round" stroke-miterlimit="10" stroke-width="1.5"/>
            <path id="Stroke_3" data-name="Stroke 3" d="M13.584,0H4.915C1.894,0,0,2.139,0,5.166v8.168C0,16.361,1.885,18.5,4.915,18.5h8.668c3.031,0,4.917-2.139,4.917-5.166V5.166C18.5,2.139,16.614,0,13.584,0Z" transform="translate(0.751 0.75)" fill="none" stroke="#bbaaf7" stroke-linecap="round" stroke-linejoin="round" stroke-miterlimit="10" stroke-width="1.5"/>
          </g>
        </g>
      </g>
    </g>
  </g>
</svg>
