<svg xmlns="http://www.w3.org/2000/svg" width="112.791" height="127.9" viewBox="0 0 112.791 127.9">
  <g id="HTML5_Logo" data-name="HTML5 Logo" transform="translate(-74.6 -100.6)">
    <path id="Path_500" data-name="Path 500" d="M84.859,215.754,74.6,100.6H187.391L177.131,215.691,130.9,228.5" fill="#e44d26"/>
    <path id="Path_501" data-name="Path 501" d="M256,239.656V131h46.1l-8.8,98.241" transform="translate(-125.005 -20.949)" fill="#f16529"/>
    <path id="Path_502" data-name="Path 502" d="M142,176.3h35.441v14.114H157.482l1.306,14.456h18.653v14.083H145.855m.622,7.088h14.177l.995,11.285,15.793,4.228v14.736l-28.975-8.083" transform="translate(-46.446 -52.166)" fill="#ebebeb"/>
    <path id="Path_503" data-name="Path 503" d="M291.179,176.3H255.8v14.114h34.074M288.6,204.871H255.8v14.114h17.41l-1.648,18.342L255.8,241.556V256.23l28.913-8.021" transform="translate(-124.867 -52.166)" fill="#fff"/>
  </g>
</svg>
