<svg id="Iconly_Bold_Shield_Done" data-name="Iconly/Bold/Shield Done" xmlns="http://www.w3.org/2000/svg" width="24" height="24" viewBox="0 0 24 24">
  <g id="Shield_Done" data-name="Shield Done" transform="translate(3.5 2)">
    <path id="Shield_Done-2" data-name="Shield Done" d="M8.581,20a.759.759,0,0,1-.353-.086l-3.6-1.863a8.458,8.458,0,0,1-2.446-1.817A8.25,8.25,0,0,1,.042,10.759L0,4.124A1.813,1.813,0,0,1,1.229,2.413L7.841.106A1.889,1.889,0,0,1,9.071.1l6.637,2.227a1.81,1.81,0,0,1,1.249,1.7L17,10.662a8.241,8.241,0,0,1-2.065,5.5A8.448,8.448,0,0,1,12.513,18L8.945,19.91a.787.787,0,0,1-.358.09ZM5.9,9.007a.764.764,0,0,0-.539.219.722.722,0,0,0,.007,1.039l1.916,1.843a.758.758,0,0,0,.528.212h.007a.761.761,0,0,0,.533-.219l3.9-3.844a.722.722,0,0,0-.006-1.039.769.769,0,0,0-1.067.005L7.808,10.545,6.429,9.219A.76.76,0,0,0,5.9,9.007Z" transform="translate(0)" fill="#e1defb"/>
  </g>
</svg>
