<?xml version="1.0" encoding="utf-8"?>
<!-- Generator: Adobe Illustrator 24.2.1, SVG Export Plug-In . SVG Version: 6.00 Build 0)  -->
<svg version="1.1" id="Layer_1" xmlns="http://www.w3.org/2000/svg" xmlns:xlink="http://www.w3.org/1999/xlink" x="0px" y="0px"
	 viewBox="0 0 24.4 24.4" style="enable-background:new 0 0 24.4 24.4;" xml:space="preserve">
<style type="text/css">
	.st0{fill:#FFFFFF;}
	.st1{fill:none;stroke:#FFFFFF;}
</style>
<g id="Profile" transform="translate(4 2)">
	<g id="XMLID_1_">
		<g>
			<path class="st0" d="M8.2,10.9c-2.9,0-5.4-2.3-5.4-5.2c0-2.9,2.3-5.3,5.2-5.4s5.3,2.3,5.4,5.2S11.1,10.8,8.2,10.9z M12,5.4
				c-0.1-2.1-1.8-3.8-3.9-3.8c-2.1,0-3.8,1.8-3.8,4c0,2.1,1.8,3.8,3.9,3.8C10.4,9.4,12.1,7.6,12,5.4z"/>
			<path class="st0" d="M6.2,14.5c-0.7,0.1-1.4,0.2-2.1,0.3c-0.9,0.1-1.6,0.5-2.2,1.2c-0.1,0.2-0.1,0.4-0.1,0.6c0,0.2,0,0.4,0.1,0.6
				c0.3,0.5,1,0.9,2.3,1.1l0.4,0.1c0.6,0.1,1.3,0.2,1.9,0.2c0.1,0,0.2,0,0.3,0l0.4,0c0.4,0,0.9,0,1.3,0c0.7,0,1.4-0.1,2.1-0.1
				c0.7-0.1,1.4-0.2,2.1-0.3l0.2-0.1c1.1-0.3,1.7-0.6,1.9-1.1c0.2-0.4,0.2-0.9,0-1.3c-0.3-0.5-1-0.9-2.2-1.1
				c-0.7-0.1-1.4-0.2-2.2-0.3h0c-0.7,0-1.4-0.1-2-0.1C7.6,14.4,6.9,14.4,6.2,14.5L6.2,14.5z M6.2,20.2c-0.8,0-1.6-0.1-2.3-0.3
				l-0.3-0.1c-1.2-0.1-2.4-0.8-3-1.9c-0.2-0.4-0.3-0.8-0.3-1.3c0-0.4,0.1-0.9,0.3-1.3c0.7-1.1,1.9-1.8,3.2-2
				c0.8-0.2,1.6-0.3,2.3-0.4c0.7-0.1,1.5-0.1,2.2-0.1c0.7,0,1.4,0,2.2,0.1l0.5,0c0.6,0,1.3,0.1,1.9,0.3c1.7,0.3,2.8,0.9,3.3,1.9
				c0.4,0.8,0.4,1.7,0,2.5c-0.4,1-1.5,1.6-3.2,2l-0.5,0.1c-0.6,0.1-1.2,0.2-1.9,0.3c-0.7,0.1-1.4,0.1-2.2,0.1c-0.4,0-0.9,0-1.3,0
				c-0.1,0-0.2,0-0.3,0H6.6C6.5,20.2,6.4,20.2,6.2,20.2z"/>
		</g>
		<g>
			<path class="st1" d="M7.1,20.2c-0.1,0-0.2,0-0.3,0H6.6c-0.1,0-0.3,0-0.4,0c-0.8,0-1.6-0.1-2.3-0.3l-0.3-0.1
				c-1.2-0.1-2.4-0.8-3-1.9c-0.2-0.4-0.3-0.8-0.3-1.3c0-0.4,0.1-0.9,0.3-1.3c0.7-1.1,1.9-1.8,3.2-2c0.8-0.2,1.6-0.3,2.3-0.4
				c0.7-0.1,1.5-0.1,2.2-0.1c0.7,0,1.4,0,2.2,0.1l0.5,0c0.6,0,1.3,0.1,1.9,0.3c1.7,0.3,2.8,0.9,3.3,1.9c0.4,0.8,0.4,1.7,0,2.5
				c-0.4,1-1.5,1.6-3.2,2l-0.5,0.1c-0.6,0.1-1.2,0.2-1.9,0.3c-0.7,0.1-1.4,0.1-2.2,0.1C7.9,20.2,7.5,20.2,7.1,20.2z"/>
			<path class="st1" d="M6.2,14.5c-0.7,0.1-1.4,0.2-2.1,0.3c-0.9,0.1-1.6,0.5-2.2,1.2c-0.1,0.2-0.1,0.4-0.1,0.6c0,0.2,0,0.4,0.1,0.6
				c0.3,0.5,1,0.9,2.3,1.1l0.4,0.1c0.6,0.1,1.3,0.2,1.9,0.2c0.1,0,0.2,0,0.3,0l0.4,0c0.4,0,0.9,0,1.3,0c0.7,0,1.4-0.1,2.1-0.1
				c0.7-0.1,1.4-0.2,2.1-0.3l0.2-0.1c1.1-0.3,1.7-0.6,1.9-1.1c0.2-0.4,0.2-0.9,0-1.3c-0.3-0.5-1-0.9-2.2-1.1
				c-0.7-0.1-1.4-0.2-2.2-0.3h0c-0.7,0-1.4-0.1-2-0.1C7.6,14.4,6.9,14.4,6.2,14.5L6.2,14.5z"/>
			<path class="st1" d="M2.8,5.6c0-2.9,2.3-5.3,5.2-5.4s5.3,2.3,5.4,5.2s-2.3,5.3-5.2,5.4C5.3,10.9,2.9,8.6,2.8,5.6z"/>
			<path class="st1" d="M4.3,5.6c0,2.1,1.8,3.8,3.9,3.8c2.1,0,3.8-1.8,3.8-4c-0.1-2.1-1.8-3.8-3.9-3.8C5.9,1.7,4.2,3.5,4.3,5.6z"/>
		</g>
	</g>
</g>
</svg>
