<svg id="Iconly_Bold_Edit_Square" data-name="Iconly/Bold/Edit Square" xmlns="http://www.w3.org/2000/svg" width="24" height="24" viewBox="0 0 24 24">
  <g id="Edit_Square" data-name="Edit Square" transform="translate(2 2)">
    <path id="Edit_Square-2" data-name="Edit Square" d="M15,20c-.11,0-.222,0-.332-.01H5.335C5.225,20,5.112,20,5,20a5.321,5.321,0,0,1-3.6-1.4A5.371,5.371,0,0,1,.01,14.666V5.335A5.372,5.372,0,0,1,1.4,1.4,5.328,5.328,0,0,1,5,0c.11,0,.221,0,.331.01h9.33c.109-.007.219-.01.328-.01a5.317,5.317,0,0,1,3.6,1.4,5.416,5.416,0,0,1,1.4,3.937v9.33A5.4,5.4,0,0,1,18.6,18.6,5.323,5.323,0,0,1,15,20ZM10.38,6.464a.214.214,0,0,0-.15.059L5.465,11.289a1.8,1.8,0,0,0-.529,1.238L4.875,14.9a.467.467,0,0,0,.13.339.478.478,0,0,0,.34.14H7.692a1.84,1.84,0,0,0,1.289-.53L15.7,8.1a1.586,1.586,0,0,0,0-2.228l-1.3-1.3a1.58,1.58,0,0,0-2.237,0l-.67.68a.265.265,0,0,0,0,.369c.016.016,1.589,1.579,1.618,1.619a.678.678,0,0,1,.18.459.66.66,0,0,1-.659.66.626.626,0,0,1-.44-.18L10.529,6.523A.212.212,0,0,0,10.38,6.464Z" transform="translate(0 0)" fill="#6e6e6e"/>
  </g>
</svg>
