<svg id="Iconly_Bold_Play" data-name="Iconly/Bold/Play" xmlns="http://www.w3.org/2000/svg" width="20" height="20" viewBox="0 0 20 20">
  <g id="Play" transform="translate(0 0)">
    <path id="Play-2" data-name="Play" d="M10,20a10,10,0,1,1,10-9.994A10.008,10.008,0,0,1,10,20ZM8.861,6.03a1.338,1.338,0,0,0-.608.145,1.252,1.252,0,0,0-.541.6,6.314,6.314,0,0,0-.174.7A15.391,15.391,0,0,0,7.375,10a17.717,17.717,0,0,0,.145,2.441,1.1,1.1,0,0,1,.024.11,3.911,3.911,0,0,0,.207.768,1.21,1.21,0,0,0,1.072.656h.039a3.188,3.188,0,0,0,.9-.27,14.727,14.727,0,0,0,3.851-2.624l.058-.058a3.94,3.94,0,0,0,.27-.309,1.161,1.161,0,0,0,.231-.7,1.217,1.217,0,0,0-.251-.754l-.063-.068c-.064-.07-.162-.176-.254-.269A14.777,14.777,0,0,0,9.662,6.251,3.356,3.356,0,0,0,8.861,6.03Z" fill="#704ed4"/>
  </g>
</svg>
