<svg id="Iconly_Light_Profile" data-name="Iconly/Light/Profile" xmlns="http://www.w3.org/2000/svg" width="34" height="34" viewBox="0 0 34 34">
  <g id="Profile" transform="translate(5.667 3.542)">
    <circle id="Ellipse_736" cx="6.769" cy="6.769" r="6.769" transform="translate(3.968 0)" fill="none" stroke="#fff" stroke-linecap="round" stroke-linejoin="round" stroke-miterlimit="10" stroke-width="2"/>
    <path id="Path_33945" d="M0,4.273A3.138,3.138,0,0,1,.311,2.9C.96,1.6,2.788.914,4.305.6A23.782,23.782,0,0,1,7.625.136a35.491,35.491,0,0,1,6.211,0A24.054,24.054,0,0,1,17.156.6c1.517.311,3.346.934,3.994,2.3a3.216,3.216,0,0,1,0,2.762c-.648,1.362-2.477,1.984-3.994,2.282a22.265,22.265,0,0,1-3.32.48A36.58,36.58,0,0,1,8.779,8.5a5.76,5.76,0,0,1-1.154-.078,21.85,21.85,0,0,1-3.307-.48C2.788,7.644.973,7.022.311,5.66A3.229,3.229,0,0,1,0,4.273Z" transform="translate(0 18.679)" fill="none" stroke="#fff" stroke-linecap="round" stroke-linejoin="round" stroke-miterlimit="10" stroke-width="2"/>
  </g>
</svg>
