<svg id="Iconly_Bold_Notification" data-name="Iconly/Bold/Notification" xmlns="http://www.w3.org/2000/svg" width="35" height="35" viewBox="0 0 35 35">
  <g id="Notification" transform="translate(5.104 2.917)">
    <path id="Notification-2" data-name="Notification" d="M11.642,29.118a5.278,5.278,0,0,1-2.5-1.068,2.262,2.262,0,0,1-1.015-1.71c0-.735.673-1.071,1.3-1.215a37.85,37.85,0,0,1,5.9,0c.623.144,1.3.48,1.3,1.215a2.265,2.265,0,0,1-1.013,1.711,5.3,5.3,0,0,1-2.5,1.067,5.826,5.826,0,0,1-.746.049A5.347,5.347,0,0,1,11.642,29.118ZM5.489,22.965A6.613,6.613,0,0,1,1.26,20.9,5.271,5.271,0,0,1,0,17.435a4.912,4.912,0,0,1,1.066-3.369,5.538,5.538,0,0,0,1.55-4.155V9.29A8.2,8.2,0,0,1,4.487,3.663,10.315,10.315,0,0,1,12.331,0h.131a10.268,10.268,0,0,1,7.972,3.827A8.087,8.087,0,0,1,22.177,9.29v.621a5.671,5.671,0,0,0,1.549,4.155,4.905,4.905,0,0,1,1.066,3.369A5.27,5.27,0,0,1,23.533,20.9,6.619,6.619,0,0,1,19.3,22.965c-2.292.194-4.585.36-6.908.36A60.8,60.8,0,0,1,5.489,22.965Z" transform="translate(0 0)" fill="#695adc"/>
  </g>
</svg>
