<svg xmlns="http://www.w3.org/2000/svg" width="826" height="640.566" viewBox="0 0 826 640.566">
  <g id="Group_126" data-name="Group 126" transform="translate(-393 -3027)">
    <g id="Group_125" data-name="Group 125" transform="translate(393 3027)">
      <g id="Group_124" data-name="Group 124">
        <g id="Group_123" data-name="Group 123">
          <path id="Path_508" data-name="Path 508" d="M315.261,328.367,640.838,140.393l212.18,144.565L545.358,462.585a20.087,20.087,0,0,1-20.084,0L315.261,341.331A7.484,7.484,0,0,1,315.261,328.367Z" transform="translate(-300.491 -14.048)" fill="#efefef"/>
          <g id="Group_102" data-name="Group 102" transform="translate(214.996 488.777)">
            <path id="Path_509" data-name="Path 509" d="M550.11,417.239,360.57,307.807c-4.1-2.366-3.585-6.5,1.147-9.231h0c4.734-2.733,11.893-3.029,15.991-.664l189.54,109.433c4.1,2.366,3.585,6.5-1.147,9.231h0C561.367,419.309,554.208,419.605,550.11,417.239Z" transform="translate(-346.671 -274.092)" fill="#efefef"/>
            <g id="Group_101" data-name="Group 101">
              <path id="Path_510" data-name="Path 510" d="M444.459,287.633h0a.646.646,0,0,1,.693-.313l9,1.86-3.478,6.052-6.138-6.841A.647.647,0,0,1,444.459,287.633Z" transform="translate(-444.372 -287.306)" fill="#d4ecff"/>
              <g id="Group_96" data-name="Group 96" transform="translate(3.672 0.935)">
                <path id="Path_511" data-name="Path 511" d="M433.216,291.481a4.486,4.486,0,0,1,2.025-3.523,1.47,1.47,0,0,1,1.345-.18,57.356,57.356,0,0,1,29.611,7.616l.651.375-10.966,19.087-3.316-2.151a57.32,57.32,0,0,1-17.392-17.681l-1.433-2.289A1.457,1.457,0,0,1,433.216,291.481Z" transform="translate(-433.216 -287.685)" fill="#5793ce"/>
                <path id="Path_512" data-name="Path 512" d="M432.287,305.32a17.209,17.209,0,0,1,7.756-13.5c4.293-2.489,7.783-.486,7.793,4.478a17.2,17.2,0,0,1-7.756,13.5C435.788,312.289,432.3,310.283,432.287,305.32Z" transform="translate(-411.912 -283.185)" fill="#d4ecff"/>
                <path id="Path_513" data-name="Path 513" d="M484.2,362.4l-87.1-52.352,10.967-19.088,89.095,48.885Z" transform="translate(-374.434 -282.879)" fill="#d4ecff"/>
                <path id="Path_514" data-name="Path 514" d="M396,327.745c-.012-5.866,4.09-13.006,9.165-15.949s9.194-.575,9.207,5.292-4.09,13-9.162,15.947S396.016,333.609,396,327.745Z" transform="translate(-288.942 -254.171)" fill="#d4ecff"/>
              </g>
              <g id="Group_97" data-name="Group 97" transform="translate(114.532 59.478)">
                <path id="Path_515" data-name="Path 515" d="M394.464,328.63c-.012-5.867,4.09-13.006,9.165-15.949s9.195-.575,9.207,5.289-4.09,13.006-9.162,15.949S394.476,334.494,394.464,328.63Z" transform="translate(-394.464 -311.416)" fill="#d4ecff"/>
                <rect id="Rectangle_23" data-name="Rectangle 23" width="101.605" height="26.013" transform="matrix(-0.867, -0.498, 0.498, -0.867, 90.805, 73.78)" fill="#d4ecff"/>
                <path id="Path_516" data-name="Path 516" d="M358.753,349.148c-.012-5.864,4.09-13.006,9.165-15.949s9.194-.575,9.207,5.292-4.09,13.006-9.162,15.949S358.765,355.012,358.753,349.148Z" transform="translate(-270.655 -281.317)" fill="#d4ecff"/>
                <path id="Path_517" data-name="Path 517" d="M360.09,344.423c.168-3.464,2.943-7.8,6.2-9.693s5.76-.614,5.6,2.849-2.946,7.8-6.2,9.693S359.922,347.886,360.09,344.423Z" transform="translate(-268.703 -278.498)" fill="#396caa"/>
              </g>
              <g id="Group_98" data-name="Group 98" transform="translate(108.054 55.731)">
                <path id="Path_518" data-name="Path 518" d="M396.275,327.589c-.012-5.864,4.09-13.006,9.162-15.949s9.2-.575,9.209,5.292-4.09,13-9.165,15.947S396.287,333.453,396.275,327.589Z" transform="translate(-394.264 -309.196)" fill="#5793ce"/>
                <path id="Path_519" data-name="Path 519" d="M399.807,328.29c-.012-5.864,4.09-13.006,9.162-15.949a7.2,7.2,0,0,1,5.457-1.076c-1.675-1.715-4.394-1.892-7.468-.109-5.072,2.943-9.175,10.082-9.162,15.949.007,3.5,1.485,5.743,3.752,6.365A7.255,7.255,0,0,1,399.807,328.29Z" transform="translate(-397.796 -309.897)" fill="#fff"/>
                <rect id="Rectangle_24" data-name="Rectangle 24" width="5.757" height="26.013" transform="matrix(-0.867, -0.498, 0.498, -0.867, 9.708, 27.209)" fill="#5793ce"/>
                <path id="Path_520" data-name="Path 520" d="M394.252,328.752c-.012-5.866,4.09-13.006,9.165-15.949s9.194-.575,9.207,5.289-4.09,13.006-9.162,15.949S394.264,334.616,394.252,328.752Z" transform="translate(-387.251 -307.49)" fill="#d4ecff"/>
              </g>
              <g id="Group_99" data-name="Group 99" transform="translate(208.899 117.971)">
                <path id="Path_521" data-name="Path 521" d="M352.208,344.965l5.59-9.732,18.673,10.729a5.611,5.611,0,0,1,2.07,7.662h0a5.61,5.61,0,0,1-7.66,2.07Z" transform="translate(-351.039 -334.971)" fill="#744ed5"/>
                <path id="Path_522" data-name="Path 522" d="M360.446,342.553a8.777,8.777,0,0,1,3.955-6.88c2.188-1.27,3.967-.247,3.972,2.282a8.768,8.768,0,0,1-3.952,6.883C362.232,346.105,360.453,345.084,360.446,342.553Z" transform="translate(-360.446 -335.127)" fill="#744ed5"/>
              </g>
              <g id="Group_100" data-name="Group 100" transform="translate(136.587 64.054)">
                <path id="Path_523" data-name="Path 523" d="M412.745,340.667l2.768-1.606c1.591-.92,3.708-.715,5.963.58l9.594,5.511a7.26,7.26,0,0,1,3.293,5.677l.01,4.776a3.923,3.923,0,0,0,.984,2.388l-.336,2.218,2.366-1.386,0,0a1.226,1.226,0,0,0,.555-1.167l-.01-4.776a15.147,15.147,0,0,0-6.866-11.834l-9.6-5.514c-3.2-1.84-6.217-2.134-8.479-.822l-2.768,1.606c-1.589.923-3.708.718-5.96-.577l-38.68-22.225a1.244,1.244,0,0,0-1.273-.111v0l-2.358,1.382,2.038.762a3.931,3.931,0,0,0,1.6,2.08l38.68,22.225C407.474,341.688,410.486,341.979,412.745,340.667Z" transform="translate(-361.405 -313.271)" fill="#5793ce"/>
                <path id="Path_524" data-name="Path 524" d="M414.632,339.631c1.591-.923,3.708-.718,5.963.577l9.594,5.514a7.266,7.266,0,0,1,3.293,5.677l.01,4.776a3.933,3.933,0,0,0,1.786,3.079c.984.565,1.781.1,1.779-1.031l-.01-4.776a15.139,15.139,0,0,0-6.866-11.834l-9.6-5.514c-3.2-1.843-6.217-2.134-8.479-.822l-2.768,1.606c-1.589.923-3.708.715-5.963-.58L364.7,314.08c-.982-.565-1.779-.1-1.776,1.031a3.933,3.933,0,0,0,1.786,3.079l38.68,22.225c3.207,1.843,6.217,2.134,8.479.822Z" transform="translate(-362.919 -312.437)" fill="#5793ce"/>
              </g>
            </g>
            <path id="Path_525" data-name="Path 525" d="M371.9,358.126l-17.686-10.211c-2.132-1.231-1.865-3.382.6-4.806h0c2.465-1.421,6.19-1.576,8.321-.343l17.686,10.211c2.134,1.231,1.865,3.382-.6,4.8h0C377.761,359.2,374.036,359.358,371.9,358.126Z" transform="translate(-146.516 -207.169)" fill="#efefef"/>
          </g>
          <g id="Group_107" data-name="Group 107" transform="translate(0 110.029)">
            <g id="Group_103" data-name="Group 103" transform="translate(254.449)">
              <path id="Path_526" data-name="Path 526" d="M336.02,149.708c-.012-14.2,9.991-19.992,22.3-12.9l209.2,120.531a13.537,13.537,0,0,1,6.135,10.6c0,3.905-2.738,5.489-6.123,3.54l-209.2-120.531c-5.551-3.2-10.063-.587-10.055,5.82l.02,23.394c-4.058-.252-8.134-.257-12.249-.185Z" transform="translate(-336.02 -133.779)" fill="#ff2c9c"/>
              <path id="Path_527" data-name="Path 527" d="M567.549,286.1l-209.2-76.232c-12.308-7.09-22.331-24.416-22.343-38.618l-.017-18.722c4.115-.072,8.19-.067,12.249.185l.025,25.6c0,6.407,4.524,14.217,10.075,17.417l209.2,76.232a13.541,13.541,0,0,1,6.133,10.6C573.672,286.467,570.931,288.05,567.549,286.1Z" transform="translate(-335.962 -106.33)" fill="#d3008d"/>
            </g>
            <path id="Path_528" data-name="Path 528" d="M823.663,219.475,569.181,366.728,353.725,238.236l-17.094-25.512,1.774,9.039L343,198.1l399.944,15.255,70.465-4.539Z" transform="translate(-333.09 -39.423)" fill="#5738a5"/>
            <path id="Path_529" data-name="Path 529" d="M592.554,188.751l.069,31.325-245.954,142.3-6.645-29.855Z" transform="translate(-110.422 -53.136)" fill="#bca5f6"/>
            <path id="Path_530" data-name="Path 530" d="M336.726,281.427l254.077-147L819.879,267.647l.473,3.272L565.9,418.13Z" transform="translate(-330.015 -132.822)" fill="#744ed5"/>
            <g id="Group_104" data-name="Group 104" transform="translate(18.944 160.346)">
              <path id="Path_531" data-name="Path 531" d="M508.454,262.523l-59.74-35.438c-5.03-3.535-8.977-10.685-8.982-16.659l-.044-4.692c-.005-3.8,1.586-6.244,4.029-6.957l117.6,65.422,95.766,51.794-.089,31.674Z" transform="translate(-439.687 -198.776)" fill="#fff"/>
            </g>
            <path id="Path_532" data-name="Path 532" d="M336.02,337.839,588.485,191.777l5.351-3.1,4.889-2.827a12.339,12.339,0,0,1,1.628,5.694c0,1.919-.666,3.269-1.742,3.925l0,.01-.04.025-.017.01L344.161,342.694Z" transform="translate(-108.274 -57.386)" fill="#5738a5"/>
            <path id="Path_533" data-name="Path 533" d="M442.259,266.144l-3.173,1.836-.585-1.011,1.977-1.555Z" transform="translate(-202.994 59.326)" fill="#fff"/>
            <path id="Path_534" data-name="Path 534" d="M441.785,248.655l-3.252,1.881.815-1.775Z" transform="translate(-202.603 34.741)" fill="#fff"/>
            <g id="Group_105" data-name="Group 105" transform="translate(0 147.211)">
              <path id="Path_535" data-name="Path 535" d="M670.627,317.011,461.43,196.48c-12.308-7.09-22.311-1.3-22.3,12.9l.044,4.692c.012,14.2,10.036,31.528,22.343,38.62l209.2,120.531c3.382,1.949,6.123.363,6.121-3.543a13.545,13.545,0,0,0-6.133-10.6l-209.2-120.531c-5.551-3.2-10.07-11.01-10.075-17.417l-.044-4.692c-.007-6.407,4.5-9.017,10.055-5.817l209.2,120.531c3.385,1.949,6.125.363,6.123-3.543A13.542,13.542,0,0,0,670.627,317.011Z" transform="translate(-439.131 -193.451)" fill="#744ed5"/>
            </g>
            <path id="Path_536" data-name="Path 536" d="M606.871,233.413,498.162,170.779l-94.281,54.546,108.709,62.634Z" transform="translate(-282.204 -79.5)" fill="#fff"/>
            <g id="Group_106" data-name="Group 106" transform="translate(8.301 145.278)">
              <path id="Path_537" data-name="Path 537" d="M663.224,360.246a13.545,13.545,0,0,0-6.133-10.6l-209.2-120.531c-5.551-3.2-10.07-11.01-10.075-17.417l-.044-4.692c0-4.194,1.934-6.747,4.828-7.122a8.441,8.441,0,0,0-1.478,5.183l.044,4.692c.007,6.407,4.527,14.22,10.078,17.417l209.2,120.531a13.537,13.537,0,0,1,6.135,10.6c0,2.96-1.574,4.579-3.809,4.344A5.914,5.914,0,0,0,663.224,360.246Z" transform="translate(-433.817 -182.084)" fill="#fff"/>
              <path id="Path_538" data-name="Path 538" d="M667.134,328.761a13.542,13.542,0,0,0-6.135-10.6L451.8,197.629c-5.3-3.054-10.169-3.705-14-2.339,4.09-3.488,10.342-3.636,17.348.4l209.2,120.531a13.538,13.538,0,0,1,6.133,10.6c0,2.96-1.574,4.579-3.809,4.344A5.906,5.906,0,0,0,667.134,328.761Z" transform="translate(-437.804 -192.668)" fill="#fff"/>
            </g>
          </g>
          <g id="Group_112" data-name="Group 112" transform="translate(8.373 16.783)">
            <g id="Group_108" data-name="Group 108" transform="translate(254.449)">
              <path id="Path_539" data-name="Path 539" d="M332.627,111.91c-.012-14.2,9.989-19.99,22.3-12.9l209.2,120.531a13.541,13.541,0,0,1,6.133,10.6c0,3.905-2.738,5.491-6.121,3.54l-209.2-120.531c-5.551-3.2-10.06-.587-10.055,5.82l.022,23.394c-4.061-.252-8.134-.257-12.249-.185Z" transform="translate(-332.627 -95.981)" fill="#d4ecff"/>
              <path id="Path_540" data-name="Path 540" d="M564.154,248.3l-209.2-76.232c-12.308-7.09-22.331-24.413-22.343-38.618l-.017-18.722c4.115-.072,8.188-.067,12.249.185l.022,25.6c.005,6.407,4.524,14.217,10.075,17.417l209.2,76.232a13.534,13.534,0,0,1,6.133,10.6C570.279,248.666,567.538,250.252,564.154,248.3Z" transform="translate(-332.569 -68.533)" fill="#5793ce"/>
            </g>
            <path id="Path_541" data-name="Path 541" d="M820.27,181.678,565.788,328.931,350.331,200.438l-17.094-25.511,1.775,9.039,4.593-23.665,399.944,15.255,70.465-4.539Z" transform="translate(-329.699 -1.626)" fill="#5793ce"/>
            <path id="Path_542" data-name="Path 542" d="M589.161,150.953l.069,31.326-245.954,142.3-6.645-29.855Z" transform="translate(-107.03 -15.339)" fill="#86b8e0"/>
            <path id="Path_543" data-name="Path 543" d="M333.333,243.629,587.41,96.634,816.486,229.849l.473,3.272L562.508,380.332Z" transform="translate(-326.624 -95.024)" fill="#d4ecff"/>
            <g id="Group_109" data-name="Group 109" transform="translate(18.941 160.345)">
              <path id="Path_544" data-name="Path 544" d="M505.061,224.725l-59.738-35.438c-5.033-3.535-8.98-10.684-8.985-16.66l-.044-4.692c0-3.8,1.586-6.244,4.031-6.957l117.6,65.422,95.766,51.794-.089,31.673Z" transform="translate(-436.294 -160.978)" fill="#fff"/>
            </g>
            <path id="Path_545" data-name="Path 545" d="M332.627,300.041,585.09,153.979l5.353-3.1,4.887-2.827a12.34,12.34,0,0,1,1.628,5.694c0,1.919-.666,3.271-1.742,3.925v.01l-.042.025-.017.01L340.765,304.9Z" transform="translate(-104.881 -19.589)" fill="#5793ce"/>
            <path id="Path_546" data-name="Path 546" d="M438.865,228.346l-3.173,1.836-.585-1.011,1.976-1.555Z" transform="translate(-199.603 97.123)" fill="#fff"/>
            <path id="Path_547" data-name="Path 547" d="M438.392,210.857l-3.251,1.881.815-1.775Z" transform="translate(-199.212 72.538)" fill="#fff"/>
            <g id="Group_110" data-name="Group 110" transform="translate(0 147.21)">
              <path id="Path_548" data-name="Path 548" d="M667.234,279.213l-209.2-120.531c-12.308-7.09-22.309-1.3-22.3,12.9l.044,4.692c.012,14.2,10.036,31.528,22.341,38.62l209.2,120.529c3.382,1.951,6.125.365,6.12-3.54a13.534,13.534,0,0,0-6.133-10.6l-209.2-120.531c-5.551-3.2-10.07-11.01-10.075-17.417l-.044-4.692c-.005-6.407,4.5-9.014,10.055-5.817l209.2,120.531c3.382,1.949,6.123.363,6.121-3.543A13.545,13.545,0,0,0,667.234,279.213Z" transform="translate(-435.738 -155.653)" fill="#d4ecff"/>
            </g>
            <path id="Path_549" data-name="Path 549" d="M603.478,195.615,494.769,132.982l-94.281,54.546L509.2,250.161Z" transform="translate(-278.812 -41.703)" fill="#fff"/>
            <g id="Group_111" data-name="Group 111" transform="translate(8.299 145.277)">
              <path id="Path_550" data-name="Path 550" d="M659.831,322.447a13.535,13.535,0,0,0-6.133-10.6L444.5,191.315c-5.551-3.2-10.07-11.01-10.075-17.417l-.044-4.692c-.005-4.194,1.934-6.747,4.828-7.12a8.411,8.411,0,0,0-1.475,5.181l.042,4.692c.007,6.407,4.527,14.22,10.078,17.417l209.2,120.531a13.541,13.541,0,0,1,6.133,10.6c0,2.96-1.574,4.579-3.809,4.344A5.872,5.872,0,0,0,659.831,322.447Z" transform="translate(-430.424 -144.284)" fill="#fff"/>
              <path id="Path_551" data-name="Path 551" d="M663.741,290.963a13.541,13.541,0,0,0-6.135-10.6l-209.2-120.531c-5.3-3.054-10.166-3.705-14-2.339,4.09-3.488,10.342-3.636,17.35.4l209.2,120.531a13.532,13.532,0,0,1,6.133,10.6c0,2.96-1.571,4.579-3.807,4.344A5.906,5.906,0,0,0,663.741,290.963Z" transform="translate(-434.411 -154.87)" fill="#fff"/>
            </g>
          </g>
          <g id="Group_116" data-name="Group 116" transform="translate(208.415)">
            <path id="Path_552" data-name="Path 552" d="M442.347,521.054,737.688,350.537c8.353-4.823,7.307-13.248-2.341-18.818L534.242,215.648c-9.648-5.568-24.24-6.172-32.6-1.349L206.3,384.813c-8.356,4.823-7.307,13.25,2.341,18.821L409.751,519.7C419.4,525.27,433.992,525.877,442.347,521.054Z" transform="translate(-125.743 89.593)" fill="#efefef"/>
            <path id="Path_553" data-name="Path 553" d="M313.489,261.52,608.83,91a11.929,11.929,0,0,1,10.008-1.226l-.017-.03.535.2c.044.017.089.03.131.049l10.675,4.083-9.579,4.692c.042.175.1.34.136.521l48.106,218.976c2.408,10.958-2.413,23.754-10.768,28.577L369.82,513.263l1.026,12.214-11.664-4.522c-3.92-1.833-7.058-5.977-8.356-11.881L302.72,290.1C300.313,279.137,305.136,266.343,313.489,261.52Z" transform="translate(-302.101 -89.178)" fill="#173d7a"/>
            <path id="Path_554" data-name="Path 554" d="M318.328,261.52,613.669,91a11.929,11.929,0,0,1,10.008-1.226l-.017-.03.535.2c.044.017.089.03.131.049L635,94.082l-9.579,4.692c.042.175.1.34.136.521l31.706,144.318L512.757,356.2,309,273.288C310.959,268.213,314.21,263.9,318.328,261.52Z" transform="translate(-306.94 -89.178)" fill="#396caa"/>
            <path id="Path_555" data-name="Path 555" d="M455.386,191.76,432.9,182.188c-.412-8.706,3.192-17.7,9.108-22.511l35.589,14.97Z" transform="translate(-432.86 14.242)" fill="#274f89"/>
            <path id="Path_556" data-name="Path 556" d="M362.858,521.869,658.2,351.352c8.356-4.823,13.176-17.617,10.768-28.575L620.861,103.8c-2.408-10.958-11.131-15.932-19.487-11.109L306.034,263.2c-8.353,4.825-13.176,17.619-10.768,28.577L343.371,510.76C345.779,521.718,354.5,526.692,362.858,521.869Z" transform="translate(-283.853 -86.73)" fill="#d4ecff"/>
            <path id="Path_557" data-name="Path 557" d="M330.119,262.771,625.46,92.256a11.675,11.675,0,0,1,11.629-.506,12.145,12.145,0,0,0-8.795,1.544L332.954,263.807c-8.353,4.825-13.176,17.619-10.768,28.577l48.106,218.976c1.241,5.649,4.177,9.668,7.857,11.615-4.986-1.091-9.148-5.612-10.692-12.651L319.351,291.349C316.943,280.39,321.763,267.594,330.119,262.771Z" transform="translate(-310.773 -87.333)" fill="#fff"/>
            <path id="Path_558" data-name="Path 558" d="M361.987,496.029,639.751,335.742c7.645-4.416,12.056-16.122,9.853-26.152L605.584,109.21c-2.2-10.028-10.186-14.58-17.831-10.166L309.988,259.333c-7.645,4.413-12.056,16.122-9.853,26.147l44.021,200.382C346.359,495.891,354.342,500.442,361.987,496.029Z" transform="translate(-276.58 -77.179)" fill="#fff"/>
            <path id="Path_559" data-name="Path 559" d="M361.987,496.029,639.751,335.742c7.645-4.416,12.056-16.122,9.853-26.152L605.584,109.21c-2.2-10.028-10.186-14.58-17.831-10.166L309.988,259.333c-7.645,4.413-12.056,16.122-9.853,26.147l44.021,200.382C346.359,495.891,354.342,500.442,361.987,496.029Z" transform="translate(-276.58 -77.179)" fill="#173d7a"/>
            <path id="Path_560" data-name="Path 560" d="M307.981,494.852,585.745,334.566c7.645-4.413,12.056-16.122,9.853-26.147L551.577,108.033c-1.115-5.075-3.715-8.731-7-10.546,4.4,1.132,8.042,5.26,9.419,11.533L598.018,309.4c2.2,10.031-2.208,21.737-9.853,26.152L310.4,495.839a10.677,10.677,0,0,1-10.833.382A11.068,11.068,0,0,0,307.981,494.852Z" transform="translate(-224.994 -76.989)" fill="#5793ce"/>
            <path id="Path_561" data-name="Path 561" d="M200.676,363.151l40.372-5.331,260.6-150.461c8.356-4.823,22.948-4.219,32.6,1.352L718.91,315.287l24.411-3.224v13.852l-.025,0c.16,3.2-1.663,6.281-5.6,8.555L442.353,504.99c-8.356,4.823-22.95,4.219-32.6-1.352L208.651,387.569c-5.427-3.133-8.134-7.171-7.976-10.963h0Z" transform="translate(-125.748 79.414)" fill="#173d7a"/>
            <path id="Path_562" data-name="Path 562" d="M200.669,236.391,219.186,225.7H422.743L523.1,283.6l24.411-3.224V294.23l-.025,0c.16,3.2-1.663,6.281-5.6,8.555L246.537,473.3c-4.416,2.548-10.573,3.567-16.822,3.153Z" transform="translate(70.067 111.099)" fill="#396caa"/>
            <path id="Path_563" data-name="Path 563" d="M200.669,249.3l10.832-1.431v13.852l-.025,0c.16,3.2-1.663,6.281-5.6,8.555l-5.205,3.007Z" transform="translate(406.071 143.611)" fill="#5793ce"/>
            <path id="Path_564" data-name="Path 564" d="M351.571,346.024c-7.919,3-19.242,2.349-27.7-1.719v-30.9h27.7Z" transform="translate(-37.941 239.761)" fill="#274f89"/>
            <path id="Path_565" data-name="Path 565" d="M442.347,504.808,737.688,334.293c8.353-4.825,7.307-13.25-2.341-18.821L534.242,199.4c-9.648-5.57-24.24-6.175-32.6-1.352L206.3,368.567c-8.356,4.825-7.307,13.25,2.341,18.821L409.751,503.456C419.4,509.027,433.992,509.631,442.347,504.808Z" transform="translate(-125.743 65.761)" fill="#d4ecff"/>
            <path id="Path_566" data-name="Path 566" d="M208.634,305.764,409.739,421.832c9.646,5.57,24.241,6.175,32.6,1.352L737.676,252.669a10.989,10.989,0,0,0,5.193-5.681c1.307,3.952-.36,7.949-5.193,10.741L442.335,428.244c-8.356,4.823-22.95,4.218-32.6-1.352L208.634,310.823c-6.486-3.745-9.064-8.775-7.534-13.139C202.049,300.563,204.568,303.418,208.634,305.764Z" transform="translate(-125.731 142.325)" fill="#fff"/>
            <g id="Group_113" data-name="Group 113" transform="translate(105.068 271.058)">
              <path id="Path_567" data-name="Path 567" d="M269.141,240.251l13.364-7.714c1.073-.619.937-1.7-.3-2.418l-15.774-9.106a4.655,4.655,0,0,0-4.186-.175l-13.361,7.717c-1.073.619-.94,1.7.3,2.415l15.774,9.108A4.654,4.654,0,0,0,269.141,240.251Z" transform="translate(112.123 -167.706)" fill="#5793ce"/>
              <path id="Path_568" data-name="Path 568" d="M277.507,245.081l13.364-7.717c1.071-.619.937-1.7-.3-2.415L274.8,225.842a4.654,4.654,0,0,0-4.186-.173l-13.361,7.714c-1.073.619-.94,1.7.3,2.418l15.774,9.106A4.654,4.654,0,0,0,277.507,245.081Z" transform="translate(83.122 -160.622)" fill="#5793ce"/>
              <path id="Path_569" data-name="Path 569" d="M285.872,249.91l13.361-7.714c1.073-.619.94-1.7-.3-2.418l-15.774-9.106a4.654,4.654,0,0,0-4.186-.175l-13.364,7.717c-1.071.619-.937,1.7.3,2.415l15.774,9.108A4.654,4.654,0,0,0,285.872,249.91Z" transform="translate(54.12 -153.537)" fill="#5793ce"/>
              <path id="Path_570" data-name="Path 570" d="M294.908,245.053l13.364-7.717c1.073-.619.937-1.7-.3-2.415l-13.24-7.645a4.654,4.654,0,0,0-4.187-.173l-13.361,7.714c-1.073.619-.94,1.7.3,2.418l13.243,7.643A4.649,4.649,0,0,0,294.908,245.053Z" transform="translate(16.542 -158.518)" fill="#5793ce"/>
              <path id="Path_571" data-name="Path 571" d="M303.273,249.881l13.364-7.714c1.073-.619.937-1.7-.3-2.418l-13.24-7.643a4.654,4.654,0,0,0-4.186-.175l-13.364,7.717c-1.071.619-.937,1.7.3,2.415l13.24,7.645A4.654,4.654,0,0,0,303.273,249.881Z" transform="translate(-12.46 -151.433)" fill="#5793ce"/>
              <path id="Path_572" data-name="Path 572" d="M311.639,254.712,325,247c1.073-.622.937-1.7-.3-2.418l-13.24-7.645a4.654,4.654,0,0,0-4.186-.173l-13.364,7.714c-1.073.619-.937,1.7.3,2.418l13.24,7.645A4.661,4.661,0,0,0,311.639,254.712Z" transform="translate(-41.462 -144.349)" fill="#5793ce"/>
              <path id="Path_573" data-name="Path 573" d="M320,259.542l13.364-7.717c1.073-.619.937-1.7-.3-2.415l-13.24-7.645a4.655,4.655,0,0,0-4.186-.175l-13.364,7.717c-1.073.619-.937,1.7.3,2.415l13.24,7.645A4.655,4.655,0,0,0,320,259.542Z" transform="translate(-70.464 -137.264)" fill="#5793ce"/>
              <path id="Path_574" data-name="Path 574" d="M328.369,264.371l13.364-7.714c1.073-.619.938-1.7-.3-2.418l-13.24-7.645a4.654,4.654,0,0,0-4.186-.173l-13.364,7.714c-1.073.622-.937,1.7.3,2.418l13.24,7.645A4.654,4.654,0,0,0,328.369,264.371Z" transform="translate(-99.465 -130.179)" fill="#5793ce"/>
              <path id="Path_575" data-name="Path 575" d="M336.735,269.2l13.364-7.717c1.071-.619.937-1.7-.3-2.415l-13.24-7.645a4.654,4.654,0,0,0-4.186-.173l-13.364,7.714c-1.073.619-.937,1.7.3,2.418l13.24,7.643A4.654,4.654,0,0,0,336.735,269.2Z" transform="translate(-128.467 -123.093)" fill="#5793ce"/>
              <path id="Path_576" data-name="Path 576" d="M345.1,274.029l13.361-7.714c1.073-.619.94-1.7-.3-2.418l-13.24-7.643a4.655,4.655,0,0,0-4.187-.175L327.372,263.8c-1.073.619-.937,1.7.3,2.415l13.24,7.645A4.654,4.654,0,0,0,345.1,274.029Z" transform="translate(-157.468 -116.009)" fill="#5793ce"/>
              <path id="Path_577" data-name="Path 577" d="M353.466,278.86l13.361-7.717c1.073-.619.94-1.7-.3-2.415l-13.243-7.645a4.649,4.649,0,0,0-4.184-.173l-13.364,7.714c-1.073.619-.94,1.7.3,2.418l13.24,7.645A4.654,4.654,0,0,0,353.466,278.86Z" transform="translate(-186.47 -108.924)" fill="#5793ce"/>
              <path id="Path_578" data-name="Path 578" d="M361.828,283.688l13.364-7.714c1.073-.619.94-1.7-.3-2.418l-13.24-7.643a4.654,4.654,0,0,0-4.186-.175L344.1,273.455c-1.073.619-.94,1.7.3,2.415l13.24,7.645A4.641,4.641,0,0,0,361.828,283.688Z" transform="translate(-215.471 -101.839)" fill="#5793ce"/>
              <path id="Path_579" data-name="Path 579" d="M370.193,288.519l13.364-7.714c1.073-.619.94-1.7-.3-2.418l-13.24-7.645a4.654,4.654,0,0,0-4.186-.173l-13.361,7.714c-1.073.622-.94,1.7.3,2.418l13.243,7.645A4.648,4.648,0,0,0,370.193,288.519Z" transform="translate(-244.473 -94.754)" fill="#5793ce"/>
              <path id="Path_580" data-name="Path 580" d="M307.234,242.765l13.364-7.714c1.073-.619.937-1.7-.3-2.418l-13.24-7.643a4.654,4.654,0,0,0-4.186-.175l-13.364,7.717c-1.073.619-.937,1.7.3,2.415l13.24,7.645A4.654,4.654,0,0,0,307.234,242.765Z" transform="translate(-26.19 -161.872)" fill="#5793ce"/>
              <path id="Path_581" data-name="Path 581" d="M298.745,237.865l13.364-7.717c1.071-.619.937-1.7-.3-2.415l-13.24-7.645a4.655,4.655,0,0,0-4.186-.175l-13.364,7.717c-1.073.619-.937,1.7.3,2.415l13.24,7.645A4.654,4.654,0,0,0,298.745,237.865Z" transform="translate(3.244 -169.063)" fill="#5793ce"/>
              <path id="Path_582" data-name="Path 582" d="M283.991,238.248l28.78-16.618c1.073-.619.937-1.7-.3-2.415l-13.24-7.645a4.646,4.646,0,0,0-4.186-.173l-28.78,16.615c-1.073.619-.937,1.7.3,2.418l13.24,7.645A4.654,4.654,0,0,0,283.991,238.248Z" transform="translate(38.976 -181.559)" fill="#5793ce"/>
              <path id="Path_583" data-name="Path 583" d="M292.135,230.414,315.49,216.93c1.073-.619.938-1.7-.3-2.418l-13.24-7.643a4.655,4.655,0,0,0-4.186-.175l-23.355,13.484c-1.073.619-.94,1.7.3,2.418l13.24,7.645A4.654,4.654,0,0,0,292.135,230.414Z" transform="translate(16.169 -188.455)" fill="#5793ce"/>
              <path id="Path_584" data-name="Path 584" d="M315.6,247.6l13.364-7.717c1.071-.619.937-1.7-.3-2.415l-13.24-7.645a4.654,4.654,0,0,0-4.187-.173l-13.364,7.714c-1.073.619-.937,1.7.3,2.418l13.24,7.645A4.661,4.661,0,0,0,315.6,247.6Z" transform="translate(-55.192 -154.787)" fill="#5793ce"/>
              <path id="Path_585" data-name="Path 585" d="M323.965,252.424l13.361-7.714c1.073-.619.94-1.7-.3-2.418l-13.243-7.643a4.649,4.649,0,0,0-4.184-.175l-13.364,7.717c-1.073.619-.937,1.7.3,2.415l13.24,7.645A4.654,4.654,0,0,0,323.965,252.424Z" transform="translate(-84.193 -147.703)" fill="#5793ce"/>
              <path id="Path_586" data-name="Path 586" d="M332.331,257.255l13.361-7.714c1.073-.622.94-1.7-.3-2.418l-13.24-7.645a4.649,4.649,0,0,0-4.184-.173L314.6,247.019c-1.073.619-.94,1.7.3,2.418l13.24,7.645A4.654,4.654,0,0,0,332.331,257.255Z" transform="translate(-113.196 -140.618)" fill="#5793ce"/>
              <path id="Path_587" data-name="Path 587" d="M340.693,262.085l13.364-7.717c1.073-.619.94-1.7-.3-2.415l-13.24-7.645a4.646,4.646,0,0,0-4.186-.173l-13.361,7.714c-1.073.619-.94,1.7.3,2.418l13.24,7.643A4.649,4.649,0,0,0,340.693,262.085Z" transform="translate(-142.197 -133.533)" fill="#5793ce"/>
              <path id="Path_588" data-name="Path 588" d="M349.059,266.913l13.364-7.714c1.073-.619.937-1.7-.3-2.418l-13.24-7.645a4.662,4.662,0,0,0-4.187-.173l-13.361,7.714c-1.073.622-.94,1.7.3,2.418l13.243,7.645A4.649,4.649,0,0,0,349.059,266.913Z" transform="translate(-171.199 -126.448)" fill="#5793ce"/>
              <path id="Path_589" data-name="Path 589" d="M357.424,271.744l13.364-7.717c1.073-.619.937-1.7-.3-2.415l-13.24-7.645a4.654,4.654,0,0,0-4.186-.173L339.7,261.508c-1.071.619-.937,1.7.3,2.418l13.24,7.645A4.662,4.662,0,0,0,357.424,271.744Z" transform="translate(-200.2 -119.363)" fill="#5793ce"/>
              <path id="Path_590" data-name="Path 590" d="M365.79,276.572l13.364-7.714c1.073-.619.937-1.7-.3-2.418l-13.24-7.643a4.654,4.654,0,0,0-4.186-.175l-13.364,7.717c-1.073.619-.937,1.7.3,2.415L361.6,276.4A4.654,4.654,0,0,0,365.79,276.572Z" transform="translate(-229.203 -112.278)" fill="#5793ce"/>
              <path id="Path_591" data-name="Path 591" d="M374.155,281.4l13.364-7.714c1.073-.619.937-1.7-.3-2.418l-13.24-7.645a4.654,4.654,0,0,0-4.186-.173l-13.364,7.714c-1.073.619-.937,1.7.3,2.418l13.24,7.645A4.654,4.654,0,0,0,374.155,281.4Z" transform="translate(-258.204 -105.193)" fill="#5793ce"/>
              <path id="Path_592" data-name="Path 592" d="M382.52,286.233l13.364-7.717c1.073-.619.937-1.7-.3-2.415l-13.24-7.645a4.646,4.646,0,0,0-4.186-.173L364.793,276c-1.073.619-.938,1.7.3,2.418l13.24,7.643A4.654,4.654,0,0,0,382.52,286.233Z" transform="translate(-287.205 -98.109)" fill="#5793ce"/>
              <path id="Path_593" data-name="Path 593" d="M390.99,300.241l29.157-16.835c1.071-.619.937-1.7-.3-2.418l-13.24-7.643a4.654,4.654,0,0,0-4.186-.175l-29.157,16.835c-1.073.619-.937,1.7.3,2.418l13.24,7.643A4.655,4.655,0,0,0,390.99,300.241Z" transform="translate(-332.361 -90.935)" fill="#5793ce"/>
              <path id="Path_594" data-name="Path 594" d="M409.119,289.277l24.608-14.207c1.073-.622.94-1.7-.3-2.418l-13.243-7.645a4.649,4.649,0,0,0-4.184-.173l-24.611,14.207c-1.073.619-.937,1.7.3,2.418l13.24,7.645A4.654,4.654,0,0,0,409.119,289.277Z" transform="translate(-390.667 -103.168)" fill="#5793ce"/>
              <path id="Path_595" data-name="Path 595" d="M330.249,246.651l13.361-7.714c1.073-.622.94-1.7-.3-2.418l-13.243-7.645a4.649,4.649,0,0,0-4.184-.173l-13.364,7.714c-1.073.619-.937,1.7.3,2.418l13.24,7.645A4.654,4.654,0,0,0,330.249,246.651Z" transform="translate(-105.98 -156.174)" fill="#5793ce"/>
              <path id="Path_596" data-name="Path 596" d="M321.675,241.7l13.364-7.714c1.073-.619.937-1.7-.3-2.418l-13.24-7.645a4.661,4.661,0,0,0-4.186-.173l-13.364,7.714c-1.073.619-.937,1.7.3,2.418l13.24,7.645A4.654,4.654,0,0,0,321.675,241.7Z" transform="translate(-76.257 -163.435)" fill="#5793ce"/>
              <path id="Path_597" data-name="Path 597" d="M313.1,236.75l13.364-7.714c1.073-.619.937-1.7-.3-2.418l-13.24-7.643a4.654,4.654,0,0,0-4.186-.175l-13.364,7.717c-1.073.619-.937,1.7.3,2.415l13.24,7.645A4.654,4.654,0,0,0,313.1,236.75Z" transform="translate(-46.535 -170.696)" fill="#5793ce"/>
              <path id="Path_598" data-name="Path 598" d="M304.528,231.8l13.364-7.717c1.073-.619.937-1.7-.3-2.415l-13.24-7.645a4.654,4.654,0,0,0-4.186-.173L286.8,221.566c-1.071.619-.937,1.7.3,2.418l13.24,7.643A4.654,4.654,0,0,0,304.528,231.8Z" transform="translate(-16.811 -177.957)" fill="#5793ce"/>
              <path id="Path_599" data-name="Path 599" d="M338.615,251.479l13.361-7.714c1.073-.619.94-1.7-.3-2.418l-13.24-7.643a4.649,4.649,0,0,0-4.184-.175l-13.364,7.717c-1.073.619-.94,1.7.3,2.415l13.24,7.645A4.654,4.654,0,0,0,338.615,251.479Z" transform="translate(-134.982 -149.089)" fill="#5793ce"/>
              <path id="Path_600" data-name="Path 600" d="M346.977,256.31l13.364-7.714c1.073-.619.94-1.7-.3-2.418l-13.24-7.645a4.654,4.654,0,0,0-4.186-.173l-13.361,7.714c-1.073.619-.94,1.7.3,2.418l13.24,7.645A4.648,4.648,0,0,0,346.977,256.31Z" transform="translate(-163.983 -142.004)" fill="#5793ce"/>
              <path id="Path_601" data-name="Path 601" d="M355.343,261.14l13.364-7.717c1.073-.619.937-1.7-.3-2.415l-13.24-7.645a4.654,4.654,0,0,0-4.186-.173L337.618,250.9c-1.073.619-.94,1.7.3,2.418l13.243,7.643A4.649,4.649,0,0,0,355.343,261.14Z" transform="translate(-192.985 -134.919)" fill="#5793ce"/>
              <path id="Path_602" data-name="Path 602" d="M363.708,265.968l13.364-7.714c1.073-.619.937-1.7-.3-2.418l-13.24-7.643a4.654,4.654,0,0,0-4.186-.175l-13.364,7.717c-1.071.619-.937,1.7.3,2.415l13.24,7.645A4.654,4.654,0,0,0,363.708,265.968Z" transform="translate(-221.987 -127.834)" fill="#5793ce"/>
              <path id="Path_603" data-name="Path 603" d="M372.074,270.8l13.364-7.717c1.073-.619.937-1.7-.3-2.415l-13.24-7.645a4.653,4.653,0,0,0-4.186-.173l-13.364,7.714c-1.073.619-.937,1.7.3,2.418l13.24,7.645A4.662,4.662,0,0,0,372.074,270.8Z" transform="translate(-250.989 -120.749)" fill="#5793ce"/>
              <path id="Path_604" data-name="Path 604" d="M380.439,275.627l13.364-7.714c1.073-.619.937-1.7-.3-2.418l-13.24-7.643a4.654,4.654,0,0,0-4.186-.175l-13.364,7.717c-1.073.619-.937,1.7.3,2.415l13.24,7.645A4.646,4.646,0,0,0,380.439,275.627Z" transform="translate(-279.99 -113.665)" fill="#5793ce"/>
              <path id="Path_605" data-name="Path 605" d="M388.8,280.458l13.364-7.714c1.073-.619.937-1.7-.3-2.418l-13.24-7.645a4.653,4.653,0,0,0-4.186-.173l-13.364,7.714c-1.073.619-.937,1.7.3,2.418l13.24,7.645A4.654,4.654,0,0,0,388.8,280.458Z" transform="translate(-308.991 -106.58)" fill="#5793ce"/>
              <path id="Path_606" data-name="Path 606" d="M397.17,285.288l13.364-7.717c1.071-.619.937-1.7-.3-2.415l-13.24-7.645a4.654,4.654,0,0,0-4.186-.173l-13.364,7.714c-1.073.619-.937,1.7.3,2.418l13.24,7.643A4.654,4.654,0,0,0,397.17,285.288Z" transform="translate(-337.993 -99.494)" fill="#5793ce"/>
              <path id="Path_607" data-name="Path 607" d="M405.535,290.116,418.9,282.4c1.073-.619.94-1.7-.3-2.418l-13.24-7.645a4.662,4.662,0,0,0-4.186-.173l-13.364,7.717c-1.073.619-.937,1.7.3,2.415l13.24,7.645A4.653,4.653,0,0,0,405.535,290.116Z" transform="translate(-366.995 -92.41)" fill="#5793ce"/>
              <path id="Path_608" data-name="Path 608" d="M325.842,234.7l13.364-7.714c1.073-.619.94-1.7-.3-2.418l-13.24-7.645a4.662,4.662,0,0,0-4.187-.173l-13.361,7.714c-1.073.622-.94,1.7.3,2.418l13.243,7.645A4.649,4.649,0,0,0,325.842,234.7Z" transform="translate(-90.709 -173.698)" fill="#5793ce"/>
              <path id="Path_609" data-name="Path 609" d="M317.52,229.9l13.364-7.717c1.073-.619.937-1.7-.3-2.415l-13.24-7.645a4.655,4.655,0,0,0-4.186-.175l-13.364,7.717c-1.073.619-.937,1.7.3,2.415l13.24,7.645A4.654,4.654,0,0,0,317.52,229.9Z" transform="translate(-61.852 -180.748)" fill="#5793ce"/>
              <path id="Path_610" data-name="Path 610" d="M309.2,225.094l13.364-7.714c1.073-.622.94-1.7-.3-2.418l-13.24-7.645a4.654,4.654,0,0,0-4.186-.173l-13.361,7.714c-1.073.619-.94,1.7.3,2.418l13.243,7.645A4.649,4.649,0,0,0,309.2,225.094Z" transform="translate(-32.994 -187.797)" fill="#5793ce"/>
              <path id="Path_611" data-name="Path 611" d="M300.873,220.287l13.364-7.714c1.073-.619.937-1.7-.3-2.418l-13.24-7.643a4.654,4.654,0,0,0-4.186-.175l-13.364,7.717c-1.073.619-.937,1.7.3,2.415l13.24,7.645A4.646,4.646,0,0,0,300.873,220.287Z" transform="translate(-4.137 -194.847)" fill="#5793ce"/>
              <path id="Path_612" data-name="Path 612" d="M300.569,212.3l13.364-7.714c1.071-.622.937-1.7-.3-2.418l-4.379-2.526a4.649,4.649,0,0,0-4.184-.175L291.7,207.187c-1.073.619-.937,1.7.3,2.415l4.376,2.529A4.653,4.653,0,0,0,300.569,212.3Z" transform="translate(-24.947 -199.053)" fill="#5793ce"/>
              <path id="Path_613" data-name="Path 613" d="M311.432,218.574l13.361-7.714c1.073-.619.94-1.7-.3-2.418l-4.379-2.526a4.649,4.649,0,0,0-4.184-.175l-13.364,7.717c-1.073.619-.94,1.7.3,2.415l4.376,2.529A4.654,4.654,0,0,0,311.432,218.574Z" transform="translate(-62.607 -189.853)" fill="#5793ce"/>
              <path id="Path_614" data-name="Path 614" d="M319.719,223.361l13.364-7.717c1.073-.619.937-1.7-.3-2.415l-4.376-2.529a4.654,4.654,0,0,0-4.186-.173l-13.364,7.714c-1.073.619-.937,1.7.3,2.418l4.376,2.526A4.655,4.655,0,0,0,319.719,223.361Z" transform="translate(-91.343 -182.833)" fill="#5793ce"/>
              <path id="Path_615" data-name="Path 615" d="M328.008,228.145l13.364-7.714c1.073-.619.937-1.7-.3-2.418l-4.376-2.526a4.646,4.646,0,0,0-4.187-.173l-13.364,7.714c-1.073.619-.937,1.7.3,2.418l4.376,2.526A4.654,4.654,0,0,0,328.008,228.145Z" transform="translate(-120.081 -175.813)" fill="#5793ce"/>
              <path id="Path_616" data-name="Path 616" d="M336.3,232.932l13.364-7.717c1.073-.619.937-1.7-.3-2.415l-4.376-2.529a4.654,4.654,0,0,0-4.186-.173l-13.364,7.714c-1.073.622-.937,1.7.3,2.418l4.376,2.526A4.654,4.654,0,0,0,336.3,232.932Z" transform="translate(-148.818 -168.793)" fill="#5793ce"/>
              <path id="Path_617" data-name="Path 617" d="M382.572,259.649l13.364-7.717c1.073-.619.937-1.7-.3-2.415l-4.376-2.529a4.654,4.654,0,0,0-4.186-.173l-13.364,7.714c-1.073.619-.937,1.7.3,2.418l4.376,2.526A4.654,4.654,0,0,0,382.572,259.649Z" transform="translate(-309.253 -129.6)" fill="#5793ce"/>
              <path id="Path_618" data-name="Path 618" d="M390.86,264.432l13.364-7.714c1.073-.619.937-1.7-.3-2.418l-4.377-2.526a4.653,4.653,0,0,0-4.186-.173L382,259.316c-1.071.619-.937,1.7.3,2.418l4.379,2.526A4.648,4.648,0,0,0,390.86,264.432Z" transform="translate(-337.989 -122.579)" fill="#5793ce"/>
              <path id="Path_619" data-name="Path 619" d="M399.149,269.22l13.364-7.717c1.073-.619.94-1.7-.3-2.415l-4.377-2.529a4.653,4.653,0,0,0-4.186-.173L390.287,264.1c-1.073.619-.94,1.7.3,2.415l4.379,2.529A4.656,4.656,0,0,0,399.149,269.22Z" transform="translate(-366.726 -115.559)" fill="#5793ce"/>
              <path id="Path_620" data-name="Path 620" d="M407.44,274l13.361-7.714c1.073-.619.94-1.7-.3-2.418l-4.379-2.526a4.649,4.649,0,0,0-4.184-.173l-13.364,7.714c-1.073.619-.94,1.7.3,2.418l4.376,2.526A4.646,4.646,0,0,0,407.44,274Z" transform="translate(-395.464 -108.538)" fill="#5793ce"/>
              <path id="Path_621" data-name="Path 621" d="M334.208,239.535l13.364-7.717c1.073-.619.937-1.7-.3-2.415l-13.24-7.645a4.654,4.654,0,0,0-4.186-.173L316.483,229.3c-1.073.619-.94,1.7.3,2.418l13.243,7.643A4.649,4.649,0,0,0,334.208,239.535Z" transform="translate(-119.711 -166.613)" fill="#5793ce"/>
              <path id="Path_622" data-name="Path 622" d="M342.573,244.363l13.364-7.714c1.073-.619.937-1.7-.3-2.418l-13.24-7.643a4.655,4.655,0,0,0-4.186-.175l-13.364,7.717c-1.071.619-.937,1.7.3,2.415l13.24,7.645A4.654,4.654,0,0,0,342.573,244.363Z" transform="translate(-148.712 -159.528)" fill="#5793ce"/>
              <path id="Path_623" data-name="Path 623" d="M350.939,249.194l13.364-7.714c1.073-.622.937-1.7-.3-2.418l-13.24-7.645a4.654,4.654,0,0,0-4.186-.173l-13.364,7.714c-1.073.619-.937,1.7.3,2.418l13.24,7.645A4.661,4.661,0,0,0,350.939,249.194Z" transform="translate(-177.714 -152.443)" fill="#5793ce"/>
              <path id="Path_624" data-name="Path 624" d="M359.3,254.024l13.364-7.717c1.073-.619.938-1.7-.3-2.415l-13.24-7.645a4.654,4.654,0,0,0-4.186-.175l-13.364,7.717c-1.073.619-.937,1.7.3,2.415l13.24,7.645A4.654,4.654,0,0,0,359.3,254.024Z" transform="translate(-206.716 -145.359)" fill="#5793ce"/>
              <path id="Path_625" data-name="Path 625" d="M367.669,258.853l13.364-7.714c1.073-.619.937-1.7-.3-2.418l-13.24-7.645a4.654,4.654,0,0,0-4.186-.173l-13.364,7.714c-1.073.622-.937,1.7.3,2.418l13.24,7.645A4.654,4.654,0,0,0,367.669,258.853Z" transform="translate(-235.717 -138.274)" fill="#5793ce"/>
              <path id="Path_626" data-name="Path 626" d="M376.035,263.683l13.364-7.717c1.071-.619.937-1.7-.3-2.415l-13.24-7.645a4.654,4.654,0,0,0-4.186-.173l-13.364,7.714c-1.073.619-.937,1.7.3,2.418l13.24,7.643A4.654,4.654,0,0,0,376.035,263.683Z" transform="translate(-264.719 -131.188)" fill="#5793ce"/>
              <path id="Path_627" data-name="Path 627" d="M384.4,268.511l13.361-7.714c1.073-.619.94-1.7-.3-2.418l-13.243-7.643a4.649,4.649,0,0,0-4.184-.175l-13.364,7.717c-1.073.619-.937,1.7.3,2.415l13.24,7.645A4.654,4.654,0,0,0,384.4,268.511Z" transform="translate(-293.72 -124.104)" fill="#5793ce"/>
              <path id="Path_628" data-name="Path 628" d="M392.766,273.342l13.361-7.714c1.073-.622.94-1.7-.3-2.418l-13.24-7.645a4.649,4.649,0,0,0-4.184-.173l-13.364,7.714c-1.073.619-.94,1.7.3,2.418l13.24,7.645A4.654,4.654,0,0,0,392.766,273.342Z" transform="translate(-322.722 -117.019)" fill="#5793ce"/>
              <path id="Path_629" data-name="Path 629" d="M401.128,278.17l13.364-7.714c1.073-.619.94-1.7-.3-2.418l-13.24-7.643a4.655,4.655,0,0,0-4.186-.175L383.4,267.937c-1.073.619-.94,1.7.3,2.415L396.944,278A4.641,4.641,0,0,0,401.128,278.17Z" transform="translate(-351.723 -109.934)" fill="#5793ce"/>
              <path id="Path_630" data-name="Path 630" d="M275.848,249.054,315.2,226.333c1.073-.619.937-1.7-.3-2.418l-13.24-7.645a4.654,4.654,0,0,0-4.187-.173l-39.356,22.721c-1.073.619-.937,1.7.3,2.418l13.24,7.645A4.654,4.654,0,0,0,275.848,249.054Z" transform="translate(56.632 -174.662)" fill="#5793ce"/>
              <path id="Path_631" data-name="Path 631" d="M378.616,308.387l39.356-22.723c1.071-.619.937-1.7-.3-2.415L404.43,275.6a4.654,4.654,0,0,0-4.186-.173l-39.356,22.721c-1.073.619-.937,1.7.3,2.418l13.24,7.643A4.654,4.654,0,0,0,378.616,308.387Z" transform="translate(-299.659 -87.622)" fill="#5793ce"/>
              <path id="Path_632" data-name="Path 632" d="M358.23,291.687l13.364-7.717c1.073-.619.937-1.7-.3-2.415l-15.774-9.108a4.653,4.653,0,0,0-4.186-.173l-13.361,7.714c-1.073.619-.94,1.7.3,2.418l15.774,9.106A4.654,4.654,0,0,0,358.23,291.687Z" transform="translate(-196.746 -92.252)" fill="#5793ce"/>
              <path id="Path_633" data-name="Path 633" d="M294.236,259.363l21.371-12.34c1.073-.619.94-1.7-.3-2.415L299.535,235.5a4.661,4.661,0,0,0-4.186-.173l-21.371,12.34c-1.073.619-.937,1.7.3,2.415l15.774,9.108A4.649,4.649,0,0,0,294.236,259.363Z" transform="translate(17.11 -146.452)" fill="#5793ce"/>
              <path id="Path_634" data-name="Path 634" d="M346.925,289.782,368.3,277.445c1.073-.619.937-1.7-.3-2.418l-15.774-9.106a4.654,4.654,0,0,0-4.186-.175l-21.371,12.34c-1.071.619-.937,1.7.3,2.418l15.774,9.106A4.654,4.654,0,0,0,346.925,289.782Z" transform="translate(-165.557 -101.828)" fill="#5793ce"/>
              <path id="Path_635" data-name="Path 635" d="M306.3,266.331l21.371-12.34c1.073-.619.94-1.7-.3-2.415L311.6,242.471a4.646,4.646,0,0,0-4.186-.175l-21.371,12.34c-1.073.619-.937,1.7.3,2.415l15.774,9.108A4.649,4.649,0,0,0,306.3,266.331Z" transform="translate(-24.733 -136.23)" fill="#5793ce"/>
              <path id="Path_636" data-name="Path 636" d="M379.454,242.081,286.54,295.725a1.272,1.272,0,0,0,0,2.41l16.085,9.288a4.63,4.63,0,0,0,4.177,0l92.916-53.647Z" transform="translate(-96.915 -135.931)" fill="#5793ce"/>
              <path id="Path_637" data-name="Path 637" d="M377.469,288.855l-14.886,8.595c-.878.508-.77,1.394.247,1.981l6.451,3.725a3.818,3.818,0,0,0,3.431.141L387.6,294.7c.878-.508.77-1.394-.247-1.981L380.9,289A3.811,3.811,0,0,0,377.469,288.855Z" transform="translate(-273.66 -67.818)" fill="#5793ce"/>
              <path id="Path_638" data-name="Path 638" d="M369.033,283.986l-14.886,8.592c-.878.508-.767,1.394.247,1.981l6.454,3.725a3.81,3.81,0,0,0,3.431.143l14.883-8.595c.881-.508.77-1.394-.247-1.981l-6.451-3.725A3.818,3.818,0,0,0,369.033,283.986Z" transform="translate(-244.418 -74.961)" fill="#5793ce"/>
              <path id="Path_639" data-name="Path 639" d="M360.668,279.156l-14.883,8.592c-.881.508-.77,1.4.244,1.981l6.454,3.725a3.811,3.811,0,0,0,3.432.143l14.883-8.592c.881-.508.77-1.4-.244-1.981L364.1,279.3A3.811,3.811,0,0,0,360.668,279.156Z" transform="translate(-215.416 -82.047)" fill="#5793ce"/>
              <path id="Path_640" data-name="Path 640" d="M373.654,281.317l-14.886,8.595c-.878.508-.77,1.394.247,1.981l6.451,3.725a3.811,3.811,0,0,0,3.432.143l14.886-8.595c.878-.508.77-1.394-.247-1.981l-6.451-3.725A3.818,3.818,0,0,0,373.654,281.317Z" transform="translate(-260.433 -78.874)" fill="#5793ce"/>
            </g>
            <g id="Group_114" data-name="Group 114" transform="translate(97.242 87.189)">
              <path id="Path_641" data-name="Path 641" d="M351.935,229.336l111.158-64.177-1.43-7.226L350.506,222.11Z" transform="translate(-312.406 -75.507)" fill="#d4ecff"/>
              <path id="Path_642" data-name="Path 642" d="M349.4,222.756,427,177.957l-1.43-7.226-77.595,44.8Z" transform="translate(-270.063 -56.732)" fill="#d4ecff"/>
              <path id="Path_643" data-name="Path 643" d="M350.669,210.314,417.8,171.558l-1.43-7.226-67.128,38.756Z" transform="translate(-263.986 -66.119)" fill="#fff"/>
              <path id="Path_644" data-name="Path 644" d="M382.123,209.1l33.564-19.378-1.43-7.226-33.564,19.378Z" transform="translate(-339.47 -39.48)" fill="#744ed5"/>
              <path id="Path_645" data-name="Path 645" d="M333.532,151.125,367.1,131.747l-1.43-7.226L332.1,143.9Z" transform="translate(-171.007 -124.521)" fill="#d4ecff"/>
              <path id="Path_646" data-name="Path 646" d="M332.055,157.933l33.564-19.378-1.43-7.227-33.564,19.378Z" transform="translate(-165.888 -114.534)" fill="#fff"/>
              <path id="Path_647" data-name="Path 647" d="M398.832,252.356,432.4,232.978l-1.43-7.226L397.4,245.13Z" transform="translate(-397.403 23.982)" fill="#d4ecff"/>
              <path id="Path_648" data-name="Path 648" d="M329.1,171.548l33.564-19.378-1.43-7.226-33.564,19.378Z" transform="translate(-155.652 -94.562)" fill="#d4ecff"/>
            </g>
            <g id="Group_115" data-name="Group 115" transform="translate(154.367 162.169)">
              <path id="Path_649" data-name="Path 649" d="M367.611,162.122a4.189,4.189,0,0,0,6.034,1.86,5.251,5.251,0,0,0,2.161-6.592,4.186,4.186,0,0,0-6.034-1.858A5.254,5.254,0,0,0,367.611,162.122Z" transform="translate(-323.805 -154.914)" fill="#744ed5"/>
              <path id="Path_650" data-name="Path 650" d="M373.472,165.507a4.187,4.187,0,0,0,6.034,1.858,5.248,5.248,0,0,0,2.161-6.589,4.188,4.188,0,0,0-6.034-1.86A5.254,5.254,0,0,0,373.472,165.507Z" transform="translate(-344.123 -149.95)" fill="#fff"/>
              <path id="Path_651" data-name="Path 651" d="M379.332,168.889a4.189,4.189,0,0,0,6.034,1.86,5.254,5.254,0,0,0,2.161-6.592,4.186,4.186,0,0,0-6.034-1.858A5.25,5.25,0,0,0,379.332,168.889Z" transform="translate(-364.439 -144.987)" fill="#d4ecff"/>
              <path id="Path_652" data-name="Path 652" d="M385.193,172.274a4.187,4.187,0,0,0,6.034,1.858,5.252,5.252,0,0,0,2.161-6.589,4.188,4.188,0,0,0-6.034-1.86A5.251,5.251,0,0,0,385.193,172.274Z" transform="translate(-384.756 -140.024)" fill="#744ed5"/>
            </g>
          </g>
          <g id="Group_119" data-name="Group 119" transform="translate(528.491 73.115)">
            <g id="Group_117" data-name="Group 117">
              <path id="Path_653" data-name="Path 653" d="M288.992,159.033l68.57-39.575a4.158,4.158,0,0,1,3.9-.286l-.015-.044,8.173,3.844s-3.069,1.073-4.87,1.707l9.9,49.919c.807,4.061-1.011,8.778-4.058,10.539l-65.54,37.826,1.159,5.857-8.254-3.868.037-.012a5.975,5.975,0,0,1-2.948-4.4l-10.1-50.97C284.127,165.509,285.945,160.792,288.992,159.033Z" transform="translate(-284.742 -118.816)" fill="#5738a5"/>
              <path id="Path_654" data-name="Path 654" d="M298.639,226.305l68.569-39.578c3.047-1.756,4.865-6.476,4.058-10.536l-10.1-50.97c-.8-4.063-3.927-5.928-6.974-4.169l-68.572,39.575c-3.047,1.759-4.862,6.476-4.058,10.539l10.1,50.97C292.469,226.2,295.59,228.064,298.639,226.305Z" transform="translate(-273.047 -116.507)" fill="#744ed5"/>
            </g>
            <g id="Group_118" data-name="Group 118" transform="translate(36.829 44.015)">
              <path id="Path_655" data-name="Path 655" d="M291.241,145.3c.585,2.948,3.131,4.145,5.684,2.669a8.042,8.042,0,0,0,3.57-8.01c-.585-2.951-3.131-4.145-5.686-2.672A8.042,8.042,0,0,0,291.241,145.3Z" transform="translate(-263.088 -136.657)" fill="#fff"/>
              <path id="Path_656" data-name="Path 656" d="M296.923,148.579c.585,2.948,3.128,4.145,5.684,2.669a8.038,8.038,0,0,0,3.567-8.01c-.585-2.951-3.128-4.145-5.684-2.669A8.037,8.037,0,0,0,296.923,148.579Z" transform="translate(-282.785 -131.847)" fill="#fff"/>
              <path id="Path_657" data-name="Path 657" d="M302.6,151.858c.585,2.948,3.131,4.145,5.686,2.669a8.043,8.043,0,0,0,3.567-8.01c-.585-2.95-3.13-4.145-5.686-2.669A8.041,8.041,0,0,0,302.6,151.858Z" transform="translate(-302.483 -127.036)" fill="#fff"/>
            </g>
          </g>
          <g id="Group_122" data-name="Group 122" transform="translate(559.274 9.027)">
            <g id="Group_120" data-name="Group 120">
              <path id="Path_658" data-name="Path 658" d="M276.514,133.055l68.572-39.578a4.159,4.159,0,0,1,3.893-.284l-.015-.044,8.176,3.841s-3.071,1.073-4.872,1.707l9.895,49.922c.807,4.061-1.011,8.777-4.058,10.536l-65.54,37.829,1.162,5.857-8.257-3.868.039-.012a5.97,5.97,0,0,1-2.95-4.4l-10.1-50.97C271.649,139.531,273.467,134.814,276.514,133.055Z" transform="translate(-272.264 -92.838)" fill="#5793ce"/>
              <path id="Path_659" data-name="Path 659" d="M286.16,200.328,354.73,160.75c3.047-1.759,4.865-6.476,4.061-10.536l-10.1-50.973c-.8-4.061-3.927-5.926-6.974-4.169l-68.57,39.578c-3.049,1.759-4.865,6.476-4.061,10.539l10.1,50.97C279.99,200.219,283.113,202.087,286.16,200.328Z" transform="translate(-260.569 -90.529)" fill="#d4ecff"/>
            </g>
            <g id="Group_121" data-name="Group 121" transform="translate(36.829 44.014)">
              <path id="Path_660" data-name="Path 660" d="M278.763,119.321c.585,2.95,3.131,4.147,5.686,2.672a8.045,8.045,0,0,0,3.567-8.01c-.585-2.951-3.131-4.147-5.686-2.672A8.045,8.045,0,0,0,278.763,119.321Z" transform="translate(-250.61 -110.679)" fill="#fff"/>
              <path id="Path_661" data-name="Path 661" d="M284.444,122.6c.585,2.948,3.13,4.144,5.684,2.669a8.042,8.042,0,0,0,3.57-8.01c-.585-2.951-3.131-4.145-5.686-2.672A8.042,8.042,0,0,0,284.444,122.6Z" transform="translate(-270.306 -105.868)" fill="#fff"/>
              <path id="Path_662" data-name="Path 662" d="M290.126,125.881c.585,2.948,3.131,4.145,5.686,2.669a8.04,8.04,0,0,0,3.567-8.01c-.585-2.95-3.131-4.144-5.684-2.672A8.044,8.044,0,0,0,290.126,125.881Z" transform="translate(-290.005 -101.058)" fill="#fff"/>
            </g>
          </g>
        </g>
      </g>
    </g>
  </g>
</svg>
