<svg xmlns="http://www.w3.org/2000/svg" width="113.077" height="128.242" viewBox="0 0 113.077 128.242">
  <g id="layer1" transform="translate(-193.633 -376.982)">
    <g id="g3013" transform="translate(193.633 376.982)">
      <path id="polygon2989" d="M187.71,100.62l-10.3,115.4L131.1,228.862l-46.179-12.82L74.633,100.62Z" transform="translate(-74.633 -100.62)" fill="#264de4"/>
      <path id="polygon2991" d="M293.418,229.512l8.8-98.618H256V239.886Z" transform="translate(-199.461 -121.456)" fill="#2965f1"/>
      <path id="polygon2993" d="M150.31,268.217l1.269,14.156h31.679V268.217Z" transform="translate(-126.719 -215.971)" fill="#ebebeb"/>
      <path id="polygon2995" d="M177.629,176.3h-35.5l1.287,14.156h34.21Z" transform="translate(-121.09 -152.711)" fill="#ebebeb"/>
      <path id="polygon2997" d="M187.455,366.592V351.864l-.062.017-15.766-4.257-1.008-11.29H156.409l1.983,22.227,29,8.05Z" transform="translate(-130.916 -262.853)" fill="#ebebeb"/>
      <path id="polygon3005" d="M273.275,219.113l-1.643,18.359-15.788,4.261v14.728l29.021-8.043.213-2.392,3.327-37.268.345-3.8L291.3,176.3H255.843v14.156H275.79l-1.288,14.5H255.843v14.156Z" transform="translate(-199.353 -152.711)" fill="#fff"/>
    </g>
  </g>
</svg>
