<?xml version="1.0" encoding="utf-8"?>
<!-- Generator: Adobe Illustrator 24.2.1, SVG Export Plug-In . SVG Version: 6.00 Build 0)  -->
<svg version="1.1" id="Iconly_Bold_Lock" xmlns="http://www.w3.org/2000/svg" xmlns:xlink="http://www.w3.org/1999/xlink" x="0px"
	 y="0px" viewBox="0 0 31 31" style="enable-background:new 0 0 31 31;" xml:space="preserve">
<style type="text/css">
	.st0{fill:#707070;}
</style>
<g id="Lock" transform="translate(4.521 2.583)">
	<g id="XMLID_1_">
		<g>
			<path class="st0" d="M15.8,8.7V7c0-2.6-2.2-4.8-4.8-4.7v0c-2.6,0-4.8,2.1-4.9,4.7v1.7H15.8z M16,2c1.3,1.3,2.1,3.1,2.1,4.9v2
				c2.3,0.7,3.8,2.8,3.9,5.1v6.4c0,3-2.5,5.4-5.5,5.4H5.5c-3,0-5.5-2.4-5.5-5.4v-6.4c0-2.4,1.6-4.4,3.8-5.1V7c0-3.9,3.2-7,7.1-7
				C12.8,0,14.7,0.7,16,2z M12.1,18.7v-2.8c0-0.6-0.5-1.1-1.1-1.1c0,0,0,0,0,0c-0.6,0-1.1,0.5-1.1,1.1v2.8c0,0.6,0.5,1.1,1.1,1.1
				C11.6,19.8,12.1,19.3,12.1,18.7z"/>
		</g>
		<g>
		</g>
	</g>
</g>
</svg>
