<svg id="Iconly_Bold_Lock" data-name="Iconly/Bold/Lock" xmlns="http://www.w3.org/2000/svg" width="21.958" height="25.833" viewBox="0 0 21.958 25.833">
  <g id="Lock" transform="translate(0)">
    <path id="Lock-2" data-name="Lock" d="M16.446,25.833H5.514A5.46,5.46,0,0,1,0,20.441V14.064A5.379,5.379,0,0,1,3.846,8.95V6.97A7.068,7.068,0,0,1,10.96,0a7.2,7.2,0,0,1,5.063,2.041,6.839,6.839,0,0,1,2.09,4.929V8.95a5.379,5.379,0,0,1,3.846,5.114v6.377A5.459,5.459,0,0,1,16.446,25.833ZM10.973,14.7a1.131,1.131,0,0,0-1.142,1.117v2.849a1.148,1.148,0,0,0,2.3,0V15.822A1.138,1.138,0,0,0,10.973,14.7Zm.013-12.459a4.794,4.794,0,0,0-4.843,4.7V8.672h9.673V6.97A4.784,4.784,0,0,0,10.986,2.246Z" transform="translate(0)" fill="#c7c7c7"/>
  </g>
</svg>
