<svg id="React-icon" xmlns="http://www.w3.org/2000/svg" width="37.371" height="33.28" viewBox="0 0 37.371 33.28">
  <path id="Path_504" data-name="Path 504" d="M213.071,94.644c0-2.476-3.1-4.822-7.854-6.277,1.1-4.845.609-8.7-1.539-9.933a3.34,3.34,0,0,0-1.706-.427v1.7a1.764,1.764,0,0,1,.868.2c1.036.594,1.485,2.857,1.135,5.766-.084.716-.221,1.47-.388,2.24a36.914,36.914,0,0,0-4.837-.83,37.159,37.159,0,0,0-3.169-3.809c2.483-2.308,4.814-3.573,6.4-3.573V78h0c-2.095,0-4.837,1.493-7.61,4.083-2.773-2.575-5.515-4.052-7.61-4.052v1.7c1.577,0,3.915,1.257,6.4,3.55a35.977,35.977,0,0,0-3.146,3.8,35.57,35.57,0,0,0-4.845.838c-.175-.762-.3-1.5-.4-2.209-.358-2.91.084-5.172,1.112-5.774a1.7,1.7,0,0,1,.876-.2v-1.7h0a3.4,3.4,0,0,0-1.722.427c-2.14,1.234-2.62,5.081-1.516,9.91-4.738,1.463-7.823,3.8-7.823,6.269s3.1,4.822,7.854,6.277c-1.1,4.845-.609,8.7,1.539,9.933a3.349,3.349,0,0,0,1.714.427c2.095,0,4.837-1.493,7.61-4.083,2.773,2.575,5.515,4.052,7.61,4.052a3.4,3.4,0,0,0,1.722-.427c2.14-1.234,2.62-5.081,1.516-9.91C209.986,99.458,213.071,97.112,213.071,94.644Zm-9.918-5.081c-.282.983-.632,2-1.028,3.009-.312-.609-.64-1.219-1-1.828s-.724-1.2-1.1-1.782C201.112,89.121,202.155,89.319,203.153,89.563Zm-3.489,8.113c-.594,1.028-1.2,2-1.836,2.91-1.135.1-2.285.152-3.443.152s-2.3-.053-3.428-.145q-.948-1.36-1.843-2.895-.868-1.5-1.584-3.032c.472-1.021,1.006-2.041,1.577-3.039.594-1.028,1.2-2,1.836-2.91,1.135-.1,2.285-.152,3.443-.152s2.3.053,3.428.145q.948,1.36,1.843,2.895.868,1.5,1.584,3.032C200.761,95.657,200.236,96.678,199.664,97.676Zm2.46-.99c.411,1.021.762,2.041,1.051,3.032-1,.244-2.049.449-3.138.609.373-.587.747-1.188,1.1-1.805S201.813,97.295,202.125,96.685Zm-7.724,8.128a31.406,31.406,0,0,1-2.118-2.438c.686.03,1.386.053,2.095.053s1.424-.015,2.118-.053A29.738,29.738,0,0,1,194.4,104.813Zm-5.667-4.487c-1.082-.16-2.125-.358-3.123-.6.282-.983.632-2,1.028-3.009.312.609.64,1.219,1,1.828S188.36,99.748,188.733,100.327Zm5.629-15.852a31.4,31.4,0,0,1,2.118,2.438c-.686-.03-1.386-.053-2.095-.053s-1.424.015-2.118.053A29.734,29.734,0,0,1,194.363,84.475Zm-5.637,4.487c-.373.587-.747,1.188-1.1,1.805s-.678,1.219-.99,1.828c-.411-1.021-.762-2.041-1.051-3.032C186.585,89.327,187.637,89.121,188.726,88.961ZM181.832,98.5c-2.7-1.15-4.441-2.658-4.441-3.854s1.744-2.712,4.441-3.854c.655-.282,1.371-.533,2.11-.769a36.587,36.587,0,0,0,1.714,4.639,36.07,36.07,0,0,0-1.691,4.616C183.211,99.039,182.495,98.78,181.832,98.5Zm4.1,10.885c-1.036-.594-1.485-2.857-1.135-5.766.084-.716.221-1.47.388-2.24a36.919,36.919,0,0,0,4.837.83,37.159,37.159,0,0,0,3.169,3.809c-2.483,2.308-4.814,3.573-6.4,3.573A1.818,1.818,0,0,1,185.93,109.384Zm18.068-5.8c.358,2.91-.084,5.172-1.112,5.774a1.7,1.7,0,0,1-.876.2c-1.577,0-3.915-1.257-6.4-3.55a35.979,35.979,0,0,0,3.146-3.8,35.569,35.569,0,0,0,4.845-.838A21.323,21.323,0,0,1,204,103.579Zm2.933-5.081c-.655.282-1.371.533-2.11.769a36.582,36.582,0,0,0-1.714-4.639,36.069,36.069,0,0,0,1.691-4.616c.754.236,1.47.5,2.141.777,2.7,1.15,4.441,2.658,4.441,3.854S209.628,97.356,206.931,98.5Z" transform="translate(-175.7 -78)" fill="#61dafb"/>
  <path id="Path_505" data-name="Path 505" d="M320.8,78.4Z" transform="translate(-309.747 -78.37)" fill="#61dafb"/>
  <circle id="Ellipse_31" data-name="Ellipse 31" cx="3.481" cy="3.481" r="3.481" transform="translate(15.197 13.163)" fill="#61dafb"/>
  <path id="Path_506" data-name="Path 506" d="M520.5,78.1Z" transform="translate(-494.235 -78.092)" fill="#61dafb"/>
</svg>
