<svg xmlns="http://www.w3.org/2000/svg" width="800.119" height="560.752" viewBox="0 0 800.119 560.752">
  <g id="Group_171" data-name="Group 171" transform="translate(-231.284 -95.705)">
    <g id="Group_148" data-name="Group 148" transform="translate(324.445 173.256)">
      <path id="Path_663" data-name="Path 663" d="M943.9,289.657,746.143,175.14c-10.742-6.224-29.521-5.471-41.946,1.68L289.165,415.671c-12.424,7.151-13.786,17.99-3.044,24.211L483.876,554.4c10.742,6.221,29.521,5.469,41.946-1.68L940.853,313.868C953.277,306.717,954.639,295.878,943.9,289.657Z" transform="translate(-262.536 -75.413)" fill="#efefef"/>
      <path id="Path_664" data-name="Path 664" d="M487.333,544.439,281.528,425.26c-6.76-3.918-9.912-9.2-9.686-14.688l-.046.016.083-29.864,11.444,13.407c.743-.488,1.491-.978,2.3-1.445L706.637,150.393c16.715-9.62,41.982-10.632,56.434-2.259l202.913,117.5c4.107-4.5,12.719-13.991,12.719-13.991l-.1,29.211,0,0c.306,6.585-4.383,13.6-13.821,19.03L543.767,542.177C527.052,551.8,501.787,552.809,487.333,544.439Z" transform="translate(-271.748 -112.437)" fill="#5793ce"/>
      <path id="Path_665" data-name="Path 665" d="M570.054,150.393c16.715-9.62,41.982-10.632,56.434-2.259L829.4,265.637c4.107-4.5,12.719-13.991,12.719-13.991l-.1,29.211,0,0c.306,6.585-4.383,13.6-13.821,19.03L407.183,542.177c-8.72,5.02-19.764,7.671-30.386,7.894l.4-288.689Z" transform="translate(-135.164 -112.437)" fill="#173d7a"/>
      <path id="Path_666" data-name="Path 666" d="M968.918,254.261,763.113,135.082c-14.451-8.37-39.716-7.358-56.431,2.259L285.671,379.635c-16.715,9.62-18.549,24.2-4.1,32.574L487.378,531.388c14.451,8.373,39.716,7.36,56.431-2.259L964.823,286.835C981.536,277.216,983.37,262.631,968.918,254.261Z" transform="translate(-271.705 -129.411)" fill="#d4ecff"/>
      <path id="Path_667" data-name="Path 667" d="M487.292,454.733,281.487,335.553c-7.455-4.316-10.54-10.287-9.523-16.375.364,4.944,3.536,9.629,9.679,13.188L487.448,451.544c14.451,8.373,39.716,7.36,56.431-2.259L964.893,206.992c8.094-4.659,12.663-10.48,13.618-16.2.495,6.688-4.167,13.858-13.777,19.386L543.723,452.472C527.008,462.091,501.743,463.1,487.292,454.733Z" transform="translate(-271.775 -49.568)" fill="#fff"/>
      <path id="Path_668" data-name="Path 668" d="M943.9,252.845,746.143,138.328c-10.742-6.224-29.521-5.471-41.946,1.68L289.165,378.859c-12.424,7.149-13.786,17.99-3.044,24.211L483.876,517.587c10.742,6.221,29.521,5.469,41.946-1.68L940.853,277.056C953.277,269.905,954.639,259.066,943.9,252.845Z" transform="translate(-262.536 -123.297)" fill="#fff"/>
    </g>
    <g id="Group_151" data-name="Group 151" transform="translate(334.082 95.705)">
      <path id="Path_669" data-name="Path 669" d="M445.7,167.946l-94.544-53.371c-3.773-2.128-10.321-1.788-14.626.759L282.5,147.28c-4.3,2.547-4.735,6.334-.962,8.46l94.544,53.374c3.773,2.126,10.321,1.785,14.626-.762l54.022-31.946C449.04,173.859,449.47,170.071,445.7,167.946Z" transform="translate(-272.051 -72.978)" fill="#efefef"/>
      <g id="Group_149" data-name="Group 149">
        <path id="Path_670" data-name="Path 670" d="M376.662,204.464l-97.629-55.012a4.973,4.973,0,0,1-2.9-4.114l-.051.037-.11-10.871s3.43,2.814,5.448,4.464l60.833-35.975c4.949-2.927,12.479-3.318,16.816-.874L452.384,154.7l7.139-4.22.127,10.972-.041-.035c-.025,1.882-1.353,3.865-4.015,5.439l-62.114,36.734C388.53,206.518,381,206.91,376.662,204.464Z" transform="translate(-275.954 -89.45)" fill="#5793ce"/>
        <path id="Path_671" data-name="Path 671" d="M456.585,152.323,358.956,97.311c-4.339-2.446-11.867-2.055-16.816.872l-62.114,36.734c-4.949,2.927-5.444,7.28-1.107,9.725l97.629,55.012c4.339,2.446,11.867,2.055,16.816-.872l62.114-36.734C460.427,159.122,460.922,154.769,456.585,152.323Z" transform="translate(-275.964 -95.705)" fill="#d4ecff"/>
        <path id="Path_672" data-name="Path 672" d="M376.521,175.045l-97.629-55.012c-2.466-1.39-3.318-3.4-2.729-5.409a5.884,5.884,0,0,0,2.508,2.519L376.3,172.155c4.337,2.446,11.867,2.055,16.816-.872l62.112-36.732a7.9,7.9,0,0,0,3.835-4.319c1.127,2.326-.092,5.124-3.615,7.206L393.34,174.173C388.389,177.1,380.86,177.491,376.521,175.045Z" transform="translate(-275.937 -71.095)" fill="#fff"/>
      </g>
      <g id="Group_150" data-name="Group 150" transform="translate(62.353 33.296)">
        <path id="Path_673" data-name="Path 673" d="M318.911,119.236c3.594-2.126,3.559-5.51-.078-7.56a14.474,14.474,0,0,0-13.1.136c-3.594,2.126-3.559,5.51.08,7.56A14.469,14.469,0,0,0,318.911,119.236Z" transform="translate(-303.064 -110.176)" fill="#fff"/>
        <path id="Path_674" data-name="Path 674" d="M327.586,124.122c3.594-2.126,3.557-5.51-.081-7.56a14.474,14.474,0,0,0-13.1.138c-3.594,2.126-3.557,5.51.081,7.56A14.474,14.474,0,0,0,327.586,124.122Z" transform="translate(-291.782 -103.819)" fill="#fff"/>
        <path id="Path_675" data-name="Path 675" d="M336.258,129.011c3.594-2.126,3.559-5.513-.081-7.563a14.476,14.476,0,0,0-13.094.138c-3.594,2.126-3.559,5.51.078,7.56A14.481,14.481,0,0,0,336.258,129.011Z" transform="translate(-280.5 -97.461)" fill="#fff"/>
      </g>
    </g>
    <g id="Group_154" data-name="Group 154" transform="translate(231.284 539.465)">
      <g id="Group_152" data-name="Group 152">
        <ellipse id="Ellipse_33" data-name="Ellipse 33" cx="50.887" cy="29.379" rx="50.887" ry="29.379" transform="translate(12.797 44.154)" fill="#efefef"/>
        <path id="Path_676" data-name="Path 676" d="M358.646,330.433V318.727h-3.375c-3.032-5.22-8.078-10.135-15.277-14.29-24.869-14.359-65.19-14.359-90.06,0-7.2,4.155-12.247,9.07-15.277,14.29h-3.371v11.61h0c-.044,9.442,6.166,18.892,18.643,26.1,24.871,14.359,65.193,14.359,90.06,0C352.429,349.254,358.648,339.843,358.646,330.433Z" transform="translate(-231.282 -281.959)" fill="#173d7a"/>
        <ellipse id="Ellipse_34" data-name="Ellipse 34" cx="63.682" cy="36.767" rx="63.682" ry="36.767" fill="#5793ce"/>
        <path id="Path_677" data-name="Path 677" d="M339.96,329.9c-24.867,14.359-65.188,14.359-90.06,0-11.918-6.882-18.061-15.813-18.556-24.83-.536,9.8,5.6,19.692,18.556,27.17,24.871,14.359,65.193,14.359,90.06,0,12.951-7.478,19.094-17.371,18.556-27.168C358.021,314.083,351.88,323.014,339.96,329.9Z" transform="translate(-231.248 -267.132)" fill="#fff"/>
      </g>
      <g id="Group_153" data-name="Group 153" transform="translate(31.311 19.335)">
        <path id="Path_678" data-name="Path 678" d="M246.57,326.586a2.857,2.857,0,0,1-1.677-2.347l.062-23.953c0-1.827,2.577-3.306,5.74-3.3s5.724,1.486,5.722,3.315l-.053,19.865,57.648-7.061c3.1-.38,6.141.764,6.8,2.552s-1.321,3.543-4.418,3.923l-64.578,7.908a9.088,9.088,0,0,1-4.8-.667C246.858,326.743,246.711,326.667,246.57,326.586Z" transform="translate(-244.893 -296.982)" fill="#fff"/>
      </g>
    </g>
    <path id="Path_679" data-name="Path 679" d="M402.631,241.123c6.053,3.5,15.868,3.5,21.922,0a10.91,10.91,0,0,0,3.062-2.533l41.044,23.7L510.545,238.1a20.162,20.162,0,0,1-7.038-2.321c-6.053-3.495-6.053-9.162,0-12.657s15.869-3.495,21.922,0a9.364,9.364,0,0,1,4.022,4.063l41.886-24.181-82.223-47.474L386.268,214.72l20.753,11.98a18.406,18.406,0,0,0-4.39,1.767C396.578,231.964,396.578,237.629,402.631,241.123Z" transform="translate(201.601 77.822)" fill="#efefef"/>
    <path id="Path_680" data-name="Path 680" d="M635.413,248.032l-89.123-51.457L504.4,220.759a9.351,9.351,0,0,0-4.022-4.063c-6.053-3.495-15.866-3.495-21.92,0s-6.053,9.162,0,12.657a20.147,20.147,0,0,0,7.038,2.321L443.61,255.857l43.121,24.9c.23-2.1,1.719-4.158,4.493-5.759,6.053-3.495,15.868-3.495,21.922,0s6.053,9.162,0,12.657a21.923,21.923,0,0,1-9.976,2.593l29.6,17.09,102.833-59.181C635.539,248.115,635.482,248.071,635.413,248.032Z" transform="translate(276.19 131.21)" fill="#efefef"/>
    <path id="Path_681" data-name="Path 681" d="M474.864,275.36a20.113,20.113,0,0,0-6.879-2.3l41.828-24.149-41.044-23.7a10.951,10.951,0,0,1-3.062,2.535c-6.053,3.495-15.868,3.495-21.922,0s-6.053-9.162,0-12.657a18.411,18.411,0,0,1,4.39-1.769l-29.761-17.18L315.8,255.2a15.543,15.543,0,0,0,2.209,1.542l89.123,51.455,41.826-24.147a9.456,9.456,0,0,0,3.983,3.971c6.056,3.495,15.868,3.495,21.922,0S480.918,278.855,474.864,275.36Z" transform="translate(109.94 130.65)" fill="#efefef"/>
    <path id="Path_682" data-name="Path 682" d="M540.636,268.181a21.9,21.9,0,0,0,9.976-2.6c6.053-3.495,6.053-9.162,0-12.657s-15.869-3.495-21.922,0c-2.777,1.6-4.263,3.663-4.493,5.761l-43.121-24.9-41.828,24.149a20.1,20.1,0,0,1,6.879,2.3c6.053,3.495,6.053,9.162,0,12.657s-15.866,3.495-21.92,0a9.429,9.429,0,0,1-3.983-3.971L378.4,293.076l89.123,51.455c.228.131.495.221.729.343l102.776-59.146Z" transform="translate(191.361 179.624)" fill="#efefef"/>
    <g id="Group_163" data-name="Group 163" transform="translate(401.963 138.266)">
      <g id="Group_156" data-name="Group 156" transform="translate(143.926)">
        <path id="Path_683" data-name="Path 683" d="M588.911,174.628l-80.1-46.246c-9.07-5.237-23.774-5.237-32.844,0l-84.02,48.507-23.926-9.771V190.7l38.927,22.474v15.678c-.163,2.892,1.647,5.814,5.469,8.021,7.333,4.233,19.221,4.233,26.553,0a13.209,13.209,0,0,0,3.709-3.069l49.713,28.7,50.735-29.291h0V212.262c6.235-.939,13.14-.007,18.024,2.814A11.32,11.32,0,0,1,566.025,220l50.735-29.291V167.121Z" transform="translate(-368.022 -100.868)" fill="#5738a5"/>
        <path id="Path_684" data-name="Path 684" d="M516.39,164.651l-.819,1.116.46.021-45.641,26.351-49.713-28.7a13.209,13.209,0,0,1-3.709,3.069c-7.333,4.233-19.221,4.233-26.553,0-2.966-1.714-4.712-3.858-5.278-6.083-.831,3.274.913,6.725,5.278,9.245,7.333,4.233,19.221,4.233,26.553,0a13.209,13.209,0,0,0,3.709-3.069l49.713,28.7,50.735-29.294v-3.159Z" transform="translate(-346.02 -54.083)" fill="#fff"/>
        <path id="Path_685" data-name="Path 685" d="M543.128,222.967a24.51,24.51,0,0,1-8.527-2.814c-7.33-4.233-7.333-11.1,0-15.33s19.221-4.231,26.551,0a11.312,11.312,0,0,1,4.873,4.924l50.735-29.291L508.812,118.13c-9.07-5.234-23.774-5.237-32.844,0L368.022,180.454l49.713,28.7a22.358,22.358,0,0,0-5.317,2.142c-7.333,4.233-7.333,11.1,0,15.33s19.221,4.233,26.553,0a13.208,13.208,0,0,0,3.709-3.069l49.713,28.7Z" transform="translate(-368.022 -114.203)" fill="#744ed5"/>
        <g id="Group_155" data-name="Group 155" transform="translate(0 66.25)">
          <path id="Path_686" data-name="Path 686" d="M417.735,171.7,368.022,143v3.161l46.333,26.749A24.355,24.355,0,0,1,417.735,171.7Z" transform="translate(-368.022 -142.998)" fill="#fff"/>
          <path id="Path_687" data-name="Path 687" d="M474.945,172.29a11.312,11.312,0,0,0-4.873-4.924c-7.33-4.231-19.219-4.231-26.551,0-4.365,2.522-6.109,5.971-5.278,9.247.566-2.227,2.312-4.371,5.278-6.086,7.333-4.233,19.221-4.233,26.551,0a11.313,11.313,0,0,1,4.873,4.924l50.735-29.294V143Z" transform="translate(-276.941 -142.997)" fill="#fff"/>
        </g>
      </g>
      <g id="Group_158" data-name="Group 158" transform="translate(296.987 89.594)">
        <path id="Path_688" data-name="Path 688" d="M655.559,219.194l-96.645-55.8L508.18,192.689a11.306,11.306,0,0,0-4.871-4.924,24.778,24.778,0,0,0-8.975-2.876c-1.634-2.128-7.1-8.656-7.643-8.81-.64-.182-15.422-4.457-15.422-4.457V195.3c-.057,2.816,1.767,5.644,5.49,7.793a24.432,24.432,0,0,0,8.524,2.812l-25.525,14.739-25.21-9.033V235.2l52.228,30.152c.281-2.538,2.082-5.034,5.444-6.974a27.7,27.7,0,0,1,14.47-3.143v21.614l52.23,30.156,107.946-62.324c4.636-2.676,6.886-6.2,6.783-9.712l.009.007V211.856Z" transform="translate(-434.548 -139.81)" fill="#396caa"/>
        <path id="Path_689" data-name="Path 689" d="M457.249,189.49V231.4c.283-2.538,2.082-5.029,5.441-6.967,7.33-4.233,19.219-4.233,26.551,0a13.246,13.246,0,0,1,3.688,3.044,48.96,48.96,0,0,1,12.194-2.133V189.49Z" transform="translate(-405.019 -105.866)" fill="#173d7a"/>
        <path id="Path_690" data-name="Path 690" d="M488.813,163.4l-.373.216V306.787l.377.219,107.946-62.324c4.636-2.676,6.886-6.2,6.783-9.712l.009.007V211.856l-18.1,7.337Z" transform="translate(-364.446 -139.81)" fill="#173d7a"/>
        <path id="Path_691" data-name="Path 691" d="M465.9,209.28v-6.826l5.911,3.413Z" transform="translate(-393.762 -89.001)" fill="#396caa"/>
        <path id="Path_692" data-name="Path 692" d="M632.7,185.04c-.591,2.887-2.786,5.685-6.622,7.9L518.133,255.262l-45.526-26.284c-.051-.716-.26-2.158-.26-2.158l-6.444-1.712v3.161l52.23,30.154L626.079,196.1C631.311,193.081,633.506,188.977,632.7,185.04Z" transform="translate(-393.762 -111.654)" fill="#fff"/>
        <path id="Path_693" data-name="Path 693" d="M666.863,215.468,558.915,153.144,508.18,182.435a11.314,11.314,0,0,0-4.871-4.921c-7.333-4.233-19.219-4.233-26.551,0s-7.333,11.1,0,15.33a24.481,24.481,0,0,0,8.524,2.812l-50.735,29.291,52.23,30.156c.278-2.542,2.08-5.036,5.441-6.978,7.333-4.231,19.221-4.231,26.553,0s7.333,11.094,0,15.328a26.527,26.527,0,0,1-12.084,3.143l52.23,30.154,107.946-62.321C675.932,229.194,675.932,220.7,666.863,215.468Z" transform="translate(-434.548 -153.144)" fill="#d4ecff"/>
        <g id="Group_157" data-name="Group 157" transform="translate(0 33.614)">
          <path id="Path_694" data-name="Path 694" d="M455.992,177a21.723,21.723,0,0,0,4.592,1.921l3.932-2.271a24.481,24.481,0,0,1-8.524-2.812c-2.968-1.714-4.712-3.858-5.278-6.086C449.881,171.028,451.627,174.479,455.992,177Z" transform="translate(-413.782 -167.754)" fill="#fff"/>
          <path id="Path_695" data-name="Path 695" d="M524.051,216.777c.831-3.274-.913-6.725-5.278-9.245-7.333-4.233-19.221-4.233-26.553,0-3.361,1.942-5.163,4.436-5.441,6.978l-52.23-30.156v3.161l52.23,30.154c.278-2.54,2.08-5.034,5.441-6.976,7.333-4.233,19.221-4.233,26.553,0C521.739,212.405,523.485,214.552,524.051,216.777Z" transform="translate(-434.548 -146.164)" fill="#fff"/>
        </g>
      </g>
      <g id="Group_160" data-name="Group 160" transform="translate(0 89.592)">
        <path id="Path_696" data-name="Path 696" d="M544.585,235.2V211.613L519.8,220.887,494.872,206.5a13.207,13.207,0,0,1-3.709,3.069c-7.333,4.233-19.221,4.233-26.553,0-7.162-4.137-7.307-10.777-.474-15.026l5.791,3.239V168.51H451.988l-1.778,12.2-30-17.316-95.487,55.129-19.26-6.912V235.2h0c0,3.43,2.269,6.863,6.8,9.479L420.219,307l50.661-29.25a11.443,11.443,0,0,0,4.825,4.811c7.33,4.231,19.218,4.231,26.551,0,3.806-2.2,5.619-5.105,5.474-7.984v-18.1Z" transform="translate(-305.467 -139.807)" fill="#173d7a"/>
        <path id="Path_697" data-name="Path 697" d="M420.214,163.4l-95.487,55.129-19.26-6.912V235.2h0c0,3.43,2.269,6.863,6.8,9.479L420.219,307V163.4Z" transform="translate(-305.467 -139.807)" fill="#396caa"/>
        <path id="Path_698" data-name="Path 698" d="M378.773,165.728l-.619,1.594.147.143c-.191.1-.387.189-.568.294-4.365,2.519-6.109,5.971-5.278,9.245.566-2.225,2.312-4.371,5.278-6.083a22.263,22.263,0,0,1,5.317-2.142v-3.161Z" transform="translate(-218.591 -136.916)" fill="#fff"/>
        <path id="Path_699" data-name="Path 699" d="M502.255,256.984a24.3,24.3,0,0,0-8.333-2.786l50.663-29.25-49.713-28.7a13.247,13.247,0,0,1-3.709,3.069c-7.333,4.233-19.221,4.233-26.553,0s-7.333-11.1,0-15.33a22.359,22.359,0,0,1,5.317-2.142l-49.713-28.7L312.268,215.467c-9.067,5.234-9.067,13.724,0,18.961l107.948,62.324,50.661-29.25a11.417,11.417,0,0,0,4.825,4.811c7.333,4.233,19.218,4.233,26.551,0S509.587,261.215,502.255,256.984Z" transform="translate(-305.467 -153.143)" fill="#5793ce"/>
        <g id="Group_159" data-name="Group 159" transform="translate(0.017 71.805)">
          <path id="Path_700" data-name="Path 700" d="M502.245,230.824c-7.332,4.233-19.221,4.233-26.551,0a11.418,11.418,0,0,1-4.825-4.811l-50.661,29.25L312.261,192.939c-3.838-2.216-6.033-5.013-6.624-7.9-.805,3.939,1.39,8.041,6.624,11.062l107.948,62.324,50.661-29.25a11.418,11.418,0,0,0,4.825,4.811c7.33,4.233,19.219,4.233,26.551,0,4.365-2.519,6.109-5.971,5.278-9.244C506.957,226.965,505.213,229.112,502.245,230.824Z" transform="translate(-305.475 -183.46)" fill="#fff"/>
          <path id="Path_701" data-name="Path 701" d="M387.376,213.6a28.347,28.347,0,0,1,3.9.909l46.761-27v-3.161Z" transform="translate(-198.939 -184.352)" fill="#fff"/>
        </g>
      </g>
      <g id="Group_162" data-name="Group 162" transform="translate(143.93 185.226)">
        <path id="Path_702" data-name="Path 702" d="M592.5,262.76l-27.971-16.149a26.545,26.545,0,0,0,12.081-3.141c3.069-1.772,4.834-4.006,5.336-6.311l.159.108v-1.415a.69.69,0,0,0,0-.1V212.113l-23.657,9.2,5.441,3.672a27.375,27.375,0,0,0-13.83,3.159c-3.364,1.94-5.163,4.436-5.444,6.976L492.391,204.96,461.7,222.681l-3.187-10.641-16.784-1.415v26.217l5.128-1.3a20.51,20.51,0,0,1,3.2,1.456c7.333,4.233,7.333,11.1,0,15.33s-19.218,4.231-26.551,0a11.427,11.427,0,0,1-4.825-4.809L390.643,263.7l-22.619-10.526v23.585l107.948,62.326c9.07,5.237,23.774,5.237,32.844,0L616.76,276.765V253.18Z" transform="translate(-368.024 -181.375)" fill="#5738a5"/>
        <path id="Path_703" data-name="Path 703" d="M408.39,210.206a20.8,20.8,0,0,0-3.778-1.638l-.456-.895-4.1-.251v3.161a24.337,24.337,0,0,1,8.331,2.784c2.968,1.714,4.712,3.858,5.278,6.086C414.5,216.179,412.755,212.728,408.39,210.206Z" transform="translate(-326.353 -178.172)" fill="#fff"/>
        <path id="Path_704" data-name="Path 704" d="M564.532,236.36a26.517,26.517,0,0,0,12.081-3.143c7.333-4.233,7.333-11.1,0-15.328s-19.221-4.233-26.551,0c-3.364,1.942-5.165,4.436-5.444,6.976l-52.228-30.154-50.661,29.25a24.338,24.338,0,0,1,8.331,2.784c7.333,4.233,7.333,11.1,0,15.33s-19.218,4.233-26.551,0a11.418,11.418,0,0,1-4.825-4.811l-50.661,29.25,107.948,62.324c9.07,5.237,23.774,5.237,32.844,0L616.76,266.514Z" transform="translate(-368.024 -194.709)" fill="#744ed5"/>
        <g id="Group_161" data-name="Group 161" transform="translate(0 32.425)">
          <path id="Path_705" data-name="Path 705" d="M470.792,208.8c-.566,2.227-2.31,4.371-5.278,6.083a26.517,26.517,0,0,1-12.081,3.143l4.595,2.653a23.658,23.658,0,0,0,7.487-2.634C469.879,215.527,471.625,212.076,470.792,208.8Z" transform="translate(-256.925 -208.802)" fill="#fff"/>
          <path id="Path_706" data-name="Path 706" d="M508.816,288.241c-9.07,5.237-23.774,5.237-32.844,0L368.024,225.917v3.161L475.972,291.4c9.07,5.237,23.774,5.237,32.844,0L616.76,229.081v-3.161Z" transform="translate(-368.024 -186.539)" fill="#fff"/>
        </g>
      </g>
    </g>
    <g id="Group_169" data-name="Group 169" transform="translate(391.069 268.111)">
      <g id="Group_168" data-name="Group 168">
        <g id="Group_165" data-name="Group 165" transform="translate(6.149)">
          <path id="Path_707" data-name="Path 707" d="M342.4,319.223s-8.165-4.118-13.181,2.013-12.183,20.606-12.4,30.386,7.74,9.12,12.473,6.806,18.558-22.371,19.4-26.3-.987-9.242-2.319-10.282S342.4,319.223,342.4,319.223Z" transform="translate(-285.964 20.878)" fill="#5793ce"/>
          <path id="Path_708" data-name="Path 708" d="M337.448,318.707l.377,8.46a4.794,4.794,0,0,1-2.391,4.4,9.415,9.415,0,0,1-6.3.98c-6.152-.989-6.7-2.747-7.139-11.2S337.448,318.707,337.448,318.707Z" transform="translate(-279.23 19.427)" fill="#d4ecff"/>
          <g id="Group_164" data-name="Group 164" transform="translate(0 150.469)">
            <path id="Path_709" data-name="Path 709" d="M329.41,312.152s-8.165-4.116-13.179,2.015-12.183,20.6-12.406,30.384,7.74,9.12,12.473,6.806,18.558-22.371,19.4-26.3-.987-9.242-2.317-10.282S329.41,312.152,329.41,312.152Z" transform="translate(-302.863 -138.786)" fill="#5793ce"/>
            <path id="Path_710" data-name="Path 710" d="M324.457,311.637l.38,8.46a4.8,4.8,0,0,1-2.391,4.4,9.423,9.423,0,0,1-6.3.978c-6.15-.987-6.7-2.745-7.139-11.2S324.457,311.637,324.457,311.637Z" transform="translate(-296.128 -140.238)" fill="#d4ecff"/>
            <path id="Path_711" data-name="Path 711" d="M404.592,252.131c-2.418-39.323-42.585,5.784-42.585,5.784l-27.49,26.944-24.756,27.2a24.4,24.4,0,0,0-6.148,19.6l10.013,76.255a7.5,7.5,0,0,0,7.514,6.514,25.384,25.384,0,0,0,3.711-.327c8.932-1.39,8.274-9.884,8.274-9.884l-1.831-71.32,51.989-31.339S407.008,291.451,404.592,252.131Z" transform="translate(-303.404 -236.037)" fill="#173d7a"/>
          </g>
          <path id="Path_712" data-name="Path 712" d="M417.581,258.641c-2.416-39.32-42.583,5.784-42.583,5.784l-27.492,26.947-24.754,27.2a24.4,24.4,0,0,0-6.15,19.6l10.015,76.253a7.494,7.494,0,0,0,7.514,6.513,25.662,25.662,0,0,0,3.709-.324c8.934-1.392,8.276-9.886,8.276-9.886l-1.831-71.32,51.989-31.339S420,297.962,417.581,258.641Z" transform="translate(-286.507 -77.098)" fill="#173d7a"/>
          <path id="Path_713" data-name="Path 713" d="M383.261,197.157c30.453,12.624,29.841,30.626,29.841,30.626s-5.964,65.993-3.927,110.067c.849,18.425-97.891,19.831-83.166-29.323,17.364-57.957,10.855-104.877,18.984-111.954S375.383,193.89,383.261,197.157Z" transform="translate(-275.949 -141.836)" fill="#744ed5"/>
          <path id="Path_714" data-name="Path 714" d="M371.657,210.542c-1.592,6.185-9.693,9.442-18.093,7.277s-13.92-8.929-12.325-15.112,9.693-9.442,18.093-7.277S373.249,204.36,371.657,210.542Z" transform="translate(-254.548 -139.26)" fill="#ffc2b0"/>
          <path id="Path_715" data-name="Path 715" d="M362.639,206.549l-5.6,6.086a3.684,3.684,0,0,0-.95,2.922l3.851,33.309a3.631,3.631,0,0,1-.722,2.621l-12.054,15.77a1.089,1.089,0,0,1-1.9-.331l-6.562-20.656a3.626,3.626,0,0,1,.067-2.391l11.548-30.253a3.693,3.693,0,0,0,.161-2.075l-1.689-8.021Z" transform="translate(-257.722 -127.856)" fill="#fff"/>
          <path id="Path_716" data-name="Path 716" d="M359.579,220.775a22.265,22.265,0,0,1-5.559-.72c-9.162-2.361-15.162-9.937-13.37-16.888.886-3.449,3.5-6.2,7.358-7.756a21.354,21.354,0,0,1,23.18,5.973c2.63,3.221,3.587,6.9,2.7,10.347v0c-.89,3.449-3.5,6.2-7.36,7.754A18.612,18.612,0,0,1,359.579,220.775Zm-4.627-23.737a15.654,15.654,0,0,0-5.855,1.077c-2.977,1.194-4.977,3.249-5.628,5.78-1.39,5.4,3.67,11.38,11.281,13.342a17.311,17.311,0,0,0,10.689-.451c2.977-1.2,4.977-3.251,5.625-5.782h0c.653-2.529-.106-5.292-2.133-7.779a17.335,17.335,0,0,0-9.146-5.561A19.422,19.422,0,0,0,354.952,197.038Z" transform="translate(-255.368 -140.085)" fill="#fff"/>
          <path id="Path_717" data-name="Path 717" d="M344.89,197.517s.262,1.222-.265,10.871c-.166,3.035,10.457,5.867,13.2,3.122s1.647-5.6,2.305-15.926S344.89,197.517,344.89,197.517Z" transform="translate(-249.788 -143.569)" fill="#ffc2b0"/>
          <path id="Path_718" data-name="Path 718" d="M360.134,193.246s-2.616,9.571-15.51,13.243l.2-8.7Z" transform="translate(-249.787 -141.23)" fill="#ea9c92"/>
          <path id="Path_719" data-name="Path 719" d="M381,192.614a23.441,23.441,0,1,1-28.562-16.828A23.439,23.439,0,0,1,381,192.614Z" transform="translate(-262.486 -164.92)" fill="#ffc2b0"/>
          <path id="Path_720" data-name="Path 720" d="M363.783,188.8s-12.905,5.527-21.841,5.591-6.967-7.42-6.967-7.42l26.526-3.833Z" transform="translate(-262.577 -154.379)" fill="#ea9c92"/>
          <path id="Path_721" data-name="Path 721" d="M345.039,206.516s11.242-4.774,21.105-2.784a10.352,10.352,0,0,1,5.959,3.543,3.528,3.528,0,0,0,1.8,1.3c1.749.4,4.613-6.861,8.011-7.027s5.667,2.243,2.881,6.7-1.845,9.456-.564,10.172,17.159-10.363,5.161-34.132-44.75-10.305-49.492-5.487c0,0-5,4.351-9.056.479C330.848,179.289,326.3,213.391,345.039,206.516Z" transform="translate(-268.339 -170.638)" fill="#d4ecff"/>
          <path id="Path_722" data-name="Path 722" d="M377.642,234.69v17.831a7.264,7.264,0,0,1-2.37,5.37l-36.633,33.4,4.164,6.366,50.468-33.092a9.839,9.839,0,0,0,4.006-6.932l3.451-33.092Z" transform="translate(-257.572 -100.528)" fill="#ffc2b0"/>
          <path id="Path_723" data-name="Path 723" d="M371.608,204.119s11.113,16.713,15.252,60.706c0,0-18.984,6.138-29.758,2.655S371.608,204.119,371.608,204.119Z" transform="translate(-237.032 -127.087)" fill="#744ed5"/>
          <path id="Path_724" data-name="Path 724" d="M357.311,213.3s-4.353,23.286-4.6,34.229a6.989,6.989,0,0,0,4.6,6.748h0Z" transform="translate(-239.268 -115.141)" fill="#5738a5"/>
        </g>
        <g id="Group_166" data-name="Group 166" transform="translate(5.856 177.446)">
          <path id="Path_725" data-name="Path 725" d="M412.107,281.662l-8.1-1.07-52.265-30.175a7.268,7.268,0,0,0-6.539.269l-37.033,21.374-4.9-.644v4.873h0a1.906,1.906,0,0,0,1.125,1.716l59.231,34.2a7.258,7.258,0,0,0,6.537-.272l40.333-23.277a2.642,2.642,0,0,0,1.6-2.2h0Z" transform="translate(-303.276 -245.16)" fill="#5793ce"/>
          <path id="Path_726" data-name="Path 726" d="M372.838,256.551l-3.713-2.142H328.3l-20.125,11.61-4.9-.644v4.873h0a1.906,1.906,0,0,0,1.125,1.716l59.231,34.2a6.127,6.127,0,0,0,3.373.633Z" transform="translate(-303.276 -239.117)" fill="#396caa"/>
          <path id="Path_727" data-name="Path 727" d="M305.45,259.46l-2.172-.285v4.873h0a1.906,1.906,0,0,0,1.125,1.716l1.042.6Z" transform="translate(-303.276 -232.918)" fill="#5793ce"/>
          <path id="Path_728" data-name="Path 728" d="M329.772,281.906a7.6,7.6,0,0,0,5.554-.345v-8.292h-5.554Z" transform="translate(-268.813 -214.584)" fill="#5793ce"/>
          <path id="Path_729" data-name="Path 729" d="M363.64,309.935l-59.231-34.2c-1.677-.966-1.466-2.657.469-3.773l40.331-23.279a7.276,7.276,0,0,1,6.539-.271l59.231,34.2c1.675.966,1.466,2.657-.469,3.773l-40.333,23.277A7.257,7.257,0,0,1,363.64,309.935Z" transform="translate(-303.277 -247.763)" fill="#fff"/>
          <path id="Path_730" data-name="Path 730" d="M357.453,297.687,308.2,269.254c-1.392-.805-1.217-2.211.391-3.138l21.614-12.155a6.048,6.048,0,0,1,5.434-.225l49.251,28.435c1.392.805,1.219,2.209-.391,3.138l-21.611,12.153A6.039,6.039,0,0,1,357.453,297.687Z" transform="translate(-298.093 -240.698)" fill="#d4ecff"/>
        </g>
        <path id="Path_731" data-name="Path 731" d="M323.034,248.838l-.614,4.089a30.251,30.251,0,0,0,.267,10.478l.729,3.6a5.072,5.072,0,0,0,4.059,3.98h0a2.794,2.794,0,0,0,3.276-2.439l.978-8.736s2.236,2.929,3.315,2.929-1.208-8.75-3.649-13.7S323.034,248.838,323.034,248.838Z" transform="translate(-272.955 -71.59)" fill="#ffc2b0"/>
        <path id="Path_732" data-name="Path 732" d="M344.752,226.417,338.4,239a24.66,24.66,0,0,0-2.6,9.548l-2.761,43.027-8.361-.2-3.8-48.319a17.719,17.719,0,0,1,.216-4.466l4.335-24.5Z" transform="translate(-274.596 -114.123)" fill="#ffc2b0"/>
        <g id="Group_167" data-name="Group 167" transform="translate(0 151.827)">
          <path id="Path_733" data-name="Path 733" d="M364.361,327.705l-4.967-6.484-52.228-30.239a7.256,7.256,0,0,1-3.026-5.8l.044-42.76-3-3.921L304,236.868l0,0a1.906,1.906,0,0,1,2.048.117l59.19,34.27a7.269,7.269,0,0,1,3.026,5.8l-.051,46.568a2.633,2.633,0,0,1-1.107,2.482h0Z" transform="translate(-300.148 -236.627)" fill="#173d7a"/>
          <path id="Path_734" data-name="Path 734" d="M328.243,303.186l-3.711-2.149-20.369-35.379.021-23.236-3-3.921L304,236.868l0,0a1.906,1.906,0,0,1,2.048.117l59.19,34.27a6.115,6.115,0,0,1,2.229,2.607Z" transform="translate(-300.148 -236.627)" fill="#396caa"/>
          <path id="Path_735" data-name="Path 735" d="M302.513,240.243l-1.332-1.742L304,236.868l0,0a1.906,1.906,0,0,1,2.048.117l1.042.605Z" transform="translate(-300.148 -236.627)" fill="#5793ce"/>
          <path id="Path_736" data-name="Path 736" d="M332.7,251.844a7.583,7.583,0,0,1,2.473,4.986l-5.784,3.341-2.772-4.813Z" transform="translate(-267.065 -216.834)" fill="#274f89"/>
          <path id="Path_737" data-name="Path 737" d="M363.007,271.97,303.82,237.7c-1.675-.971-3.035.055-3.037,2.289l-.051,46.568a7.268,7.268,0,0,0,3.028,5.8l59.188,34.268c1.675.971,3.035-.055,3.037-2.289l.051-46.568A7.265,7.265,0,0,0,363.007,271.97Z" transform="translate(-300.732 -235.706)" fill="#5793ce"/>
        </g>
        <path id="Path_738" data-name="Path 738" d="M351.483,259.915l-.95,1.965a13.14,13.14,0,0,1-4.947,5.485l-5.879,3.624a5.855,5.855,0,0,1-6,.138c-.067-.039-.133-.078-.2-.122a3.536,3.536,0,0,1-.5-5.432l6.143-6.318s-3.451,2.646-4.42,1.581c-.709-.78,3.348-4.59,6.463-4.714s6.127-2.572,6.127-2.572Z" transform="translate(-260.103 -62.789)" fill="#ffc2b0"/>
        <path id="Path_739" data-name="Path 739" d="M351.549,194.389s-22.525,24.506-31.611,46.989c0,0,7.7,13.876,26.556,19.322S351.549,194.389,351.549,194.389Z" transform="translate(-275.748 -139.744)" fill="#744ed5"/>
        <path id="Path_740" data-name="Path 740" d="M332.437,242.516l3.649-35.266-8.6,33.042A49.552,49.552,0,0,0,332.437,242.516Z" transform="translate(-265.931 -123.014)" fill="#5738a5"/>
        <path id="Path_741" data-name="Path 741" d="M344.432,193.18l-6.053-1.663s2.89,4.546,7.107,5.7,4.875-2.411,4.875-2.411Z" transform="translate(-251.761 -143.48)" fill="#fff"/>
      </g>
      <path id="Path_742" data-name="Path 742" d="M358.871,189.935a3.371,3.371,0,1,1-3.371-3.371A3.371,3.371,0,0,1,358.871,189.935Z" transform="translate(-233.874 -149.922)" fill="#fff"/>
    </g>
    <g id="Group_170" data-name="Group 170" transform="translate(856.831 504.241)">
      <path id="Path_743" data-name="Path 743" d="M534.834,334.738l-31.666-18.282,31.665-18.282L566.5,316.456Z" transform="translate(-503.168 -240.872)" fill="#efefef"/>
      <path id="Path_744" data-name="Path 744" d="M548.6,317.778,516.932,336.06V299.5L548.6,281.215Z" transform="translate(-485.266 -262.933)" fill="#5738a5"/>
      <path id="Path_745" data-name="Path 745" d="M534.834,309.833,503.168,291.55l31.665-18.282L566.5,291.551Z" transform="translate(-503.168 -273.269)" fill="#744ed5"/>
      <path id="Path_746" data-name="Path 746" d="M534.834,336.06l-31.666-18.282V281.215L534.834,299.5Z" transform="translate(-503.168 -262.933)" fill="#744ed5"/>
    </g>
  </g>
</svg>
