<svg id="Group_90" data-name="Group 90" xmlns="http://www.w3.org/2000/svg" width="22.474" height="21.773" viewBox="0 0 22.474 21.773">
  <g id="Linecons_big-star">
    <path id="star" d="M22.392,8.616a1.617,1.617,0,0,0-1.3-1.061l-5.848-.87L12.707,1.408a1.642,1.642,0,0,0-2.939,0L7.227,6.685l-5.848.87A1.615,1.615,0,0,0,.084,8.616a1.55,1.55,0,0,0,.377,1.6L4.747,14.5l-.994,5.936a1.562,1.562,0,0,0,.666,1.547,1.657,1.657,0,0,0,1.72.092l5.1-2.745,5.1,2.745a1.657,1.657,0,0,0,1.72-.092,1.563,1.563,0,0,0,.665-1.547L17.727,14.5l4.287-4.279A1.555,1.555,0,0,0,22.392,8.616ZM16.567,13.4a1.556,1.556,0,0,0-.44,1.358l.995,5.936-5.1-2.743a1.659,1.659,0,0,0-1.57,0l-5.1,2.743.995-5.936a1.554,1.554,0,0,0-.44-1.358L1.623,9.117,7.47,8.247a1.619,1.619,0,0,0,1.224-.891L11.238,2.08,13.78,7.357A1.622,1.622,0,0,0,15,8.247l5.849.871Z" transform="translate(0 -0.499)" fill="#fb0"/>
  </g>
  <path id="Path_507" data-name="Path 507" d="M621.37,2328.6l6.8-1.348,2.756-5.85,1.041-.184,2.94,5.022v.766l2.634.7,4.1.888v.765l-4.1,4.257-.214,1.838.766,5.574-.551.643-4.778-2.909-1.654-.214-5.268,2.848-.949-.367.4-3.522.735-3.522-4.471-4.318Z" transform="translate(-620.408 -2320.364)" fill="#fb0"/>
</svg>
