<svg xmlns="http://www.w3.org/2000/svg" width="85.811" height="85" viewBox="0 0 85.811 85">
  <g id="Group_35" data-name="Group 35" transform="translate(-916.787 -497.249)">
    <g id="Path_279" data-name="Path 279" transform="translate(998.063 537.503)">
      <path id="Path_307" data-name="Path 307" d="M1000.331,538.387a1.75,1.75,0,1,1,0,3.5h-1.767v-3.5Z" transform="translate(-998.063 -537.892)" fill="#57b8ff"/>
      <path id="Path_308" data-name="Path 308" d="M1000.331,542.379h-2.268v-4.492h2.268a2.246,2.246,0,1,1,0,4.492Zm-1.268-.991h1.268a1.256,1.256,0,1,0,0-2.511h-1.268Z" transform="translate(-998.063 -537.887)" fill="#57b8ff"/>
    </g>
    <g id="Path_280" data-name="Path 280" transform="translate(960.959 537.503)">
      <path id="Path_309" data-name="Path 309" d="M961.459,538.387h37.1v3.5h-37.1Z" transform="translate(-960.959 -537.892)" fill="#57b8ff"/>
      <path id="Path_310" data-name="Path 310" d="M999.059,542.379h-38.1v-4.492h38.1Zm-37.1-.991h36.1v-2.511h-36.1Z" transform="translate(-960.959 -537.887)" fill="#57b8ff"/>
    </g>
    <g id="Path_281" data-name="Path 281" transform="translate(959.687 539.748)">
      <path id="Path_311" data-name="Path 311" d="M993.263,582.157H959.692a1.742,1.742,0,0,0,1.767-1.716v-1.784h31.8a5.268,5.268,0,0,0,5.3-5.238V541.908h1.767a1.742,1.742,0,0,0,1.771-1.712v33.21A8.8,8.8,0,0,1,993.263,582.157Z" transform="translate(-959.687 -540.153)" fill="#57b8ff"/>
      <path id="Path_312" data-name="Path 312" d="M959.708,582.654h-.021l.035-.991a1.247,1.247,0,0,0,1.237-1.227v-2.273h32.3a4.789,4.789,0,0,0,3.387-1.387,4.69,4.69,0,0,0,1.408-3.357v-32h2.267a1.128,1.128,0,0,0,.894-.353,1.226,1.226,0,0,0,.377-.868v-.041h1v33.255a9.307,9.307,0,0,1-9.334,9.246H959.708Zm1.863-.991h31.692a8.31,8.31,0,0,0,8.334-8.255V542.03a2.213,2.213,0,0,1-1.277.375h-1.261v31a5.684,5.684,0,0,1-1.7,4.068,5.781,5.781,0,0,1-4.092,1.676H961.959v1.254A2.276,2.276,0,0,1,961.571,581.663Z" transform="translate(-959.687 -540.153)" fill="#57b8ff"/>
    </g>
    <g id="Path_282" data-name="Path 282" transform="translate(959.673 497.249)">
      <path id="Path_313" data-name="Path 313" d="M1002.1,506.5v33.254a1.743,1.743,0,0,0-1.733-1.75h-1.8V506.5a5.27,5.27,0,0,0-5.288-5.25H961.464V499.5a1.742,1.742,0,0,0-1.733-1.75h33.532A8.8,8.8,0,0,1,1002.1,506.5Z" transform="translate(-959.673 -497.254)" fill="#57b8ff"/>
      <path id="Path_314" data-name="Path 314" d="M1002.6,539.753l-1-.037a1.246,1.246,0,0,0-1.238-1.223h-2.3v-32a4.692,4.692,0,0,0-1.4-3.361,4.788,4.788,0,0,0-3.389-1.395h-32.31v-2.245a1.244,1.244,0,0,0-1.236-1.255h-.036l-.019-.991h33.59a9.306,9.306,0,0,1,9.334,9.246v33.258Zm-3.534-2.251h1.267a2.34,2.34,0,0,1,1.267.382V506.495a8.309,8.309,0,0,0-8.334-8.255H961.586a2.2,2.2,0,0,1,.378,1.26v1.249h31.3a5.791,5.791,0,0,1,4.107,1.686,5.671,5.671,0,0,1,1.692,4.06Z" transform="translate(-959.673 -497.249)" fill="#57b8ff"/>
    </g>
    <g id="Path_283" data-name="Path 283" transform="translate(971.561 518.251)">
      <path id="Path_315" data-name="Path 315" d="M987.961,518.951a1.75,1.75,0,1,1,0,3.5H973.828a1.75,1.75,0,1,1,0-3.5h14.134Z" transform="translate(-971.561 -518.456)" fill="#57b8ff"/>
      <path id="Path_316" data-name="Path 316" d="M987.961,522.942H973.828a2.246,2.246,0,1,1,0-4.491h14.134a2.246,2.246,0,1,1,0,4.491Zm-14.133-3.5a1.255,1.255,0,1,0,0,2.51h14.133a1.255,1.255,0,1,0,0-2.51Z" transform="translate(-971.561 -518.451)" fill="#57b8ff"/>
    </g>
    <g id="Path_284" data-name="Path 284" transform="translate(971.561 553.255)">
      <path id="Path_317" data-name="Path 317" d="M987.961,554.289a1.75,1.75,0,1,1,0,3.5H973.828a1.75,1.75,0,1,1,0-3.5h14.133Z" transform="translate(-971.561 -553.794)" fill="#57b8ff"/>
      <path id="Path_318" data-name="Path 318" d="M987.961,558.28H973.828a2.246,2.246,0,1,1,0-4.491h14.133a2.246,2.246,0,1,1,0,4.491Zm-14.133-3.5a1.255,1.255,0,1,0,0,2.51h14.133a1.255,1.255,0,1,0,0-2.51Z" transform="translate(-971.561 -553.789)" fill="#57b8ff"/>
    </g>
    <g id="Path_285" data-name="Path 285" transform="translate(971.561 563.756)">
      <path id="Path_319" data-name="Path 319" d="M987.961,564.89a1.75,1.75,0,1,1,0,3.5H973.828a1.75,1.75,0,1,1,0-3.5h14.133Z" transform="translate(-971.561 -564.396)" fill="#57b8ff"/>
      <path id="Path_320" data-name="Path 320" d="M987.961,568.882H973.828a2.246,2.246,0,1,1,0-4.491h14.133a2.246,2.246,0,1,1,0,4.491Zm-14.133-3.5a1.255,1.255,0,1,0,0,2.51h14.133a1.255,1.255,0,1,0,0-2.51Z" transform="translate(-971.561 -564.391)" fill="#57b8ff"/>
    </g>
    <g id="Path_286" data-name="Path 286" transform="translate(957.426 577.757)">
      <path id="Path_321" data-name="Path 321" d="M961.46,579.025v1.75a1.767,1.767,0,0,1-3.534,0v-1.75Z" transform="translate(-957.426 -578.53)" fill="#57b8ff"/>
      <path id="Path_322" data-name="Path 322" d="M959.693,583.017a2.26,2.26,0,0,1-2.267-2.247v-2.246h4.534v2.246A2.26,2.26,0,0,1,959.693,583.017Zm-1.267-3.5v1.255a1.267,1.267,0,0,0,2.534,0v-1.255Z" transform="translate(-957.426 -578.525)" fill="#57b8ff"/>
    </g>
    <g id="Path_287" data-name="Path 287" transform="translate(957.426 541.004)">
      <path id="Path_323" data-name="Path 323" d="M957.926,541.92h3.534v36.749h-3.534Z" transform="translate(-957.426 -541.426)" fill="#57b8ff"/>
      <path id="Path_324" data-name="Path 324" d="M961.96,579.161h-4.534v-37.74h4.534Zm-3.534-.991h2.534V542.412h-2.534Z" transform="translate(-957.426 -541.421)" fill="#57b8ff"/>
    </g>
    <g id="Path_288" data-name="Path 288" transform="translate(957.426 537.503)">
      <path id="Path_325" data-name="Path 325" d="M957.926,538.387h3.534v3.5h-3.534Z" transform="translate(-957.426 -537.892)" fill="#57b8ff"/>
      <path id="Path_326" data-name="Path 326" d="M961.96,542.379h-4.534v-4.492h4.534Zm-3.534-.991h2.534v-2.511h-2.534Z" transform="translate(-957.426 -537.887)" fill="#57b8ff"/>
    </g>
    <g id="Path_289" data-name="Path 289" transform="translate(957.426 500.749)">
      <path id="Path_327" data-name="Path 327" d="M957.926,501.282h3.534v36.749h-3.534Z" transform="translate(-957.426 -500.787)" fill="#57b8ff"/>
      <path id="Path_328" data-name="Path 328" d="M961.96,538.522h-4.534v-37.74h4.534Zm-3.534-.991h2.534V501.773h-2.534Z" transform="translate(-957.426 -500.782)" fill="#57b8ff"/>
    </g>
    <g id="Path_290" data-name="Path 290" transform="translate(957.426 497.249)">
      <path id="Path_329" data-name="Path 329" d="M961.46,499.5v1.75h-3.534V499.5a1.767,1.767,0,0,1,3.534,0Z" transform="translate(-957.426 -497.254)" fill="#57b8ff"/>
      <path id="Path_330" data-name="Path 330" d="M961.96,501.739h-4.534v-2.245a2.267,2.267,0,0,1,4.534,0Zm-3.534-.991h2.534v-1.254a1.267,1.267,0,0,0-2.534,0Z" transform="translate(-957.426 -497.249)" fill="#57b8ff"/>
    </g>
    <g id="Path_291" data-name="Path 291" transform="translate(920.321 537.503)">
      <path id="Path_331" data-name="Path 331" d="M920.821,538.387h37.1v3.5h-37.1Z" transform="translate(-920.321 -537.892)" fill="#57b8ff"/>
      <path id="Path_332" data-name="Path 332" d="M958.421,542.379h-38.1v-4.492h38.1Zm-37.1-.991h36.1v-2.511h-36.1Z" transform="translate(-920.321 -537.887)" fill="#57b8ff"/>
    </g>
    <g id="Path_292" data-name="Path 292" transform="translate(939.757 518.251)">
      <path id="Path_333" data-name="Path 333" d="M945.557,518.951a1.75,1.75,0,1,1,0,3.5h-5.3v-3.5Z" transform="translate(-939.757 -518.456)" fill="#57b8ff"/>
      <path id="Path_334" data-name="Path 334" d="M945.557,522.942h-5.8v-4.491h5.8a2.246,2.246,0,1,1,0,4.491Zm-4.8-.991h4.8a1.255,1.255,0,1,0,0-2.51h-4.8Z" transform="translate(-939.757 -518.451)" fill="#57b8ff"/>
    </g>
    <g id="Path_293" data-name="Path 293" transform="translate(937.783 560.05)">
      <path id="Path_335" data-name="Path 335" d="M945.027,565.382a1.681,1.681,0,0,1,.059,2.392l-.059.058a1.719,1.719,0,0,1-2.415.059c-.02-.02-.04-.039-.059-.059l-4.063-4.026,2.474-2.451Z" transform="translate(-937.783 -560.656)" fill="#57b8ff"/>
      <path id="Path_336" data-name="Path 336" d="M943.793,568.847a2.213,2.213,0,0,1-1.525-.6l-4.485-4.444,3.181-3.151,4.412,4.372a2.17,2.17,0,0,1,.072,3.088l-.072.071A2.186,2.186,0,0,1,943.793,568.847Zm-4.6-5.047,3.709,3.676a1.267,1.267,0,0,0,2.151-.9,1.184,1.184,0,0,0-.375-.837l-.009-.009-3.709-3.676Z" transform="translate(-937.783 -560.649)" fill="#57b8ff"/>
    </g>
    <g id="Path_294" data-name="Path 294" transform="translate(937.783 553.224)">
      <path id="Path_337" data-name="Path 337" d="M942.554,554.814a1.761,1.761,0,0,1,2.471-.1,1.722,1.722,0,0,1,.1,2.449c-.031.034-.064.066-.1.1l-4.063,4.03-2.474-2.451Z" transform="translate(-937.783 -553.763)" fill="#57b8ff"/>
      <path id="Path_338" data-name="Path 338" d="M940.964,561.986l-3.181-3.15,4.41-4.369a2.269,2.269,0,0,1,3.172-.119,2.215,2.215,0,0,1,.128,3.147c-.046.048-.086.088-.129.127Zm-1.767-3.15,1.766,1.749,3.8-3.768a1.229,1.229,0,0,0-.077-1.742,1.259,1.259,0,0,0-1.766.07l-.014.015Z" transform="translate(-937.783 -553.758)" fill="#57b8ff"/>
    </g>
    <g id="Path_295" data-name="Path 295" transform="translate(935.299 557.596)">
      <path id="Path_339" data-name="Path 339" d="M936.006,561.33l2.475-2.451,2.475,2.451-2.475,2.452Z" transform="translate(-935.299 -558.179)" fill="#57b8ff"/>
      <path id="Path_340" data-name="Path 340" d="M938.481,564.475l-3.182-3.151,3.182-3.152,3.182,3.152Zm-1.768-3.151,1.768,1.75,1.768-1.75-1.768-1.751Z" transform="translate(-935.299 -558.172)" fill="#57b8ff"/>
    </g>
    <g id="Path_296" data-name="Path 296" transform="translate(936.223 521.75)">
      <path id="Path_341" data-name="Path 341" d="M940.257,522.484v5.25a1.767,1.767,0,0,1-3.534,0v-5.25Z" transform="translate(-936.223 -521.989)" fill="#57b8ff"/>
      <path id="Path_342" data-name="Path 342" d="M938.49,529.975a2.259,2.259,0,0,1-2.267-2.245v-5.746h4.534v5.745A2.259,2.259,0,0,1,938.49,529.975Zm-1.267-7v4.755a1.267,1.267,0,0,0,2.534,0v-4.755Z" transform="translate(-936.223 -521.984)" fill="#57b8ff"/>
    </g>
    <g id="Path_297" data-name="Path 297" transform="translate(936.223 518.251)">
      <path id="Path_343" data-name="Path 343" d="M936.723,518.951h3.534v3.5h-3.534Z" transform="translate(-936.223 -518.456)" fill="#57b8ff"/>
      <path id="Path_344" data-name="Path 344" d="M940.757,522.942h-4.534v-4.491h4.534Zm-3.534-.991h2.534v-2.51h-2.534Z" transform="translate(-936.223 -518.451)" fill="#57b8ff"/>
    </g>
    <g id="Path_298" data-name="Path 298" transform="translate(936.223 511.249)">
      <path id="Path_345" data-name="Path 345" d="M940.257,513.633v5.25h-3.534v-5.25a1.767,1.767,0,0,1,3.534,0Z" transform="translate(-936.223 -511.388)" fill="#57b8ff"/>
      <path id="Path_346" data-name="Path 346" d="M940.757,519.374h-4.534v-5.745a2.267,2.267,0,0,1,4.534,0Zm-3.534-.991h2.534v-4.755a1.267,1.267,0,0,0-2.534,0Z" transform="translate(-936.223 -511.383)" fill="#57b8ff"/>
    </g>
    <g id="Path_299" data-name="Path 299" transform="translate(930.921 553.255)">
      <path id="Path_347" data-name="Path 347" d="M938.49,558.84l-2.474,2.451-4.064-4.03a1.679,1.679,0,0,1-.059-2.391c.019-.021.039-.04.059-.059a1.719,1.719,0,0,1,2.415-.051l.055.055Z" transform="translate(-930.921 -553.794)" fill="#57b8ff"/>
      <path id="Path_348" data-name="Path 348" d="M936.016,561.986l-4.418-4.379a2.171,2.171,0,0,1-.067-3.084l.072-.071a2.192,2.192,0,0,1,1.535-.662,2.274,2.274,0,0,1,1.575.607l4.484,4.439Zm-2.83-7.206h-.027a1.211,1.211,0,0,0-.847.368,1.234,1.234,0,0,0-.39.912,1.188,1.188,0,0,0,.374.837l3.72,3.688,1.767-1.749-3.715-3.676A1.246,1.246,0,0,0,933.186,554.78Z" transform="translate(-930.921 -553.79)" fill="#57b8ff"/>
    </g>
    <g id="Path_300" data-name="Path 300" transform="translate(929.155 518.251)">
      <path id="Path_349" data-name="Path 349" d="M936.723,518.951v3.5h-5.3a1.75,1.75,0,1,1,0-3.5Z" transform="translate(-929.155 -518.456)" fill="#57b8ff"/>
      <path id="Path_350" data-name="Path 350" d="M931.422,522.942a2.261,2.261,0,0,1-1.6-.657,2.225,2.225,0,0,1-.665-1.588,2.26,2.26,0,0,1,2.266-2.247h5.8v4.491h-5.8Zm0-3.5a1.255,1.255,0,1,0,0,2.51h4.8v-2.51Z" transform="translate(-929.155 -518.451)" fill="#57b8ff"/>
    </g>
    <g id="Path_301" data-name="Path 301" transform="translate(930.917 560.05)">
      <path id="Path_351" data-name="Path 351" d="M934.422,567.831a1.719,1.719,0,0,1-2.415.059c-.02-.02-.04-.039-.059-.059a1.679,1.679,0,0,1-.059-2.391c.019-.021.039-.04.059-.059l4.068-4.025,2.474,2.451Z" transform="translate(-930.917 -560.656)" fill="#57b8ff"/>
      <path id="Path_352" data-name="Path 352" d="M933.184,568.845a2.205,2.205,0,0,1-1.521-.6l-.078-.076a2.17,2.17,0,0,1-.059-3.075l.073-.071,4.418-4.371,3.18,3.151-4.418,4.371A2.212,2.212,0,0,1,933.184,568.845Zm2.832-6.8-3.715,3.674a1.207,1.207,0,0,0-.009,1.742,1.238,1.238,0,0,0,1.768.018l.008-.009,3.714-3.675Z" transform="translate(-930.917 -560.649)" fill="#57b8ff"/>
    </g>
    <g id="Path_302" data-name="Path 302" transform="translate(916.787 537.503)">
      <path id="Path_353" data-name="Path 353" d="M920.821,538.387v3.5h-1.767a1.75,1.75,0,1,1,0-3.5Z" transform="translate(-916.787 -537.892)" fill="#57b8ff"/>
      <path id="Path_354" data-name="Path 354" d="M921.321,542.379h-2.267a2.246,2.246,0,1,1,0-4.492h2.267Zm-2.267-3.5a1.256,1.256,0,1,0,0,2.511h1.267v-2.511Z" transform="translate(-916.787 -537.887)" fill="#57b8ff"/>
    </g>
    <g id="Path_303" data-name="Path 303" transform="translate(916.787 497.249)">
      <path id="Path_355" data-name="Path 355" d="M917.287,506.5a8.8,8.8,0,0,1,8.834-8.751h33.571a1.742,1.742,0,0,0-1.767,1.717v1.784h-31.8a5.27,5.27,0,0,0-5.3,5.238V538h-1.767a1.742,1.742,0,0,0-1.767,1.717V506.5Z" transform="translate(-916.787 -497.254)" fill="#57b8ff"/>
      <path id="Path_356" data-name="Path 356" d="M916.788,539.766v-.019h0V506.495a9.3,9.3,0,0,1,9.334-9.246h33.531c.016,0,.03,0,.045,0l-.039.991a1.245,1.245,0,0,0-.859.354,1.222,1.222,0,0,0-.374.872v2.274H926.116a4.778,4.778,0,0,0-4.8,4.744v32.006h-2.267a1.257,1.257,0,0,0-1.267,1.2v.057Zm1-33.272v31.384a2.227,2.227,0,0,1,1.272-.38h1.262v-31a5.777,5.777,0,0,1,5.8-5.746h31.309v-1.254a2.252,2.252,0,0,1,.378-1.255H926.121a8.309,8.309,0,0,0-8.334,8.255Z" transform="translate(-916.787 -497.249)" fill="#57b8ff"/>
    </g>
    <g id="Path_304" data-name="Path 304" transform="translate(916.787 539.743)">
      <path id="Path_357" data-name="Path 357" d="M920.821,573.407a5.269,5.269,0,0,0,5.288,5.25h31.812v1.75a1.74,1.74,0,0,0,1.733,1.75.186.186,0,0,0,.034,0H926.121a8.8,8.8,0,0,1-8.834-8.75V540.153a1.74,1.74,0,0,0,1.733,1.75.186.186,0,0,0,.034,0h1.767Z" transform="translate(-916.787 -540.148)" fill="#57b8ff"/>
      <path id="Path_358" data-name="Path 358" d="M959.688,582.654H926.121a9.306,9.306,0,0,1-9.334-9.246v-33.26l1,.039a1.246,1.246,0,0,0,1.237,1.222h2.3v32a4.687,4.687,0,0,0,1.4,3.358,4.781,4.781,0,0,0,3.388,1.395h32.312v2.246a1.248,1.248,0,0,0,1.236,1.256h.031Zm-41.9-40.637v31.391a8.31,8.31,0,0,0,8.334,8.255H957.8a2.2,2.2,0,0,1-.382-1.261v-1.25h-31.3a5.791,5.791,0,0,1-4.108-1.685,5.674,5.674,0,0,1-1.692-4.06V542.4h-1.267A2.331,2.331,0,0,1,917.787,542.016Z" transform="translate(-916.787 -540.148)" fill="#57b8ff"/>
    </g>
  </g>
</svg>
