<svg xmlns="http://www.w3.org/2000/svg" width="33.243" height="33.243" viewBox="0 0 33.243 33.243">
  <g id="Group_223" data-name="Group 223" transform="translate(2.121 2.121)">
    <g id="Show" transform="translate(0.083 4.571)">
      <path id="Show-2" data-name="Show" d="M12.9,20.667C7.57,20.667,2.775,16.94.076,10.7a.936.936,0,0,1,0-.738C2.772,3.722,7.567,0,12.9,0h.013a12.021,12.021,0,0,1,7.41,2.642,18.387,18.387,0,0,1,5.431,7.316.936.936,0,0,1,0,.738c-2.7,6.244-7.5,9.971-12.841,9.971ZM7.876,10.333a5.034,5.034,0,1,0,5.041-5.01A5.025,5.025,0,0,0,7.876,10.333Zm1.891,0a3.213,3.213,0,0,1,.064-.614h.063a2.579,2.579,0,0,0,2.583-2.481,2.569,2.569,0,0,1,.441-.037,3.125,3.125,0,1,1-3.15,3.132Z" transform="translate(0)" fill="#b2b2b2"/>
    </g>
    <line id="Line_4" data-name="Line 4" x1="29" y2="29" fill="none" stroke="#b2b2b2" stroke-linecap="round" stroke-width="3"/>
  </g>
</svg>
