<svg id="Iconly_Bold_Arrow_-_Left_Circle" data-name="Iconly/Bold/Arrow - Left Circle" xmlns="http://www.w3.org/2000/svg" width="24" height="24" viewBox="0 0 24 24">
  <g id="Arrow_-_Left_Circle" data-name="Arrow - Left Circle" transform="translate(2 2)">
    <path id="Arrow_-_Left_Circle-2" data-name="Arrow - Left Circle" d="M10,20A10,10,0,1,1,10,0l.28,0A10,10,0,0,1,10,20ZM11.446,5.775A.728.728,0,0,0,10.92,6L7.43,9.47a.747.747,0,0,0,0,1.06L10.92,14a.7.7,0,0,0,.52.22.745.745,0,0,0,.53-1.28L9.02,10l2.95-2.94A.745.745,0,0,0,11.98,6,.75.75,0,0,0,11.446,5.775Z" transform="translate(0 0)" fill="#6b58db"/>
  </g>
</svg>
