<svg id="Iconly_Bold_Tick_Square" data-name="Iconly/Bold/Tick Square" xmlns="http://www.w3.org/2000/svg" width="24" height="24" viewBox="0 0 24 24">
  <g id="Tick_Square" data-name="Tick Square" transform="translate(2 2)">
    <path id="Tick_Square-2" data-name="Tick Square" d="M14.34,20H5.67C2.279,20,0,17.625,0,14.091V5.92C0,2.379,2.279,0,5.67,0h8.67C17.725,0,20,2.379,20,5.92v8.171C20,17.625,17.725,20,14.34,20ZM6.44,9.125a.875.875,0,0,0-.62,1.5L8.2,12.99a.881.881,0,0,0,1.23,0L14.18,8.24A.877.877,0,0,0,12.94,7L8.81,11.13,7.06,9.38A.868.868,0,0,0,6.44,9.125Z" transform="translate(0 0)" fill="#4985ec"/>
  </g>
</svg>
