<svg id="Linecons_big-star" xmlns="http://www.w3.org/2000/svg" width="16.606" height="16.088" viewBox="0 0 16.606 16.088">
  <path id="star" d="M16.545,6.5a1.2,1.2,0,0,0-.957-.784L11.267,5.07l-1.878-3.9a1.213,1.213,0,0,0-2.171,0L5.34,5.07l-4.321.642A1.194,1.194,0,0,0,.063,6.5,1.145,1.145,0,0,0,.341,7.683l3.167,3.162L2.774,15.23a1.154,1.154,0,0,0,.492,1.143,1.225,1.225,0,0,0,1.271.068L8.3,14.413l3.768,2.028a1.225,1.225,0,0,0,1.271-.068,1.155,1.155,0,0,0,.491-1.143L13.1,10.844l3.168-3.162A1.149,1.149,0,0,0,16.545,6.5Zm-4.3,3.532a1.15,1.15,0,0,0-.325,1l.735,4.386L8.883,13.391a1.226,1.226,0,0,0-1.16,0L3.956,15.418l.735-4.386a1.148,1.148,0,0,0-.325-1L1.2,6.867,5.52,6.224a1.2,1.2,0,0,0,.9-.658L8.3,1.667l1.879,3.9a1.2,1.2,0,0,0,.9.658l4.322.644Z" transform="translate(0 -0.499)" fill="#fb0"/>
</svg>
