<svg xmlns="http://www.w3.org/2000/svg" width="143.171" height="127.5" viewBox="0 0 143.171 127.5">
  <g id="React-icon" transform="translate(-175.7 -78)">
    <path id="Path_504" data-name="Path 504" d="M318.871,141.765c0-9.484-11.877-18.473-30.088-24.047,4.2-18.56,2.335-33.327-5.895-38.054a12.8,12.8,0,0,0-6.537-1.634v6.508a6.757,6.757,0,0,1,3.327.759c3.969,2.276,5.691,10.944,4.348,22.091-.321,2.743-.846,5.632-1.488,8.58a141.425,141.425,0,0,0-18.531-3.181,142.352,142.352,0,0,0-12.14-14.591c9.514-8.842,18.444-13.687,24.514-13.687V78h0c-8.025,0-18.531,5.72-29.154,15.642C236.6,83.778,226.1,78.117,218.074,78.117v6.508c6.041,0,15,4.815,24.514,13.6a137.829,137.829,0,0,0-12.053,14.562,136.275,136.275,0,0,0-18.56,3.21c-.671-2.918-1.167-5.749-1.518-8.463-1.372-11.148.321-19.815,4.261-22.121a6.5,6.5,0,0,1,3.356-.759V78.146h0a13.012,13.012,0,0,0-6.6,1.634c-8.2,4.728-10.039,19.465-5.807,37.967-18.152,5.6-29.971,14.562-29.971,24.017,0,9.484,11.877,18.473,30.088,24.047-4.2,18.56-2.335,33.327,5.895,38.054a12.828,12.828,0,0,0,6.566,1.634c8.025,0,18.531-5.72,29.154-15.642,10.623,9.864,21.128,15.525,29.154,15.525a13.012,13.012,0,0,0,6.6-1.634c8.2-4.728,10.039-19.465,5.807-37.967C307.052,160.208,318.871,151.22,318.871,141.765Zm-38-19.465c-1.08,3.765-2.422,7.646-3.94,11.527-1.2-2.335-2.451-4.669-3.823-7-1.342-2.335-2.772-4.611-4.2-6.829C273.054,120.607,277.052,121.366,280.875,122.3Zm-13.366,31.08c-2.276,3.94-4.611,7.675-7.033,11.148-4.348.379-8.755.584-13.191.584-4.407,0-8.813-.2-13.132-.554q-3.633-5.209-7.062-11.09-3.327-5.734-6.07-11.615c1.809-3.91,3.852-7.821,6.041-11.644,2.276-3.94,4.611-7.675,7.033-11.148,4.348-.379,8.755-.584,13.191-.584,4.407,0,8.813.2,13.132.554q3.633,5.209,7.062,11.09,3.327,5.734,6.07,11.615C271.712,145.646,269.7,149.556,267.509,153.379Zm9.426-3.794c1.576,3.91,2.918,7.821,4.027,11.615-3.823.934-7.85,1.722-12.023,2.335,1.43-2.247,2.86-4.553,4.2-6.916C274.484,154.284,275.739,151.92,276.935,149.586Zm-29.591,31.138a120.3,120.3,0,0,1-8.113-9.339c2.626.117,5.311.2,8.025.2,2.743,0,5.457-.058,8.113-.2A113.909,113.909,0,0,1,247.344,180.724Zm-21.712-17.189c-4.144-.613-8.142-1.372-11.965-2.305,1.08-3.765,2.422-7.646,3.94-11.527,1.2,2.335,2.451,4.669,3.823,7S224.2,161.317,225.632,163.535Zm21.566-60.73a120.3,120.3,0,0,1,8.113,9.339c-2.626-.117-5.311-.2-8.025-.2-2.743,0-5.457.058-8.113.2A113.909,113.909,0,0,1,247.2,102.805Zm-21.6,17.189c-1.43,2.247-2.86,4.553-4.2,6.916-1.342,2.335-2.6,4.669-3.794,7-1.576-3.911-2.918-7.821-4.027-11.615C217.4,121.395,221.43,120.607,225.6,119.994Zm-26.41,36.537c-10.331-4.407-17.014-10.185-17.014-14.767s6.683-10.389,17.014-14.767c2.51-1.08,5.253-2.043,8.084-2.947a140.165,140.165,0,0,0,6.566,17.772,138.191,138.191,0,0,0-6.479,17.685C204.474,158.6,201.731,157.611,199.192,156.531Zm15.7,41.7c-3.969-2.276-5.691-10.944-4.348-22.091.321-2.743.846-5.632,1.488-8.58a141.433,141.433,0,0,0,18.531,3.181,142.353,142.353,0,0,0,12.14,14.591c-9.514,8.842-18.444,13.687-24.514,13.687A6.965,6.965,0,0,1,214.893,198.233ZM284.114,176c1.372,11.148-.321,19.815-4.261,22.121a6.5,6.5,0,0,1-3.356.759c-6.041,0-15-4.815-24.514-13.6a137.835,137.835,0,0,0,12.053-14.562,136.274,136.274,0,0,0,18.56-3.21A81.7,81.7,0,0,1,284.114,176Zm11.235-19.465c-2.51,1.08-5.253,2.043-8.084,2.947a140.158,140.158,0,0,0-6.566-17.772,138.188,138.188,0,0,0,6.479-17.685c2.889.9,5.632,1.9,8.2,2.977,10.331,4.407,17.014,10.185,17.014,14.767C312.363,146.346,305.681,152.154,295.35,156.531Z" transform="translate(0 0)" fill="#61dafb"/>
    <path id="Path_505" data-name="Path 505" d="M320.8,78.4Z" transform="translate(-102.756 -0.283)" fill="#61dafb"/>
    <circle id="Ellipse_31" data-name="Ellipse 31" cx="13.337" cy="13.337" r="13.337" transform="translate(233.92 128.428)" fill="#61dafb"/>
    <path id="Path_506" data-name="Path 506" d="M520.5,78.1Z" transform="translate(-244.177 -0.071)" fill="#61dafb"/>
  </g>
</svg>
