<svg id="Work" xmlns="http://www.w3.org/2000/svg" width="14.167" height="14.167" viewBox="0 0 14.167 14.167">
  <path id="Work-2" data-name="Work" d="M2.813,14.167A2.712,2.712,0,0,1,.12,11.441L.071,7.783a.149.149,0,0,1,.064-.122.091.091,0,0,1,.05-.014.146.146,0,0,1,.084.029A12.093,12.093,0,0,0,5.23,9.54a.511.511,0,0,0,.07,0,.533.533,0,0,0,.511-.392,1.292,1.292,0,0,1,1.261-.975h.022a1.292,1.292,0,0,1,1.261.975.534.534,0,0,0,.512.392.509.509,0,0,0,.069,0A12.093,12.093,0,0,0,13.9,7.675l.028-.015a.13.13,0,0,1,.057-.013.094.094,0,0,1,.05.013.149.149,0,0,1,.064.122l-.057,3.659a2.712,2.712,0,0,1-2.693,2.725ZM6.548,9.741v.926a.535.535,0,0,0,.531.537.529.529,0,0,0,.532-.537V9.741A.535.535,0,0,0,7.079,9.2.542.542,0,0,0,6.548,9.741ZM9.1,8.269A2.34,2.34,0,0,0,7.08,7.1,2.379,2.379,0,0,0,5.045,8.265a.231.231,0,0,1-.2.117.2.2,0,0,1-.04,0A11,11,0,0,1,.829,6.772L.149,6.3a.2.2,0,0,1-.092-.172C.036,5.766,0,4.6,0,4.584A2.72,2.72,0,0,1,2.7,1.851H4.1A2.109,2.109,0,0,1,6.166,0H7.994a2.108,2.108,0,0,1,2.069,1.851h1.4a2.72,2.72,0,0,1,2.7,2.733c0,.006-.042.647-.057,1.526a.234.234,0,0,1-.091.181c-.333.246-.65.458-.681.474a10.858,10.858,0,0,1-4,1.621.214.214,0,0,1-.04,0A.23.23,0,0,1,9.1,8.269ZM5.173,1.851H8.986a1.025,1.025,0,0,0-.992-.775H6.166A1.026,1.026,0,0,0,5.173,1.851Z" fill="#8e8e8e"/>
</svg>
